<svg width="472" height="440" viewBox="0 0 472 440" fill="none" xmlns="http://www.w3.org/2000/svg">
<path d="M235.59 439.923C365.703 439.923 471.18 379.025 471.18 303.903C471.18 228.782 365.703 167.883 235.59 167.883C105.477 167.883 0 228.782 0 303.903C0 379.025 105.477 439.923 235.59 439.923Z" fill="#F0F0F0"/>
<path d="M186.84 406.973C231.708 406.973 268.08 385.975 268.08 360.073C268.08 334.171 231.708 313.173 186.84 313.173C141.972 313.173 105.6 334.171 105.6 360.073C105.6 385.975 141.972 406.973 186.84 406.973Z" fill="#E0E0E0"/>
<path d="M417.87 301.393L408.34 295.893C408.34 295.893 406.01 275.493 407.56 259.693C409.74 237.493 424.08 210.773 441.18 217.053C458.28 223.333 433.34 245.933 427.79 264.763C422.24 283.593 417.87 301.393 417.87 301.393Z" fill="#05937B"/>
<path opacity="0.15" d="M417.87 301.393L408.34 295.893C408.34 295.893 406.01 275.493 407.56 259.693C409.74 237.493 424.08 210.773 441.18 217.053C458.28 223.333 433.34 245.933 427.79 264.763C422.24 283.593 417.87 301.393 417.87 301.393Z" fill="black"/>
<path d="M412.86 299.083C413.012 299.075 413.155 299.008 413.258 298.896C413.361 298.784 413.416 298.635 413.41 298.483C411.74 249.153 436.3 224.333 436.54 224.093C436.649 223.984 436.71 223.837 436.71 223.683C436.71 223.529 436.649 223.382 436.54 223.273C436.487 223.22 436.424 223.177 436.355 223.148C436.285 223.119 436.211 223.104 436.135 223.104C436.06 223.104 435.985 223.119 435.916 223.148C435.846 223.177 435.783 223.22 435.73 223.273C435.47 223.513 410.56 248.693 412.25 298.523C412.253 298.6 412.271 298.676 412.303 298.746C412.335 298.816 412.381 298.879 412.438 298.931C412.494 298.983 412.561 299.024 412.634 299.05C412.706 299.076 412.783 299.087 412.86 299.083Z" fill="white"/>
<path d="M423.86 304.823L417.08 300.913C417.08 300.913 415.92 286.913 422.79 269.913C428.79 255.113 443.59 242.823 451.05 245.403C458.51 247.983 458.32 253.273 454.68 258.823C451.04 264.373 428.93 277.583 423.86 304.823Z" fill="#05937B"/>
<path d="M420.28 303.343C420.433 303.341 420.579 303.279 420.687 303.17C420.796 303.062 420.858 302.916 420.86 302.763C420.72 271.563 450.01 250.483 450.31 250.273C450.373 250.23 450.426 250.175 450.466 250.111C450.507 250.047 450.534 249.976 450.546 249.901C450.559 249.826 450.555 249.75 450.537 249.676C450.519 249.603 450.486 249.534 450.44 249.473C450.352 249.35 450.218 249.266 450.069 249.24C449.919 249.214 449.765 249.247 449.64 249.333C449.34 249.543 419.57 270.983 419.7 302.763C419.7 302.917 419.761 303.065 419.87 303.173C419.979 303.282 420.126 303.343 420.28 303.343Z" fill="white"/>
<path d="M65.2502 289.143L74.0502 283.203C74.0502 283.203 77.9202 260.203 74.3202 239.913C69.2602 211.453 49.5902 201.993 42.5902 204.993C35.5902 207.993 34.0902 216.463 47.1602 232.703C54.9102 242.253 64.9802 262.643 65.2502 289.143Z" fill="#05937B"/>
<g opacity="0.15">
<path d="M65.2502 289.143L74.0502 283.203C74.0502 283.203 77.9202 260.203 74.3202 239.913C69.2602 211.453 49.5902 201.993 42.5902 204.993C35.5902 207.993 34.0902 216.463 47.1602 232.703C54.9102 242.253 64.9802 262.643 65.2502 289.143Z" fill="black"/>
</g>
<path d="M68.2702 277.743H68.1802C68.0904 277.738 68.0027 277.713 67.9229 277.671C67.8432 277.629 67.7732 277.571 67.7175 277.5C67.6618 277.429 67.6217 277.348 67.5998 277.26C67.5778 277.173 67.5746 277.082 67.5902 276.993C70.7702 250.203 59.4602 221.123 47.1502 209.553C47.0318 209.433 46.9653 209.272 46.9653 209.103C46.9653 208.935 47.0318 208.773 47.1502 208.653C47.2089 208.593 47.2789 208.546 47.3562 208.513C47.4335 208.481 47.5164 208.464 47.6002 208.464C47.6841 208.464 47.767 208.481 47.8443 208.513C47.9216 208.546 47.9916 208.593 48.0502 208.653C60.5902 220.433 72.1103 249.993 68.8903 277.173C68.8714 277.326 68.7986 277.468 68.6851 277.572C68.5715 277.677 68.4244 277.737 68.2702 277.743Z" fill="white"/>
<path d="M42.2101 304.683C40.8101 305.523 36.7301 302.493 35.6001 301.763C33.6635 300.499 32.086 298.756 31.0201 296.703C29.8244 294.375 29.3807 291.734 29.7501 289.143C29.9549 287.791 30.2523 286.455 30.6401 285.143C30.9901 283.833 31.3401 282.523 31.6401 281.203C32.0836 279.919 32.2539 278.557 32.1401 277.203C31.7501 274.533 29.3401 272.703 27.1401 271.133C24.7201 269.383 22.1401 267.073 22.1401 263.853C22.2635 261.323 23.2318 258.908 24.8901 256.993C26.3901 254.993 28.1901 253.253 29.5401 251.163C30.5958 249.715 31.1346 247.954 31.0701 246.163C30.8963 245.059 30.5018 244.001 29.9101 243.053C28.7301 240.973 27.2001 239.053 26.3701 236.843C25.5401 234.633 25.6001 231.793 27.3701 230.143C28.7801 228.793 30.9301 228.573 32.8801 228.663C34.7176 228.846 36.4927 229.43 38.0801 230.373C43.2501 233.123 46.2901 239.123 51.7601 241.213C53.8701 242.013 56.1701 242.153 58.3601 242.693C60.5501 243.233 62.8101 244.303 63.8601 246.293C65.9301 250.243 62.3201 255.223 63.8001 259.413C65.1201 263.133 68.8001 264.493 70.8801 267.823C71.7243 269.302 72.0746 271.012 71.8801 272.703C71.7628 275.559 71.1222 278.369 69.9901 280.993C68.6881 283.715 67.2187 286.353 65.5901 288.893C65.5901 288.893 42.4201 304.553 42.2101 304.683Z" fill="#05937B"/>
<path d="M55.7302 296.393C55.6462 296.392 55.5632 296.374 55.4861 296.341C55.4089 296.307 55.3391 296.259 55.2806 296.199C55.2221 296.138 55.1761 296.067 55.1451 295.989C55.1142 295.911 55.0989 295.827 55.1003 295.743C55.6603 270.423 43.2003 242.743 34.3803 234.743C34.2549 234.63 34.1793 234.472 34.1699 234.304C34.1606 234.135 34.2182 233.97 34.3303 233.843C34.3889 233.783 34.4589 233.736 34.5362 233.703C34.6135 233.671 34.6964 233.654 34.7802 233.654C34.8641 233.654 34.947 233.671 35.0243 233.703C35.1016 233.736 35.1716 233.783 35.2302 233.843C44.2302 241.943 56.9402 270.103 56.3702 295.773C56.3689 295.856 56.3514 295.938 56.3185 296.014C56.2856 296.09 56.2381 296.158 56.1787 296.216C56.1193 296.273 56.0491 296.319 55.9721 296.349C55.8952 296.38 55.813 296.395 55.7302 296.393Z" fill="white"/>
<path d="M51.0602 265.543C51.0011 265.558 50.9393 265.558 50.8802 265.543C42.7002 263.183 32.5602 262.943 32.4602 262.933C32.3766 262.932 32.2941 262.914 32.2175 262.881C32.1409 262.847 32.0717 262.799 32.014 262.738C31.9563 262.678 31.9112 262.606 31.8813 262.528C31.8515 262.45 31.8375 262.367 31.8402 262.283C31.8386 262.199 31.8546 262.115 31.8871 262.037C31.9196 261.959 31.9679 261.889 32.029 261.831C32.0901 261.772 32.1627 261.727 32.242 261.699C32.3214 261.67 32.4059 261.658 32.4902 261.663C32.5902 261.663 42.8902 261.913 51.2302 264.313C51.3913 264.362 51.5269 264.472 51.6073 264.62C51.6878 264.768 51.7068 264.942 51.6602 265.103C51.6212 265.232 51.5417 265.344 51.4335 265.423C51.3253 265.503 51.1943 265.545 51.0602 265.543Z" fill="white"/>
<path d="M286.75 271.733L282.96 269.543C282.329 269.133 281.803 268.58 281.426 267.928C281.049 267.277 280.831 266.545 280.79 265.793V108.273C280.832 107.523 281.049 106.792 281.424 106.141C281.799 105.49 282.322 104.936 282.95 104.523L388.3 43.7033C388.971 43.3633 389.713 43.1861 390.465 43.1861C391.218 43.1861 391.959 43.3633 392.63 43.7033L396.42 45.8933C397.052 46.3033 397.577 46.8566 397.955 47.5083C398.332 48.16 398.549 48.8915 398.59 49.6433V207.163C398.549 207.914 398.332 208.644 397.957 209.296C397.582 209.947 397.059 210.501 396.43 210.913L291.08 271.743C290.409 272.084 289.667 272.261 288.914 272.259C288.161 272.257 287.42 272.077 286.75 271.733Z" fill="black"/>
<path d="M398.59 49.2933C398.44 48.1733 397.53 47.7633 396.44 48.3933L291.08 109.223C290.443 109.623 289.917 110.177 289.55 110.833L281.42 106.143C281.784 105.482 282.31 104.924 282.95 104.523L388.3 43.7033C388.971 43.3633 389.713 43.1861 390.465 43.1861C391.217 43.1861 391.959 43.3633 392.63 43.7033L396.42 45.8933C397.006 46.2701 397.503 46.7691 397.877 47.3559C398.252 47.9428 398.495 48.6037 398.59 49.2933Z" fill="black"/>
<path d="M290.71 271.913C290.07 272.173 289.382 272.292 288.692 272.262C288.002 272.233 287.326 272.056 286.71 271.743L282.91 269.543C282.282 269.131 281.759 268.577 281.384 267.926C281.008 267.274 280.792 266.544 280.75 265.793V108.273C280.776 107.521 280.993 106.788 281.38 106.143L289.51 110.833C289.115 111.479 288.895 112.217 288.87 112.973V270.493C288.91 271.733 289.69 272.303 290.71 271.913Z" fill="#263238"/>
<path d="M288.91 112.993V270.493C288.91 271.873 289.91 272.433 291.08 271.743L396.43 210.913C397.059 210.501 397.582 209.947 397.957 209.296C398.332 208.644 398.549 207.914 398.59 207.163V49.6433C398.59 48.2633 397.59 47.7033 396.43 48.3933L291.08 109.223C290.446 109.635 289.919 110.192 289.541 110.847C289.164 111.503 288.948 112.238 288.91 112.993Z" fill="#37474F"/>
<path d="M264.31 172.993C262.95 172.183 256.64 168.593 256.31 168.403C256.053 168.25 255.834 168.041 255.668 167.791C255.503 167.542 255.395 167.258 255.354 166.961C255.313 166.665 255.339 166.363 255.43 166.078C255.521 165.792 255.675 165.531 255.88 165.313L280.79 138.593L288.91 143.253L264.01 169.993C263.815 170.202 263.666 170.449 263.574 170.72C263.482 170.99 263.45 171.277 263.478 171.562C263.506 171.846 263.595 172.121 263.739 172.368C263.882 172.615 264.077 172.828 264.31 172.993Z" fill="black"/>
<path d="M288.91 143.283L264.01 169.993C263.734 170.289 263.553 170.661 263.492 171.061C263.432 171.461 263.494 171.87 263.67 172.233C263.847 172.597 264.13 172.899 264.481 173.099C264.833 173.299 265.237 173.388 265.64 173.353L288.91 171.433V143.283Z" fill="#37474F"/>
<path d="M343.75 95.1933C356.03 88.1033 365.98 93.8533 365.98 108.033C365.98 122.213 356.03 139.443 343.75 146.533C331.47 153.623 321.52 147.873 321.52 133.703C321.52 119.533 331.47 102.283 343.75 95.1933Z" fill="black"/>
<path d="M343.59 106.353C347.59 104.053 350.8 105.913 350.8 110.513C350.664 113.014 349.94 115.447 348.687 117.615C347.435 119.784 345.688 121.626 343.59 122.993C339.59 125.293 336.37 123.433 336.37 118.833C336.507 116.332 337.233 113.898 338.487 111.73C339.742 109.561 341.49 107.719 343.59 106.353Z" fill="white"/>
<path d="M357.81 130.873C357.81 123.323 352.5 120.253 345.96 124.033L341.87 126.393C335.33 130.173 330.02 139.393 330.02 146.923V148.993C331.255 149.388 332.544 149.587 333.84 149.583C337.349 149.464 340.765 148.43 343.75 146.583C349.435 143.082 354.244 138.327 357.81 132.683V130.873Z" fill="white"/>
<path d="M329.67 216.723L357.83 200.463C359.03 199.773 360 200.333 360 201.713V210.783C359.959 211.535 359.742 212.267 359.365 212.918C358.987 213.57 358.462 214.123 357.83 214.533L329.67 230.793C328.47 231.483 327.5 230.923 327.5 229.543V220.473C327.541 219.721 327.759 218.99 328.136 218.338C328.513 217.687 329.039 217.133 329.67 216.723Z" fill="black"/>
<path d="M315.88 196.463L371.59 164.283C373.02 163.453 374.19 164.123 374.19 165.783V169.153C374.141 170.055 373.88 170.932 373.429 171.714C372.977 172.496 372.347 173.161 371.59 173.653L315.85 205.833C314.42 206.663 313.26 205.993 313.26 204.333V200.993C313.306 200.084 313.567 199.199 314.023 198.412C314.478 197.624 315.115 196.956 315.88 196.463Z" fill="#FAFAFA"/>
<path d="M322.4 173.173C323.16 172.733 323.75 172.663 324.17 172.973C324.59 173.283 324.8 173.973 324.8 175.033C324.821 176.001 324.605 176.959 324.17 177.823C323.777 178.605 323.161 179.252 322.4 179.683L320.9 180.553V183.783C320.897 183.895 320.87 184.004 320.82 184.103C320.785 184.194 320.722 184.271 320.64 184.323L319.88 184.763C319.854 184.783 319.823 184.793 319.79 184.793C319.758 184.793 319.726 184.783 319.7 184.763C319.646 184.696 319.621 184.609 319.63 184.523V175.173C319.629 175.063 319.653 174.953 319.7 174.853C319.738 174.764 319.801 174.688 319.88 174.633L322.4 173.173ZM320.9 178.743L322.35 177.903C322.701 177.706 322.996 177.424 323.21 177.083C323.438 176.682 323.548 176.225 323.53 175.763C323.53 175.223 323.42 174.913 323.21 174.823C323.062 174.787 322.907 174.786 322.758 174.819C322.609 174.851 322.47 174.918 322.35 175.013L320.9 175.853V178.743Z" fill="#FAFAFA"/>
<path d="M328.99 169.363C329.09 169.303 329.17 169.303 329.22 169.363C329.284 169.453 329.329 169.555 329.35 169.663L331.66 177.483C331.66 177.483 331.66 177.543 331.66 177.573C331.659 177.685 331.631 177.794 331.58 177.893C331.545 177.984 331.482 178.061 331.4 178.113L330.72 178.503C330.6 178.573 330.51 178.583 330.46 178.503C330.412 178.453 330.377 178.391 330.36 178.323L329.95 176.953L326.95 178.673L326.55 180.513C326.522 180.613 326.485 180.71 326.44 180.803C326.391 180.925 326.298 181.025 326.18 181.083L325.5 181.473C325.475 181.494 325.443 181.506 325.41 181.506C325.377 181.506 325.345 181.494 325.32 181.473C325.268 181.409 325.243 181.326 325.25 181.243C325.245 181.207 325.245 181.17 325.25 181.133L327.55 170.653C327.578 170.499 327.621 170.348 327.68 170.203C327.729 170.098 327.81 170.011 327.91 169.953L328.99 169.363ZM329.51 175.423L328.51 171.893L327.51 176.613L329.51 175.423Z" fill="#FAFAFA"/>
<path d="M335.16 165.653C335.495 165.442 335.876 165.315 336.27 165.283C336.549 165.258 336.829 165.321 337.07 165.463C337.29 165.606 337.461 165.811 337.56 166.053C337.67 166.299 337.731 166.564 337.74 166.833C337.747 166.944 337.723 167.055 337.67 167.153C337.635 167.244 337.572 167.321 337.49 167.373L336.83 167.753C336.72 167.813 336.64 167.823 336.59 167.753C336.528 167.713 336.477 167.658 336.44 167.593C336.4 167.503 336.342 167.422 336.27 167.355C336.198 167.288 336.113 167.237 336.02 167.203C335.716 167.16 335.406 167.239 335.16 167.423C334.998 167.528 334.844 167.645 334.7 167.773C334.552 167.91 334.421 168.064 334.31 168.233C334.204 168.396 334.117 168.571 334.05 168.753C333.991 168.927 333.961 169.11 333.96 169.293C333.948 169.462 333.979 169.63 334.05 169.783C334.081 169.837 334.124 169.882 334.177 169.915C334.229 169.949 334.289 169.968 334.35 169.973C334.536 170.005 334.725 170.005 334.91 169.973L335.78 169.783C336.104 169.687 336.443 169.647 336.78 169.663C337.022 169.663 337.256 169.74 337.45 169.883C337.633 170.037 337.766 170.243 337.83 170.473C337.928 170.797 337.972 171.135 337.96 171.473C337.96 171.92 337.896 172.364 337.77 172.793C337.648 173.234 337.47 173.658 337.24 174.053C336.998 174.459 336.71 174.835 336.38 175.173C336.044 175.522 335.66 175.822 335.24 176.063C334.932 176.251 334.594 176.383 334.24 176.453C333.953 176.509 333.655 176.484 333.38 176.383C333.13 176.267 332.924 176.075 332.79 175.833C332.627 175.525 332.538 175.182 332.53 174.833C332.529 174.719 332.553 174.607 332.6 174.503C332.645 174.418 332.71 174.346 332.79 174.293L333.45 173.913C333.55 173.853 333.63 173.833 333.69 173.863C333.75 173.893 333.79 173.943 333.83 174.033C333.872 174.136 333.925 174.234 333.99 174.323C334.053 174.41 334.14 174.477 334.24 174.513C334.372 174.544 334.509 174.544 334.64 174.513C334.853 174.463 335.055 174.379 335.24 174.263C335.434 174.153 335.618 174.026 335.79 173.883C336.127 173.617 336.394 173.274 336.57 172.883C336.65 172.683 336.691 172.469 336.69 172.253C336.7 172.175 336.693 172.096 336.671 172.02C336.648 171.944 336.611 171.874 336.56 171.813C336.506 171.766 336.442 171.73 336.373 171.71C336.304 171.689 336.232 171.683 336.16 171.693C335.933 171.703 335.708 171.74 335.49 171.803C335.23 171.863 334.93 171.933 334.58 171.993C334.312 172.06 334.035 172.081 333.76 172.053C333.544 172.039 333.339 171.951 333.18 171.803C333.007 171.634 332.886 171.419 332.83 171.183C332.75 170.836 332.713 170.48 332.72 170.123C332.72 169.683 332.784 169.245 332.91 168.823C333.03 168.389 333.204 167.973 333.43 167.583C333.647 167.197 333.908 166.837 334.21 166.513C334.485 166.183 334.804 165.893 335.16 165.653Z" fill="#FAFAFA"/>
<path d="M341.73 161.873C342.063 161.656 342.444 161.525 342.84 161.493C343.119 161.47 343.398 161.532 343.64 161.673C343.854 161.819 344.021 162.024 344.12 162.263C344.23 162.509 344.291 162.774 344.3 163.043C344.312 163.155 344.288 163.267 344.23 163.363C344.195 163.454 344.132 163.531 344.05 163.583L343.39 163.963C343.29 164.023 343.21 164.043 343.15 163.963C343.087 163.923 343.037 163.864 343.01 163.793C342.919 163.618 342.766 163.482 342.58 163.413C342.431 163.391 342.279 163.4 342.133 163.437C341.987 163.475 341.85 163.542 341.73 163.633C341.563 163.735 341.406 163.852 341.26 163.983C341.115 164.12 340.987 164.275 340.88 164.443C340.77 164.604 340.683 164.779 340.62 164.963C340.558 165.137 340.524 165.319 340.52 165.503C340.508 165.672 340.539 165.84 340.61 165.993C340.641 166.047 340.684 166.092 340.737 166.126C340.789 166.159 340.849 166.178 340.91 166.183C341.096 166.216 341.285 166.216 341.47 166.183L342.34 165.993C342.666 165.903 343.003 165.862 343.34 165.873C343.582 165.871 343.817 165.948 344.01 166.093C344.193 166.249 344.328 166.454 344.4 166.683C344.489 167.009 344.529 167.346 344.52 167.683C344.52 168.13 344.456 168.574 344.33 169.003C344.208 169.444 344.03 169.868 343.8 170.263C343.559 170.673 343.271 171.052 342.94 171.393C342.603 171.734 342.223 172.029 341.81 172.273C341.502 172.46 341.164 172.592 340.81 172.663C340.526 172.718 340.232 172.694 339.96 172.593C339.705 172.481 339.495 172.288 339.36 172.043C339.196 171.736 339.11 171.392 339.11 171.043C339.099 170.932 339.123 170.82 339.18 170.723C339.216 170.633 339.279 170.556 339.36 170.503L340.02 170.123C340.12 170.063 340.21 170.043 340.26 170.073C340.295 170.089 340.326 170.113 340.35 170.142C340.374 170.172 340.391 170.206 340.4 170.243C340.446 170.344 340.499 170.441 340.56 170.533C340.626 170.621 340.717 170.687 340.82 170.723C340.952 170.754 341.089 170.754 341.22 170.723C341.433 170.673 341.635 170.589 341.82 170.473C342.009 170.36 342.19 170.233 342.36 170.093C342.536 169.956 342.691 169.795 342.82 169.613C342.95 169.441 343.057 169.252 343.14 169.053C343.22 168.853 343.261 168.639 343.26 168.423C343.27 168.345 343.263 168.266 343.241 168.19C343.218 168.114 343.181 168.044 343.13 167.983C343.076 167.936 343.012 167.9 342.943 167.88C342.874 167.859 342.802 167.853 342.73 167.863C342.507 167.877 342.286 167.914 342.07 167.973C341.81 168.033 341.5 168.103 341.16 168.163C340.889 168.23 340.608 168.251 340.33 168.223C340.113 168.212 339.908 168.123 339.75 167.973C339.581 167.803 339.463 167.588 339.41 167.353C339.321 167.011 339.281 166.657 339.29 166.303C339.294 165.86 339.358 165.419 339.48 164.993C339.604 164.561 339.779 164.145 340 163.753C340.217 163.364 340.482 163.005 340.79 162.683C341.06 162.366 341.377 162.093 341.73 161.873Z" fill="#FAFAFA"/>
<path d="M349.02 163.123L348.21 167.913C348.186 168.057 348.146 168.198 348.09 168.333C348.052 168.441 347.978 168.533 347.88 168.593L347.12 169.033C347.02 169.093 346.95 169.093 346.9 169.033C346.833 168.951 346.795 168.849 346.79 168.743L345.59 160.293C345.59 160.293 345.59 160.213 345.59 160.183C345.593 160.072 345.621 159.963 345.67 159.863C345.708 159.774 345.771 159.698 345.85 159.643L346.54 159.243C346.598 159.22 346.663 159.22 346.72 159.243C346.78 159.243 346.82 159.323 346.84 159.483L347.63 165.173L348.32 160.903C348.338 160.797 348.368 160.693 348.41 160.593C348.45 160.467 348.536 160.36 348.65 160.293L349.42 159.843C349.53 159.783 349.61 159.793 349.66 159.843C349.704 159.907 349.734 159.978 349.75 160.053L350.45 163.523L351.24 156.923C351.25 156.793 351.287 156.667 351.35 156.553C351.397 156.479 351.458 156.414 351.53 156.363L352.22 155.963C352.246 155.944 352.278 155.933 352.31 155.933C352.343 155.933 352.374 155.944 352.4 155.963C352.429 155.996 352.451 156.034 352.464 156.075C352.478 156.117 352.483 156.16 352.48 156.203C352.484 156.243 352.484 156.283 352.48 156.323L351.28 166.153C351.26 166.297 351.223 166.438 351.17 166.573C351.125 166.68 351.048 166.771 350.95 166.833L350.18 167.273C350.09 167.323 350.02 167.323 349.97 167.273C349.92 167.181 349.879 167.084 349.85 166.983L349.02 163.123Z" fill="#FAFAFA"/>
<path d="M353.7 158.883C353.722 158.329 353.789 157.777 353.9 157.233C354.015 156.702 354.189 156.185 354.42 155.693C354.641 155.215 354.923 154.768 355.26 154.363C355.602 153.962 356.012 153.623 356.47 153.363C356.823 153.124 357.235 152.989 357.66 152.973C357.978 152.977 358.282 153.102 358.51 153.323C358.753 153.595 358.927 153.921 359.02 154.273C359.149 154.733 359.22 155.206 359.23 155.683C359.23 155.863 359.23 156.063 359.23 156.283C359.23 156.503 359.23 156.733 359.23 156.973C359.23 157.213 359.23 157.443 359.23 157.663C359.23 157.883 359.23 158.093 359.23 158.283C359.209 158.834 359.142 159.383 359.03 159.923C358.915 160.453 358.744 160.969 358.52 161.463C358.293 161.94 358.007 162.387 357.67 162.793C357.328 163.191 356.923 163.529 356.47 163.793C356.11 164.031 355.692 164.165 355.26 164.183C355.105 164.186 354.95 164.158 354.805 164.1C354.661 164.041 354.53 163.954 354.42 163.843C354.159 163.563 353.98 163.218 353.9 162.843C353.781 162.382 353.714 161.909 353.7 161.433C353.7 161.253 353.7 161.053 353.7 160.833C353.7 160.613 353.7 160.383 353.7 160.143C353.7 159.903 353.7 159.683 353.7 159.453C353.7 159.223 353.69 159.063 353.7 158.883ZM357.96 156.493C357.982 156.249 357.955 156.002 357.879 155.768C357.804 155.535 357.682 155.319 357.52 155.133C357.26 154.903 356.9 154.913 356.47 155.133C356.003 155.408 355.633 155.82 355.41 156.313C355.127 156.896 354.976 157.535 354.97 158.183C354.97 158.553 354.97 158.963 354.97 159.413C354.97 159.863 354.97 160.263 354.97 160.623C354.948 160.868 354.976 161.115 355.051 161.348C355.127 161.582 355.249 161.798 355.41 161.983C355.67 162.203 356.03 162.183 356.47 161.933C356.929 161.657 357.295 161.249 357.52 160.763C357.804 160.184 357.954 159.548 357.96 158.903C357.96 158.523 357.96 158.113 357.96 157.663C357.96 157.213 357.97 156.853 357.96 156.493Z" fill="#FAFAFA"/>
<path d="M363.59 149.373C364.38 148.923 364.97 148.853 365.38 149.183C365.623 149.451 365.804 149.769 365.909 150.115C366.015 150.461 366.042 150.826 365.99 151.183C365.998 151.863 365.894 152.538 365.68 153.183C365.477 153.784 365.161 154.341 364.75 154.823L366.05 157.653C366.054 157.7 366.054 157.747 366.05 157.793C366.051 157.883 366.03 157.972 365.99 158.053C365.963 158.126 365.914 158.189 365.85 158.233L365.05 158.693C364.92 158.763 364.83 158.773 364.77 158.693C364.717 158.641 364.673 158.58 364.64 158.513L363.41 155.843L362.16 156.563V159.943C362.161 160.054 362.137 160.163 362.09 160.263C362.049 160.35 361.987 160.426 361.91 160.483L361.15 160.923C361.125 160.944 361.093 160.956 361.06 160.956C361.027 160.956 360.995 160.944 360.97 160.923C360.942 160.893 360.92 160.856 360.906 160.817C360.892 160.777 360.887 160.735 360.89 160.693V151.343C360.893 151.232 360.92 151.123 360.97 151.023C361.005 150.933 361.068 150.856 361.15 150.803L363.59 149.373ZM362.18 154.753L363.59 153.993C363.935 153.801 364.229 153.53 364.45 153.203C364.682 152.818 364.793 152.372 364.77 151.923C364.77 151.383 364.66 151.083 364.45 151.023C364.146 150.982 363.837 151.061 363.59 151.243L362.23 152.023L362.18 154.753Z" fill="#FAFAFA"/>
<path d="M370.29 145.523C370.653 145.286 371.069 145.142 371.5 145.103C371.813 145.092 372.118 145.203 372.35 145.413C372.615 145.692 372.798 146.038 372.88 146.413C373.015 146.909 373.088 147.42 373.1 147.933C373.1 148.633 373.1 149.353 373.1 150.083C373.08 150.679 373.006 151.271 372.88 151.853C372.766 152.394 372.591 152.921 372.36 153.423C372.137 153.885 371.855 154.315 371.52 154.703C371.186 155.101 370.787 155.439 370.34 155.703L367.97 156.993C367.945 157.014 367.913 157.026 367.88 157.026C367.847 157.026 367.815 157.014 367.79 156.993C367.761 156.963 367.739 156.927 367.725 156.887C367.711 156.847 367.706 156.805 367.71 156.763V147.413C367.713 147.302 367.74 147.193 367.79 147.093C367.825 147.003 367.888 146.926 367.97 146.873L370.29 145.523ZM371.83 148.633C371.826 148.362 371.785 148.093 371.71 147.833C371.664 147.636 371.563 147.456 371.42 147.313C371.357 147.251 371.282 147.201 371.2 147.169C371.117 147.136 371.029 147.121 370.94 147.123C370.69 147.14 370.448 147.223 370.24 147.363L368.98 148.083V154.603L370.29 153.853C370.543 153.706 370.77 153.516 370.96 153.293C371.146 153.074 371.304 152.832 371.43 152.573C371.555 152.298 371.649 152.009 371.71 151.713C371.78 151.404 371.82 151.09 371.83 150.773C371.86 150.043 371.86 149.333 371.83 148.633Z" fill="#FAFAFA"/>
<path d="M232.97 0.383284C234.696 0.767363 236.359 1.39356 237.91 2.24328C239.395 3.04156 240.725 4.09808 241.84 5.36328C242.906 6.58034 243.697 8.01286 244.16 9.56328C244.632 11.2229 244.666 12.9764 244.26 14.6533C243.992 15.9828 243.465 17.2467 242.71 18.3733C242.02 19.3367 241.199 20.1984 240.27 20.9333C239.357 21.6418 238.383 22.2676 237.36 22.8033L234.48 24.3333C233.612 24.7858 232.789 25.3181 232.02 25.9233C231.324 26.4569 230.791 27.1737 230.48 27.9933C230.327 28.3677 230.075 28.693 229.75 28.9333C229.596 29.0528 229.417 29.1356 229.226 29.1755C229.036 29.2153 228.839 29.2111 228.65 29.1633L224.41 28.2233C224.206 28.1805 224.012 28.0974 223.84 27.9789C223.669 27.8605 223.522 27.709 223.41 27.5333C223.29 27.37 223.21 27.1808 223.177 26.981C223.144 26.7812 223.159 26.5764 223.22 26.3833C223.561 25.0702 224.163 23.8391 224.99 22.7633C225.744 21.8117 226.618 20.9613 227.59 20.2333C228.537 19.5402 229.54 18.928 230.59 18.4033C231.59 17.8933 232.59 17.4033 233.46 16.9133C234.269 16.4783 235.03 15.9587 235.73 15.3633C236.344 14.8493 236.769 14.1457 236.94 13.3633C237.099 12.6839 237.091 11.976 236.917 11.3003C236.743 10.6246 236.407 10.0012 235.94 9.48329C234.77 8.20659 233.207 7.35816 231.5 7.07329C228.34 6.37329 225.673 7.43662 223.5 10.2633C223.29 10.5718 223.026 10.8395 222.72 11.0533C222.375 11.2244 221.976 11.2531 221.61 11.1333L217.1 10.1333C216.778 10.0711 216.494 9.88418 216.31 9.61328C216.211 9.46855 216.145 9.30433 216.116 9.13179C216.087 8.95924 216.095 8.78241 216.14 8.61328C216.523 7.22373 217.237 5.94747 218.22 4.89329C219.328 3.67074 220.646 2.65495 222.11 1.89329C223.711 1.05568 225.436 0.481651 227.22 0.193285C229.131 -0.117525 231.084 -0.0529904 232.97 0.383284ZM228.18 32.5633C228.576 32.6564 228.921 32.9011 229.14 33.2449C229.358 33.5888 229.434 34.0045 229.35 34.4033L228.27 39.3033C228.233 39.5084 228.154 39.7036 228.037 39.8759C227.919 40.0482 227.767 40.1939 227.59 40.3033C227.422 40.4187 227.233 40.4979 227.033 40.5358C226.833 40.5737 226.628 40.5694 226.43 40.5233L221.59 39.4133C221.384 39.3786 221.188 39.2999 221.015 39.1825C220.843 39.0652 220.698 38.9119 220.59 38.7333C220.478 38.5644 220.401 38.3744 220.365 38.1749C220.329 37.9755 220.334 37.7708 220.38 37.5733L221.47 32.6733C221.563 32.2761 221.807 31.9307 222.151 31.7105C222.494 31.4902 222.91 31.4123 223.31 31.4933L228.18 32.5633Z" fill="black"/>
<path d="M238.31 47.2933C239.514 47.1001 240.739 47.0766 241.95 47.2233C243.106 47.3608 244.23 47.6992 245.27 48.2233C246.26 48.7371 247.132 49.4524 247.83 50.3233C248.457 51.1756 248.898 52.1499 249.126 53.1834C249.353 54.2168 249.361 55.2865 249.15 56.3233C248.959 57.1204 248.653 57.8853 248.24 58.5933C247.842 59.282 247.38 59.9315 246.86 60.5333C246.35 61.1333 245.86 61.7033 245.41 62.2533C244.969 62.7657 244.578 63.3181 244.24 63.9033C243.923 64.4162 243.763 65.0106 243.78 65.6133C243.771 65.895 243.692 66.17 243.55 66.4133C243.477 66.5254 243.382 66.6209 243.27 66.6933C243.158 66.7657 243.032 66.8134 242.9 66.8333L239.9 67.3133C239.76 67.3387 239.616 67.3359 239.477 67.305C239.337 67.2741 239.206 67.2157 239.09 67.1333C238.972 67.059 238.873 66.9577 238.801 66.8378C238.73 66.7178 238.688 66.5826 238.68 66.4433C238.554 65.5127 238.622 64.5663 238.88 63.6633C239.115 62.8639 239.451 62.0977 239.88 61.3833C240.3 60.6976 240.782 60.0517 241.32 59.4533C241.85 58.8533 242.32 58.2933 242.78 57.7533C243.19 57.271 243.546 56.7444 243.84 56.1833C244.1 55.7003 244.195 55.1453 244.11 54.6033C244.034 54.1262 243.845 53.6744 243.558 53.2861C243.271 52.8979 242.894 52.5847 242.46 52.3733C241.385 51.854 240.168 51.7062 239 51.9533C237.942 52.1079 236.958 52.5859 236.183 53.3218C235.408 54.0576 234.879 55.0152 234.67 56.0633C234.611 56.3154 234.51 56.5555 234.37 56.7733C234.191 56.9631 233.949 57.0806 233.69 57.1033L230.53 57.6133C230.308 57.6558 230.078 57.6091 229.89 57.4833C229.793 57.4171 229.712 57.3311 229.652 57.2311C229.592 57.1311 229.553 57.0193 229.54 56.9033C229.446 55.911 229.6 54.9109 229.99 53.9933C230.385 52.9256 230.968 51.9368 231.71 51.0733C232.523 50.1277 233.482 49.3176 234.55 48.6733C235.702 47.9745 236.979 47.5058 238.31 47.2933ZM243.47 69.1433C243.607 69.1214 243.748 69.127 243.884 69.1596C244.019 69.1922 244.147 69.2512 244.26 69.3333C244.378 69.4108 244.478 69.5123 244.554 69.6312C244.629 69.7501 244.679 69.8838 244.7 70.0233L245.26 73.4533C245.303 73.7315 245.235 74.0156 245.07 74.244C244.906 74.4724 244.657 74.6266 244.38 74.6733L241.03 75.2233C240.752 75.2663 240.468 75.198 240.24 75.0333C240.124 74.9548 240.025 74.8528 239.951 74.734C239.877 74.6151 239.829 74.482 239.81 74.3433L239.25 70.9133C239.224 70.7756 239.228 70.6342 239.261 70.4981C239.294 70.362 239.355 70.2343 239.44 70.1233C239.518 70.0073 239.62 69.9091 239.739 69.835C239.858 69.7609 239.991 69.7126 240.13 69.6933L243.47 69.1433Z" fill="black"/>
<g opacity="0.2">
<path d="M238.31 47.2933C239.514 47.1001 240.739 47.0766 241.95 47.2233C243.106 47.3608 244.23 47.6992 245.27 48.2233C246.26 48.7371 247.132 49.4524 247.83 50.3233C248.457 51.1756 248.898 52.1499 249.126 53.1834C249.353 54.2168 249.361 55.2865 249.15 56.3233C248.959 57.1204 248.653 57.8853 248.24 58.5933C247.842 59.282 247.38 59.9315 246.86 60.5333C246.35 61.1333 245.86 61.7033 245.41 62.2533C244.969 62.7657 244.578 63.3181 244.24 63.9033C243.923 64.4162 243.763 65.0106 243.78 65.6133C243.771 65.895 243.692 66.17 243.55 66.4133C243.477 66.5254 243.382 66.6209 243.27 66.6933C243.158 66.7657 243.032 66.8134 242.9 66.8333L239.9 67.3133C239.76 67.3387 239.616 67.3359 239.477 67.305C239.337 67.2741 239.206 67.2157 239.09 67.1333C238.972 67.059 238.873 66.9577 238.801 66.8378C238.73 66.7178 238.688 66.5826 238.68 66.4433C238.554 65.5127 238.622 64.5663 238.88 63.6633C239.115 62.8639 239.451 62.0977 239.88 61.3833C240.3 60.6976 240.782 60.0517 241.32 59.4533C241.85 58.8533 242.32 58.2933 242.78 57.7533C243.19 57.271 243.546 56.7444 243.84 56.1833C244.1 55.7003 244.195 55.1453 244.11 54.6033C244.034 54.1262 243.845 53.6744 243.558 53.2861C243.271 52.8979 242.894 52.5847 242.46 52.3733C241.385 51.854 240.168 51.7062 239 51.9533C237.942 52.1079 236.958 52.5859 236.183 53.3218C235.408 54.0576 234.879 55.0152 234.67 56.0633C234.611 56.3154 234.51 56.5555 234.37 56.7733C234.191 56.9631 233.949 57.0806 233.69 57.1033L230.53 57.6133C230.308 57.6558 230.078 57.6091 229.89 57.4833C229.793 57.4171 229.712 57.3311 229.652 57.2311C229.592 57.1311 229.553 57.0193 229.54 56.9033C229.446 55.911 229.6 54.9109 229.99 53.9933C230.385 52.9256 230.968 51.9368 231.71 51.0733C232.523 50.1277 233.482 49.3176 234.55 48.6733C235.702 47.9745 236.979 47.5058 238.31 47.2933ZM243.47 69.1433C243.607 69.1214 243.748 69.127 243.884 69.1596C244.019 69.1922 244.147 69.2512 244.26 69.3333C244.378 69.4108 244.478 69.5123 244.554 69.6312C244.629 69.7501 244.679 69.8838 244.7 70.0233L245.26 73.4533C245.303 73.7315 245.235 74.0156 245.07 74.244C244.906 74.4724 244.657 74.6266 244.38 74.6733L241.03 75.2233C240.752 75.2663 240.468 75.198 240.24 75.0333C240.124 74.9548 240.025 74.8528 239.951 74.734C239.877 74.6151 239.829 74.482 239.81 74.3433L239.25 70.9133C239.224 70.7756 239.228 70.6342 239.261 70.4981C239.294 70.362 239.355 70.2343 239.44 70.1233C239.518 70.0073 239.62 69.9091 239.739 69.835C239.858 69.7609 239.991 69.7126 240.13 69.6933L243.47 69.1433Z" fill="black"/>
</g>
<path d="M266.59 52.6833C266.726 52.7781 266.842 52.8997 266.929 53.0407C267.017 53.1817 267.075 53.3391 267.1 53.5033C267.132 53.666 267.129 53.8335 267.093 53.9953C267.057 54.1571 266.988 54.3096 266.89 54.4433L264.51 57.7933C264.415 57.9296 264.293 58.0452 264.152 58.1329C264.011 58.2206 263.854 58.2786 263.69 58.3033C263.527 58.3351 263.36 58.3329 263.198 58.2967C263.036 58.2606 262.884 58.1913 262.75 58.0933L259.47 55.7633C259.333 55.6698 259.218 55.5483 259.132 55.407C259.046 55.2656 258.99 55.1076 258.97 54.9433C258.938 54.7806 258.94 54.6131 258.976 54.4513C259.013 54.2895 259.082 54.137 259.18 54.0033L261.59 50.6533C261.785 50.3818 262.079 50.198 262.408 50.1418C262.738 50.0857 263.076 50.1617 263.35 50.3533L266.59 52.6833ZM280.43 29.9933C281.626 30.8315 282.691 31.8425 283.59 32.9933C284.467 34.0638 285.144 35.2832 285.59 36.5933C286.005 37.8488 286.145 39.1789 286 40.4933C285.83 41.8949 285.3 43.2285 284.46 44.3633C283.836 45.2809 283.033 46.0631 282.1 46.6633C281.278 47.1783 280.385 47.5691 279.45 47.8233C278.538 48.0615 277.608 48.2221 276.67 48.3033L274.01 48.5433C273.212 48.607 272.422 48.7443 271.65 48.9533C270.937 49.1151 270.285 49.4757 269.77 49.9933C269.537 50.2298 269.243 50.3961 268.92 50.4733C268.766 50.5173 268.605 50.524 268.448 50.4926C268.291 50.4613 268.145 50.393 268.02 50.2933L265.12 48.2333C264.843 48.0353 264.653 47.738 264.59 47.4033C264.552 47.2411 264.554 47.0724 264.594 46.9108C264.634 46.7493 264.711 46.5994 264.82 46.4733C265.497 45.5942 266.344 44.8598 267.31 44.3133C268.18 43.8384 269.107 43.4787 270.07 43.2433C270.999 43.0179 271.946 42.874 272.9 42.8133C273.84 42.7533 274.72 42.6833 275.54 42.6033C276.29 42.537 277.031 42.3895 277.75 42.1633C278.378 41.954 278.92 41.5426 279.29 40.9933C279.624 40.5295 279.841 39.9917 279.923 39.4259C280.005 38.8601 279.949 38.2828 279.76 37.7433C279.287 36.4105 278.382 35.2737 277.19 34.5133C275.03 32.9733 272.673 32.9233 270.12 34.3633C269.863 34.5269 269.578 34.6421 269.28 34.7033C269.124 34.7141 268.968 34.694 268.821 34.6443C268.673 34.5945 268.537 34.516 268.42 34.4133L265.34 32.2233C265.228 32.1492 265.133 32.0536 265.059 31.9419C264.985 31.8303 264.934 31.7049 264.91 31.5733C264.886 31.4372 264.89 31.2976 264.923 31.1634C264.956 31.0291 265.016 30.9031 265.1 30.7933C265.827 29.8622 266.771 29.1239 267.85 28.6433C269.076 28.088 270.388 27.7496 271.73 27.6433C273.206 27.5199 274.692 27.6382 276.13 27.9933C277.682 28.3673 279.144 29.0472 280.43 29.9933Z" fill="black"/>
<g opacity="0.6">
<path d="M266.59 52.6833C266.726 52.7781 266.842 52.8997 266.929 53.0407C267.017 53.1817 267.075 53.3391 267.1 53.5033C267.132 53.666 267.129 53.8335 267.093 53.9953C267.057 54.1571 266.988 54.3096 266.89 54.4433L264.51 57.7933C264.415 57.9296 264.293 58.0452 264.152 58.1329C264.011 58.2206 263.854 58.2786 263.69 58.3033C263.527 58.3351 263.36 58.3329 263.198 58.2967C263.036 58.2606 262.884 58.1913 262.75 58.0933L259.47 55.7633C259.333 55.6698 259.218 55.5483 259.132 55.407C259.046 55.2656 258.99 55.1076 258.97 54.9433C258.938 54.7806 258.94 54.6131 258.976 54.4513C259.013 54.2895 259.082 54.137 259.18 54.0033L261.59 50.6533C261.785 50.3818 262.079 50.198 262.408 50.1418C262.738 50.0857 263.076 50.1617 263.35 50.3533L266.59 52.6833ZM280.43 29.9933C281.626 30.8315 282.691 31.8425 283.59 32.9933C284.467 34.0638 285.144 35.2832 285.59 36.5933C286.005 37.8488 286.145 39.1789 286 40.4933C285.83 41.8949 285.3 43.2285 284.46 44.3633C283.836 45.2809 283.033 46.0631 282.1 46.6633C281.278 47.1783 280.385 47.5691 279.45 47.8233C278.538 48.0615 277.608 48.2221 276.67 48.3033L274.01 48.5433C273.212 48.607 272.422 48.7443 271.65 48.9533C270.937 49.1151 270.285 49.4757 269.77 49.9933C269.537 50.2298 269.243 50.3961 268.92 50.4733C268.766 50.5173 268.605 50.524 268.448 50.4926C268.291 50.4613 268.145 50.393 268.02 50.2933L265.12 48.2333C264.843 48.0353 264.653 47.738 264.59 47.4033C264.552 47.2411 264.554 47.0724 264.594 46.9108C264.634 46.7493 264.711 46.5994 264.82 46.4733C265.497 45.5942 266.344 44.8598 267.31 44.3133C268.18 43.8384 269.107 43.4787 270.07 43.2433C270.999 43.0179 271.946 42.874 272.9 42.8133C273.84 42.7533 274.72 42.6833 275.54 42.6033C276.29 42.537 277.031 42.3895 277.75 42.1633C278.378 41.954 278.92 41.5426 279.29 40.9933C279.624 40.5295 279.841 39.9917 279.923 39.4259C280.005 38.8601 279.949 38.2828 279.76 37.7433C279.287 36.4105 278.382 35.2737 277.19 34.5133C275.03 32.9733 272.673 32.9233 270.12 34.3633C269.863 34.5269 269.578 34.6421 269.28 34.7033C269.124 34.7141 268.968 34.694 268.821 34.6443C268.673 34.5945 268.537 34.516 268.42 34.4133L265.34 32.2233C265.228 32.1492 265.133 32.0536 265.059 31.9419C264.985 31.8303 264.934 31.7049 264.91 31.5733C264.886 31.4372 264.89 31.2976 264.923 31.1634C264.956 31.0291 265.016 30.9031 265.1 30.7933C265.827 29.8622 266.771 29.1239 267.85 28.6433C269.076 28.088 270.388 27.7496 271.73 27.6433C273.206 27.5199 274.692 27.6382 276.13 27.9933C277.682 28.3673 279.144 29.0472 280.43 29.9933Z" fill="black"/>
</g>
<path d="M192.12 141.203H156.59V55.1233C156.59 47.6468 159.56 40.4766 164.847 35.1899C170.133 29.9033 177.304 26.9333 184.78 26.9333H188.06C195.537 26.9333 202.707 29.9033 207.993 35.1899C213.28 40.4766 216.25 47.6468 216.25 55.1233V117.123C216.237 123.514 213.689 129.639 209.165 134.153C204.641 138.668 198.511 141.203 192.12 141.203Z" fill="#263238"/>
<path d="M153.13 348.433C152.502 352 152.167 355.612 152.13 359.233C152 365.793 150.8 368.123 150.64 373.503C150.45 379.653 151.52 381.953 154.01 385.413C156.5 388.873 163.01 392.003 165.83 386.163C168.65 380.323 168.24 376.493 167.35 370.463C166.44 364.223 166.35 360.773 165.79 356.023C165.33 351.833 164.79 348.643 164.79 348.643L153.13 348.433Z" fill="#263238"/>
<path d="M171.75 304.863L150.15 304.473C150.47 318.893 152.76 334.903 153.15 348.473C153.23 351.023 153.09 368.263 154.05 373.473C155.5 381.353 164.84 380.283 165.34 375.573C165.84 370.863 164.74 350.733 164.77 348.653C164.68 339.973 168.77 325.323 170.88 309.743C170.97 308.993 171.65 305.613 171.75 304.863Z" fill="#FFA8A7"/>
<path d="M199.5 337.213C199.5 337.213 198.65 336.753 198.5 337.663C198.29 338.743 197.97 340.973 197.5 342.753C196.88 345.223 196.36 349.293 196.73 351.313C197.1 353.333 201.8 355.913 204.85 356.853C208.609 358.013 212.037 360.053 214.85 362.803C217.85 365.643 224.38 368.323 228.85 368.293C234.1 368.293 237.76 366.543 239.49 363.733C241.22 360.923 237.91 360.583 231.91 356.733L227.26 353.733C217.75 347.523 214.26 344.203 211.59 337.993L199.5 337.213Z" fill="#263238"/>
<path d="M211.67 333.363C211.51 328.903 214.59 290.993 214.59 290.993L194.08 300.343C198.47 326.563 199.41 332.753 199.48 337.043C199.39 337.403 199.353 337.773 199.37 338.143C199.37 343.233 205.14 345.983 209.62 349.383C213.429 352.367 217.487 355.016 221.75 357.303C225.01 358.933 231.63 359.083 232.45 356.993C226.99 352.823 219.05 346.583 214.71 341.823C212.59 339.583 211.83 337.833 211.67 333.363Z" fill="#FFA8A7"/>
<path d="M159 164.153C151.12 181.443 151.12 194.823 152.43 216.893C153.59 237.143 155.52 254.993 155.52 254.993C155.22 258.583 150.23 265.593 149.58 281.473C148.98 296.313 150.58 315.183 150.58 315.183C150.58 315.183 161.79 321.393 170.08 315.123C170.08 315.123 178.08 276.933 180.42 258.353C182.42 242.143 186.02 221.433 186.02 221.433L193.59 258.243C191.956 263.466 190.772 268.819 190.05 274.243C188.99 285.173 195.11 306.633 195.11 306.633C195.11 306.633 206.69 310.083 213.76 303.813C213.76 303.813 216.4 268.923 217.39 255.763C218.71 238.133 215.93 190.413 213.76 165.143L159 164.153Z" fill="black"/>
<path d="M186.04 221.403L189.15 193.663C189.15 193.663 203.09 191.803 209.41 185.863C207.601 188.693 205.191 191.09 202.352 192.884C199.512 194.678 196.313 195.825 192.98 196.243L188.48 222.053L193.59 258.243L186.04 221.403Z" fill="#263238"/>
<path d="M242.49 157.333C243.066 152.271 243.32 147.178 243.25 142.083C242.94 137.683 242.15 136.963 236 129.173C227.7 118.643 220.61 109.173 213.11 99.7633C207.75 93.0433 202.11 92.0133 196.63 92.3133C192.79 92.5233 200.29 110.993 204.06 121.923L225.59 145.103C226.257 146.018 226.563 147.147 226.45 148.273L225.15 167.993L231.6 176.633C231.6 176.633 241.37 168.213 242.49 157.333Z" fill="#FFA8A7"/>
<path d="M175.87 92.9133C171.7 93.2033 164.12 93.9133 164.12 93.9133C159.75 96.3533 158.64 98.3633 157.83 104.163C157.48 106.643 159.5 113.233 161.23 122.603L164.51 139.973L164.15 148.593C162.45 153.853 158.6 160.383 155.2 170.013C171.9 179.333 185.9 179.683 198.6 178.013C208.28 176.763 213.41 174.423 215.12 172.103C214.76 162.593 214.12 156.713 213.92 146.773C213.85 142.603 214.1 138.383 214.27 133.583C220.76 128.243 220.84 119.363 217.27 113.583C209.04 100.253 201.03 91.8633 195.73 92.2933L175.87 92.9133Z" fill="#27DEBF"/>
<path opacity="0.6" d="M175.87 92.9133C171.7 93.2033 164.12 93.9133 164.12 93.9133C159.75 96.3533 158.64 98.3633 157.83 104.163C157.48 106.643 159.5 113.233 161.23 122.603L164.51 139.973L164.15 148.593C162.45 153.853 158.6 160.383 155.2 170.013C171.9 179.333 185.9 179.683 198.6 178.013C208.28 176.763 213.41 174.423 215.12 172.103C214.76 162.593 214.12 156.713 213.92 146.773C213.85 142.603 214.1 138.383 214.27 133.583C220.76 128.243 221.07 119.793 217.5 114.013C209.27 100.683 201.03 91.8633 195.73 92.2933L175.87 92.9133Z" fill="black"/>
<path opacity="0.1" d="M201.34 133.713C201.34 133.713 193.72 139.633 185.01 136.543C182.564 135.773 180.359 134.384 178.607 132.511C176.855 130.638 175.616 128.345 175.01 125.853C175.01 125.853 174.09 135.803 185.06 139.193C195.69 142.463 201.34 133.713 201.34 133.713Z" fill="black"/>
<path d="M211.68 65.6033C211.35 80.0433 206.68 83.6033 204.32 84.6033C201.96 85.6033 197.44 85.0033 193.04 84.2733V92.9933C193.04 92.9933 198.12 98.3133 197.74 102.283C197.36 106.253 189.74 106.703 184.06 102.813C180.926 100.66 178.091 98.1015 175.63 95.2033C175.158 94.6441 174.899 93.9354 174.9 93.2033V72.8033C174.9 72.8033 172.49 75.3533 168.23 72.4333C167.311 71.8467 166.524 71.0752 165.919 70.168C165.314 69.2607 164.905 68.2376 164.716 67.1635C164.528 66.0894 164.566 64.988 164.826 63.9292C165.087 62.8704 165.565 61.8773 166.23 61.0133C168.09 58.8233 172.81 58.6733 175.07 62.0133C176.35 64.5033 176.52 67.0133 177.95 66.0133C181.75 63.2733 179.71 57.0133 184.3 54.0133C185.806 53.2271 187.371 52.5585 188.98 52.0133C197.17 49.1833 204.27 46.8033 205.98 41.2033C209.2 43.0433 212.08 48.5733 211.68 65.6033Z" fill="#FFA8A7"/>
<path d="M195.53 78.5033C196.579 78.5033 197.43 77.6526 197.43 76.6033C197.43 75.5539 196.579 74.7033 195.53 74.7033C194.481 74.7033 193.63 75.5539 193.63 76.6033C193.63 77.6526 194.481 78.5033 195.53 78.5033Z" fill="#B16668"/>
<path d="M194.27 63.4133C194.27 63.8045 194.154 64.1869 193.939 64.5133C193.723 64.8397 193.416 65.0957 193.057 65.2495C192.697 65.4034 192.3 65.4484 191.915 65.379C191.53 65.3096 191.174 65.1288 190.891 64.859C190.607 64.5893 190.409 64.2423 190.321 63.8612C190.233 63.48 190.259 63.0814 190.395 62.7147C190.531 62.3479 190.772 62.0292 191.087 61.7979C191.403 61.5665 191.779 61.4328 192.17 61.4133C192.441 61.3997 192.712 61.4414 192.966 61.5358C193.22 61.6302 193.453 61.7754 193.649 61.9625C193.846 62.1496 194.002 62.3747 194.109 62.6241C194.216 62.8735 194.27 63.142 194.27 63.4133Z" fill="#263238"/>
<path d="M209.42 63.6133C209.441 63.8579 209.412 64.1042 209.336 64.3378C209.261 64.5714 209.139 64.7875 208.979 64.9737C208.819 65.1598 208.624 65.3123 208.404 65.4221C208.184 65.5319 207.945 65.5969 207.7 65.6133C207.453 65.6361 207.204 65.6061 206.969 65.5252C206.734 65.4444 206.52 65.3145 206.339 65.1443C206.158 64.974 206.016 64.7673 205.921 64.5378C205.827 64.3083 205.782 64.0614 205.79 63.8133C205.764 63.5668 205.789 63.3177 205.863 63.0811C205.937 62.8446 206.058 62.6256 206.22 62.4376C206.381 62.2497 206.58 62.0967 206.802 61.988C207.025 61.8794 207.268 61.8173 207.515 61.8057C207.763 61.7941 208.01 61.8332 208.242 61.9206C208.474 62.008 208.685 62.1418 208.864 62.3138C209.042 62.4859 209.184 62.6925 209.279 62.9211C209.375 63.1497 209.423 63.3955 209.42 63.6433V63.6133Z" fill="#263238"/>
<path d="M191.7 68.5533C189.975 68.5533 188.321 67.8688 187.1 66.6501C185.88 65.4314 185.193 63.7781 185.19 62.0533C185.19 57.6333 189.75 57.6333 191.7 57.6333C193.65 57.6333 198.2 57.6333 198.2 62.0533C198.198 63.7764 197.512 65.4281 196.293 66.6465C195.075 67.865 193.423 68.5506 191.7 68.5533ZM191.7 58.6533C187.7 58.6533 186.22 59.6533 186.22 62.0533C186.22 63.512 186.8 64.9109 187.831 65.9424C188.863 66.9738 190.261 67.5533 191.72 67.5533C193.179 67.5533 194.578 66.9738 195.609 65.9424C196.641 64.9109 197.22 63.512 197.22 62.0533C197.18 59.6033 195.64 58.6533 191.7 58.6533Z" fill="#455A64"/>
<path d="M208.21 68.5533C206.485 68.5533 204.831 67.8688 203.61 66.6501C202.39 65.4314 201.703 63.7781 201.7 62.0533C201.7 57.6333 206.26 57.6333 208.21 57.6333C210.16 57.6333 214.71 57.6333 214.71 62.0533C214.708 63.7764 214.022 65.4281 212.803 66.6465C211.585 67.865 209.933 68.5506 208.21 68.5533ZM208.21 58.6533C204.27 58.6533 202.73 59.6533 202.73 62.0533C202.73 63.512 203.31 64.9109 204.341 65.9424C205.373 66.9738 206.772 67.5533 208.23 67.5533C209.689 67.5533 211.088 66.9738 212.119 65.9424C213.151 64.9109 213.73 63.512 213.73 62.0533C213.69 59.6033 212.15 58.6533 208.21 58.6533Z" fill="#455A64"/>
<path d="M199.21 59.9533L199.53 72.1033L205.92 70.1233L199.21 59.9533Z" fill="#F28F8F"/>
<path d="M193.03 84.3033C188.39 83.6933 178.84 80.9533 177.35 77.1733C177.95 79.0836 179.119 80.7653 180.7 81.9933C183.55 84.4433 193.03 87.1933 193.03 87.1933V84.3033Z" fill="#F28F8F"/>
<path d="M193.26 54.0533L189.02 56.6433C188.686 56.0612 188.589 55.3728 188.749 54.721C188.909 54.0692 189.314 53.5042 189.88 53.1433C190.16 52.9735 190.471 52.8623 190.795 52.8162C191.119 52.7702 191.449 52.7903 191.765 52.8753C192.081 52.9604 192.376 53.1086 192.633 53.3111C192.89 53.5136 193.103 53.766 193.26 54.0533Z" fill="#263238"/>
<path d="M210.51 56.9333L205.79 55.2833C205.881 54.9705 206.036 54.6796 206.244 54.4287C206.452 54.1777 206.709 53.9719 206.999 53.824C207.289 53.676 207.607 53.5889 207.932 53.5682C208.257 53.5474 208.583 53.5934 208.89 53.7033C209.523 53.9308 210.044 54.393 210.346 54.9943C210.648 55.5956 210.706 56.2899 210.51 56.9333Z" fill="#263238"/>
<path d="M197.69 62.5733C197.622 62.5733 197.555 62.5598 197.493 62.5335C197.43 62.5073 197.373 62.4688 197.326 62.4204C197.278 62.372 197.241 62.3146 197.216 62.2515C197.191 62.1885 197.179 62.1211 197.18 62.0533C197.18 61.2233 198.82 60.6833 200.3 60.6833C201.78 60.6833 202.73 61.2233 202.73 62.0533C202.699 62.1619 202.633 62.2575 202.543 62.3256C202.453 62.3936 202.343 62.4305 202.23 62.4305C202.117 62.4305 202.007 62.3936 201.917 62.3256C201.827 62.2575 201.761 62.1619 201.73 62.0533C201.73 61.9533 201.22 61.7033 200.33 61.7033C199.613 61.688 198.901 61.8102 198.23 62.0633C198.23 62.1329 198.216 62.2017 198.189 62.2656C198.161 62.3296 198.121 62.3872 198.07 62.4349C198.02 62.4827 197.96 62.5196 197.894 62.5434C197.829 62.5672 197.759 62.5774 197.69 62.5733Z" fill="#455A64"/>
<path d="M185.72 62.1333H185.66L174.23 61.1333C173.696 60.6039 173.06 60.1888 172.36 59.9133L185.78 61.1533C185.915 61.1708 186.037 61.2402 186.121 61.3467C186.205 61.4532 186.244 61.5883 186.23 61.7233C186.207 61.8406 186.143 61.9459 186.05 62.0209C185.956 62.0958 185.84 62.1356 185.72 62.1333Z" fill="#455A64"/>
<path d="M138.79 74.0533C142.53 69.0533 145.08 65.2833 148.49 61.0533C150.43 58.6233 151.67 56.8833 153.49 54.3933C154.77 52.6733 155.49 51.2233 156.95 50.6933C158.527 50.0469 159.949 49.072 161.12 47.8333C161.84 47.0369 162.508 46.1952 163.12 45.3133C165.263 42.4283 167.809 39.8656 170.68 37.7033C173.68 35.4433 177.03 33.7033 180.12 31.5533C181.96 30.2633 183.93 28.1233 181.69 26.1233C181.003 25.5447 180.181 25.1491 179.3 24.9733C173.85 23.7933 169.11 25.6633 163.78 27.0233C161.465 27.6011 159.201 28.367 157.01 29.3133C155.933 29.7394 154.922 30.3187 154.01 31.0333C152.735 32.319 151.69 33.814 150.92 35.4533C148.59 39.6133 143.59 43.3333 140.09 46.6233C136 50.4733 132.34 54.0033 127.67 58.2433C123.47 62.0733 119.36 65.5933 115.51 69.7733C112.32 73.2233 113.51 75.9233 113.93 76.8633C116.53 82.2033 119.44 84.1233 122.93 87.4333C128.93 93.1633 149.68 109.653 156.55 115.103C158.026 116.263 159.185 117.776 159.92 119.503L161.24 122.553C169.08 123.993 174.31 112.223 167.82 98.0533C166.745 95.7619 165.104 93.7828 163.05 92.3033C154.85 86.3333 138.79 74.0533 138.79 74.0533Z" fill="#FFA8A7"/>
<path d="M138.79 74.0533C136.295 77.1231 132.969 79.4106 129.21 80.6433C129.21 80.6433 134.21 81.9233 141.06 75.7733L138.79 74.0533Z" fill="#F28F8F"/>
<path d="M240.45 146.903L239.17 145.803C238.979 145.677 238.761 145.598 238.533 145.572C238.306 145.546 238.075 145.574 237.86 145.653L223.97 149.433C223.271 149.667 222.63 150.048 222.091 150.552C221.553 151.056 221.129 151.671 220.85 152.353L210.85 181.183C210.73 181.418 210.683 181.684 210.715 181.946C210.747 182.208 210.857 182.454 211.03 182.653L212.35 183.793C212.542 183.926 212.764 184.009 212.995 184.037C213.227 184.065 213.462 184.036 213.68 183.953L227.59 180.173C228.29 179.94 228.931 179.558 229.469 179.054C230.008 178.55 230.431 177.936 230.71 177.253C232.71 171.583 238.71 154.093 240.71 148.423C240.95 147.713 240.83 147.173 240.45 146.903Z" fill="#455A64"/>
<path d="M212.16 182.293L222.16 153.463C222.438 152.781 222.861 152.167 223.4 151.665C223.939 151.162 224.58 150.783 225.28 150.553L239.16 146.773C240.45 146.423 241.16 147.163 240.7 148.423C238.7 154.093 232.7 171.583 230.7 177.253C230.421 177.936 229.998 178.55 229.459 179.054C228.921 179.558 228.28 179.94 227.58 180.173L213.7 183.993C212.42 184.293 211.73 183.553 212.16 182.293Z" fill="black"/>
<path d="M223.77 151.353C223.048 151.9 222.488 152.633 222.15 153.473L212.15 182.293C212.036 182.522 211.988 182.779 212.013 183.033C212.037 183.288 212.134 183.531 212.29 183.733L211.05 182.673C210.872 182.477 210.759 182.231 210.725 181.968C210.691 181.705 210.738 181.438 210.86 181.203L220.86 152.373C221.176 151.589 221.69 150.901 222.35 150.373L223.77 151.353Z" fill="#37474F"/>
<path d="M236.64 160.043C235.64 162.973 232.17 164.933 226.43 166.293C220.69 167.653 217.52 173.743 218.43 175.593C219.34 177.443 228.62 179.173 232.33 178.643C236.04 178.113 239.76 172.753 240.89 171.093C242.02 169.433 243.32 157.853 242.13 156.263C240.94 154.673 238.43 154.923 238.43 154.923L236.64 160.043Z" fill="#F28F8F"/>
</svg>
