<svg width="1135" height="842" viewBox="0 0 1135 842" fill="none" xmlns="http://www.w3.org/2000/svg">
<path d="M125.271 126.174C85.3166 119.585 44.6505 142.342 27.536 177.853C9.80259 214.663 24.1316 256.882 56.0085 281.423C71.5424 293.82 91.054 300.473 111.114 300.213C131.174 299.953 150.498 292.797 165.69 280.002C195.74 255.251 209.358 212.819 192.089 177.248C174.324 140.65 123.693 113.48 83.1812 129.891C82.2967 130.189 81.5619 130.805 81.1258 131.614C80.6897 132.422 80.5852 133.363 80.8334 134.244C81.0816 135.125 81.6639 135.881 82.4621 136.358C83.2604 136.835 84.2146 136.997 85.1309 136.812C119.669 130.133 155.198 140.62 176.738 168.937C198.712 197.799 194.441 236.332 171.322 263.289C146.564 292.151 106.331 301.732 72.1017 282.843C39.9463 265.103 19.2109 227.295 29.919 191.513C41.5247 152.738 83.7692 125.962 124.621 130.918C127.314 131.251 127.964 126.657 125.271 126.204V126.174Z" fill="#CD6E95"/>
<path d="M979.849 22.4829C949.87 85.7067 919.892 148.91 889.913 212.094C885.601 221.221 881.278 230.348 876.946 239.475C876.079 241.258 876.946 243.948 879.452 243.766L1099.9 228.232L1131.25 225.996C1133.23 225.845 1135.18 223.578 1133.76 221.704L1003.4 47.3856C997.211 39.1451 991.021 30.8845 984.832 22.6038C982.634 19.5816 977.559 22.6038 979.787 25.6259L1110.11 199.915L1128.68 224.696C1129.52 223.276 1130.35 221.825 1131.22 220.405L910.772 236.09L879.421 238.296L881.959 242.618C911.917 179.394 941.834 116.19 971.71 53.0068L984.708 25.6259C986.472 22.0598 981.427 19.1585 979.849 22.4829Z" fill="black"/>
<path d="M647.061 88.1247L595.285 138.655H599.432L547.655 88.1247V92.2348L599.432 41.7041H595.285L647.061 92.2348C647.607 92.7679 648.347 93.0673 649.119 93.0673C649.891 93.0673 650.632 92.7679 651.177 92.2348C651.723 91.7018 652.03 90.9789 652.03 90.2251C652.03 89.4713 651.723 88.7484 651.177 88.2153C633.949 71.3516 616.701 54.5081 599.432 37.6846C598.863 37.1834 598.124 36.906 597.358 36.906C596.592 36.906 595.853 37.1834 595.285 37.6846L543.539 88.2153C543.034 88.7688 542.755 89.4841 542.755 90.2251C542.755 90.9662 543.034 91.6814 543.539 92.2348L595.285 142.766C595.853 143.267 596.592 143.544 597.358 143.544C598.124 143.544 598.863 143.267 599.432 142.766C616.66 125.942 633.908 109.099 651.177 92.2348C651.735 91.7018 652.054 90.9741 652.063 90.2118C652.071 89.4495 651.77 88.7151 651.224 88.17C650.954 87.9001 650.631 87.6849 650.276 87.5365C649.92 87.3882 649.539 87.3097 649.152 87.3055C648.372 87.297 647.619 87.5917 647.061 88.1247Z" fill="black"/>
<path d="M107.754 47.8692H312.014C312.014 47.8692 304.06 35.5387 283.448 34.8738L262.837 34.2392C262.837 34.2392 268.81 18.0101 254.171 11.5124C239.533 5.01476 197.659 29.6455 197.659 29.6455C197.659 29.6455 201.652 23.7824 188.375 22.4829C175.098 21.1834 151.237 38.0773 151.237 38.0773C151.237 38.0773 104.443 40.072 107.754 47.8692Z" fill="white"/>
<path d="M352.835 169.844H557.094C557.094 169.844 549.109 157.514 528.498 156.849L507.886 156.214C507.886 156.214 513.859 139.985 499.251 133.487C484.644 126.99 442.74 151.62 442.74 151.62C442.74 151.62 446.732 145.788 433.455 144.488C420.178 143.188 396.317 160.082 396.317 160.082C396.317 160.082 349.492 162.047 352.835 169.844Z" fill="white"/>
<path d="M1036.89 255.22C1035.32 254.973 1033.72 255.049 1032.18 255.443C1030.65 255.838 1029.21 256.542 1027.98 257.511C1026.74 258.479 1025.72 259.691 1024.99 261.067C1024.26 262.443 1023.83 263.954 1023.74 265.501C1023.64 267.048 1023.88 268.598 1024.43 270.05C1024.99 271.502 1025.85 272.824 1026.96 273.931C1028.07 275.039 1029.41 275.906 1030.88 276.478C1032.36 277.05 1033.94 277.314 1035.53 277.252C1037.13 277.187 1038.7 276.787 1040.13 276.081C1041.56 275.374 1042.82 274.376 1043.82 273.154C1044.83 271.932 1045.55 270.514 1045.95 268.996C1046.34 267.479 1046.4 265.896 1046.12 264.354C1045.83 262.812 1045.22 261.348 1044.3 260.059C1043.39 258.77 1042.21 257.686 1040.83 256.881C1039.46 256.076 1037.92 255.568 1036.33 255.391C1034.73 255.214 1033.12 255.372 1031.59 255.855" fill="url(#paint0_linear_35_132)"/>
<path d="M309.631 106.711C307.872 106.406 306.066 106.467 304.333 106.892C302.6 107.317 300.979 108.095 299.576 109.176C298.173 110.256 297.02 111.615 296.193 113.162C295.366 114.708 294.884 116.409 294.779 118.151C294.673 119.892 294.946 121.636 295.581 123.268C296.215 124.899 297.195 126.381 298.458 127.615C299.721 128.85 301.237 129.809 302.906 130.431C304.576 131.052 306.361 131.322 308.145 131.221C309.78 130.977 311.348 130.416 312.758 129.571C314.167 128.725 315.388 127.613 316.349 126.299C317.311 124.984 317.993 123.496 318.355 121.92C318.718 120.344 318.753 118.713 318.46 117.124C318.166 115.535 317.549 114.019 316.646 112.666C315.742 111.314 314.57 110.152 313.199 109.248C311.828 108.345 310.285 107.72 308.663 107.409C307.04 107.097 305.37 107.107 303.751 107.436" fill="#EAC689"/>
<path d="M783.69 16.5873L741.243 0.434814L724.702 41.8852L767.149 58.0376L783.69 16.5873Z" fill="#CD6E95"/>
<path d="M839.251 118.92C854.291 118.92 854.322 96.0425 839.251 96.0425C824.179 96.0425 824.148 118.92 839.251 118.92Z" fill="#1F2F6E"/>
<path d="M159.624 635.107C171.415 621.628 191.965 587.478 198.062 568.076C199.192 563.91 199.538 559.578 199.083 555.292C199.17 552.833 198.423 550.415 196.956 548.414C195.489 546.413 193.386 544.943 190.975 544.231C182.309 542.599 176.584 554.083 167.856 555.443C159.129 556.803 152.227 546.92 152.691 538.277C153.156 529.633 158.138 521.897 161.388 513.827C164.638 505.758 165.999 497.054 162.409 489.469C158.819 481.883 148.699 476.987 141.241 481.067C136.66 483.576 133.999 488.744 129.263 490.919C121.031 494.667 111.252 486.991 109.457 478.317C107.662 469.643 111.159 460.849 114.253 452.508C117.348 444.166 120.041 434.888 116.729 426.638C113.418 418.387 101.255 413.34 95.0654 419.596C89.1543 425.399 90.8565 437.246 83.1504 440.389C74.6705 443.834 68.326 432.712 65.1693 424.281C60.0868 410.654 52.0172 398.277 41.5247 388.014C34.5923 381.245 24.8745 375.11 15.5281 378.041C3.30346 381.879 1.04418 399.197 7.54334 409.865C14.0425 420.533 25.8648 427.121 36.0159 434.798C41.5633 438.417 45.8748 443.574 48.3953 449.606C50.4688 455.651 48.3952 463.659 42.3603 466.349C35.7373 469.371 28.3097 465.08 21.8415 461.786C15.3733 458.492 6.21254 456.497 1.81787 462.179C-1.86499 466.923 0.641861 473.814 4.07713 478.74C8.70937 485.254 14.7667 490.68 21.8107 494.626C28.8547 498.573 36.709 500.94 44.8053 501.557C50.7783 502.011 56.999 501.557 62.6316 503.522C68.2642 505.486 73.154 511.38 71.3899 516.971C69.1926 523.922 59.2581 524.919 52.2328 522.471C45.2076 520.023 38.5536 515.429 31.126 516.003C18.7467 516.971 12.557 532.897 17.4469 543.928C22.3367 554.959 34.778 561.094 46.8169 563.875C58.8558 566.655 71.5757 566.897 83.2432 570.644C87.9783 572.125 93.1776 574.906 93.8585 579.711C94.756 585.755 87.2974 590.319 80.953 589.896C74.6085 589.473 68.945 586.027 62.7863 584.425C56.6275 582.824 48.7357 583.881 46.0742 589.503C43.4126 595.124 47.0026 600.654 50.6236 605.127C76.9607 637.344 122.331 644.053 159.779 635.107" fill="#118030"/>
<path d="M39.6987 409.563C45.7337 421.198 53.9659 431.987 60.9603 443.139C67.9546 454.291 74.2371 464.748 80.5506 475.718C93.5179 498.203 105.835 521.051 116.977 544.322C128.118 567.592 138.796 592.314 148.328 616.854C157.86 641.394 164.854 667.052 174.417 691.622C174.486 691.797 174.619 691.94 174.789 692.024C174.96 692.109 175.156 692.128 175.341 692.079C175.526 692.031 175.685 691.917 175.789 691.76C175.893 691.603 175.933 691.414 175.903 691.23C170.27 665.753 159.809 640.608 150.339 616.31C140.869 592.012 130.563 568.348 119.391 544.987C108.218 521.625 95.7463 497.599 82.4694 474.691C69.7806 452.81 57.1536 428.361 40.3796 409.14C40.1011 408.807 39.6678 409.14 39.8226 409.563H39.6987Z" fill="#202C43"/>
<path d="M119.081 547.585C97.2066 543.569 75.061 541.114 52.8208 540.241C51.5519 540.241 51.5519 542.145 52.8208 542.206C74.9489 543.294 96.7366 546.014 118.648 549.157C119.7 549.308 120.165 547.797 119.081 547.585Z" fill="#202C43"/>
<path d="M120.752 551.06C122.424 542.689 130.934 536.161 135.422 528.908C139.806 521.843 142.944 514.11 144.706 506.03C144.788 505.742 144.75 505.433 144.599 505.172C144.448 504.911 144.197 504.72 143.902 504.64C143.606 504.56 143.29 504.597 143.023 504.745C142.756 504.892 142.56 505.137 142.478 505.426C139.702 516.143 134.803 526.226 128.056 535.103C124.126 540.09 119.483 544.17 119.236 550.849C119.253 551.017 119.327 551.174 119.447 551.296C119.566 551.417 119.723 551.497 119.894 551.521C120.065 551.545 120.239 551.513 120.389 551.43C120.539 551.346 120.656 551.216 120.721 551.06H120.752Z" fill="#202C43"/>
<path d="M149.72 616.4C157.921 599.989 167.268 584.969 177.048 569.465C177.605 568.619 176.305 567.592 175.624 568.377C163.886 582.604 154.717 598.68 148.513 615.916C148.481 615.994 148.464 616.077 148.464 616.16C148.465 616.244 148.482 616.327 148.515 616.404C148.582 616.56 148.709 616.683 148.869 616.747C149.029 616.811 149.209 616.811 149.368 616.746C149.528 616.68 149.654 616.556 149.72 616.4Z" fill="#202C43"/>
<path d="M148.08 612.864C125.487 606.155 100.048 603.163 76.6818 607.485C76.4805 607.539 76.3059 607.662 76.1901 607.831C76.0743 608.001 76.025 608.206 76.0514 608.408C76.0777 608.61 76.178 608.796 76.3336 608.932C76.4892 609.068 76.6898 609.144 76.8985 609.147C101.255 607.696 123.878 608.21 147.647 614.345C147.848 614.401 148.063 614.377 148.246 614.278C148.429 614.179 148.564 614.013 148.621 613.816C148.679 613.62 148.654 613.409 148.552 613.231C148.451 613.052 148.281 612.92 148.08 612.864Z" fill="#202C43"/>
<path d="M85.0381 476.474C87.6098 465.924 91.7824 455.809 97.4174 446.464C97.5283 446.275 97.5579 446.052 97.4999 445.842C97.4419 445.632 97.3008 445.454 97.1079 445.345C96.9151 445.237 96.686 445.208 96.4713 445.265C96.2565 445.322 96.0737 445.459 95.9629 445.648C89.7438 454.839 85.5492 465.192 83.6454 476.051C83.4906 476.867 84.7596 477.229 84.9452 476.413L85.0381 476.474Z" fill="#202C43"/>
<path d="M84.1714 475.809C72.1943 478.831 60.0007 478.831 47.838 480.221C46.7238 480.221 46.6619 481.944 47.838 481.944C60.2312 481.896 72.556 480.147 84.4499 476.746C84.5771 476.709 84.6845 476.625 84.7484 476.512C84.8122 476.399 84.8273 476.265 84.7904 476.141C84.7534 476.017 84.6674 475.912 84.5513 475.85C84.4353 475.787 84.2986 475.773 84.1714 475.809Z" fill="#202C43"/>
<path d="M640.314 699.147H923.74C929.918 699.261 935.891 696.976 940.347 692.795C944.802 688.613 947.378 682.877 947.508 676.844V222.007C947.448 219.018 946.785 216.07 945.558 213.332C944.33 210.593 942.563 208.118 940.355 206.047C938.148 203.975 935.545 202.349 932.694 201.261C929.843 200.172 926.8 199.643 923.74 199.703H162.007C158.946 199.643 155.903 200.172 153.052 201.261C150.201 202.349 147.598 203.975 145.391 206.047C143.184 208.118 141.416 210.593 140.189 213.332C138.961 216.07 138.299 219.018 138.238 222.007V676.844C138.368 682.877 140.944 688.613 145.4 692.795C149.856 696.976 155.828 699.261 162.007 699.147H454.376V775.245L331.325 804.319H754.266L641.057 774.097L640.314 699.147Z" fill="black"/>
<path d="M553.845 645.866C564.212 659.768 547.995 674.97 533.171 665.238C532.676 664.927 532.246 664.527 531.902 664.06C521.566 650.158 537.752 634.956 552.576 644.657C553.058 644.997 553.485 645.404 553.845 645.866Z" fill="#3D46D2"/>
<path d="M920.459 228.656H165.318C159.729 228.656 155.198 233.08 155.198 238.538V620.057C155.198 625.515 159.729 629.94 165.318 629.94H920.459C926.048 629.94 930.579 625.515 930.579 620.057V238.538C930.579 233.08 926.048 228.656 920.459 228.656Z" fill="#D7D8EA"/>
<path d="M930.579 258.061H155.198V629.94H930.579V258.061Z" fill="white"/>
<path d="M213.907 244.159C213.944 245.272 213.64 246.371 213.034 247.314C212.428 248.256 211.547 249.001 210.505 249.452C209.462 249.903 208.306 250.04 207.183 249.846C206.061 249.651 205.023 249.133 204.204 248.359C203.384 247.585 202.82 246.589 202.584 245.5C202.347 244.411 202.45 243.277 202.877 242.245C203.304 241.213 204.037 240.329 204.983 239.706C205.928 239.083 207.042 238.75 208.182 238.75C208.922 238.738 209.657 238.868 210.345 239.134C211.033 239.399 211.66 239.794 212.192 240.296C212.724 240.799 213.149 241.399 213.443 242.061C213.738 242.724 213.895 243.437 213.907 244.159Z" fill="#7A7FFB"/>
<path d="M179.245 244.159C179.282 245.274 178.977 246.373 178.37 247.317C177.762 248.26 176.88 249.005 175.835 249.455C174.791 249.906 173.633 250.041 172.51 249.843C171.386 249.646 170.349 249.126 169.53 248.348C168.712 247.571 168.151 246.573 167.918 245.481C167.685 244.39 167.791 243.256 168.224 242.224C168.656 241.192 169.394 240.31 170.343 239.691C171.292 239.072 172.409 238.744 173.551 238.75C174.289 238.738 175.022 238.868 175.709 239.134C176.395 239.4 177.021 239.796 177.55 240.298C178.079 240.801 178.501 241.401 178.792 242.064C179.083 242.726 179.237 243.439 179.245 244.159Z" fill="#7A7FFB"/>
<path d="M195.895 244.159C195.932 245.272 195.628 246.371 195.022 247.314C194.416 248.256 193.535 249.001 192.492 249.452C191.45 249.903 190.294 250.04 189.171 249.846C188.048 249.651 187.011 249.133 186.192 248.359C185.372 247.585 184.808 246.589 184.572 245.5C184.335 244.411 184.437 243.277 184.865 242.245C185.292 241.213 186.025 240.329 186.97 239.706C187.916 239.083 189.03 238.75 190.17 238.75C190.909 238.738 191.644 238.868 192.332 239.134C193.02 239.399 193.648 239.794 194.18 240.296C194.712 240.799 195.137 241.399 195.431 242.061C195.725 242.724 195.883 243.437 195.895 244.159Z" fill="#7A7FFB"/>
<path d="M864.938 289.341H220.809C206.605 289.341 195.091 300.585 195.091 314.455V315.785C195.091 329.655 206.605 340.899 220.809 340.899H864.938C879.142 340.899 890.656 329.655 890.656 315.785V314.455C890.656 300.585 879.142 289.341 864.938 289.341Z" fill="#EDF1F7"/>
<path d="M857.015 272.175C858.908 274.582 860.028 277.484 860.233 280.512C860.438 283.541 859.719 286.561 858.167 289.191C856.615 291.821 854.299 293.942 851.513 295.288C848.727 296.633 845.594 297.141 842.512 296.749C839.43 296.356 836.536 295.08 834.196 293.082C831.856 291.084 830.175 288.453 829.366 285.523C828.557 282.592 828.655 279.493 829.649 276.617C830.643 273.741 832.487 271.217 834.949 269.364C836.586 268.132 838.456 267.227 840.452 266.702C842.447 266.176 844.529 266.04 846.579 266.301C848.629 266.562 850.605 267.215 852.396 268.223C854.187 269.231 855.756 270.574 857.015 272.175Z" stroke="#172759" stroke-miterlimit="10"/>
<path d="M854.168 293.723L861.688 303.243" stroke="#172759" stroke-linecap="round" stroke-linejoin="round"/>
<path d="M860.79 329.777H693.236V546.316H860.79V329.777Z" fill="#EDF1F7"/>
<path d="M825.757 484.18C825.757 484.452 802.917 484.664 774.723 484.664C746.529 484.664 723.689 484.452 723.689 484.18C723.689 483.908 746.529 483.697 774.723 483.697C802.917 483.697 825.757 483.908 825.757 484.18Z" fill="#4C54D2"/>
<path d="M825.757 497.508C825.757 497.78 802.917 498.022 774.723 498.022C746.529 498.022 723.689 497.78 723.689 497.508C723.689 497.236 746.529 497.024 774.723 497.024C802.917 497.024 825.757 497.206 825.757 497.508Z" fill="#4C54D2"/>
<path d="M784.874 510.866C784.874 511.138 771.164 511.349 754.266 511.349C737.368 511.349 723.689 511.138 723.689 510.866C723.689 510.594 737.368 510.352 754.266 510.352C771.164 510.352 784.874 510.594 784.874 510.866Z" fill="#4C54D2"/>
<path d="M772.216 347.88H723.689V353.894H772.216V347.88Z" fill="#7EA1F4"/>
<path d="M830.337 367.222H723.689V467.981H830.337V367.222Z" fill="#EAC689"/>
<path d="M698.59 353.471H555.763V538.035H698.59V353.471Z" fill="#EDF1F7"/>
<path d="M668.724 485.117C668.724 485.359 649.258 485.54 625.242 485.54C601.226 485.54 581.729 485.359 581.729 485.117C581.729 484.875 601.195 484.694 625.242 484.694C649.289 484.694 668.724 484.845 668.724 485.117Z" fill="#4C54D2"/>
<path d="M668.724 496.45C668.724 496.692 649.258 496.873 625.242 496.873C601.226 496.873 581.729 496.692 581.729 496.45C581.729 496.208 601.195 496.027 625.242 496.027C649.289 496.027 668.724 496.238 668.724 496.45Z" fill="#4C54D2"/>
<path d="M633.877 507.844C633.877 508.055 622.209 508.237 607.818 508.237C593.427 508.237 581.729 508.055 581.729 507.844C581.729 507.632 593.396 507.421 607.818 507.421C622.24 507.421 633.877 507.602 633.877 507.844Z" fill="#4C54D2"/>
<path d="M623.076 368.915H581.729V374.052H623.076V368.915Z" fill="#7EA1F4"/>
<path d="M672.624 385.416H581.729V471.306H672.624V385.416Z" fill="#7EA1F4"/>
<path d="M523.577 353.471H380.75V538.035H523.577V353.471Z" fill="#EDF1F7"/>
<path d="M493.712 485.117C493.712 485.359 474.245 485.54 450.229 485.54C426.213 485.54 406.716 485.359 406.716 485.117C406.716 484.875 426.182 484.694 450.229 484.694C474.276 484.694 493.712 484.845 493.712 485.117Z" fill="#4C54D2"/>
<path d="M493.712 496.45C493.712 496.692 474.245 496.873 450.229 496.873C426.213 496.873 406.716 496.692 406.716 496.45C406.716 496.208 426.182 496.027 450.229 496.027C474.276 496.027 493.712 496.238 493.712 496.45Z" fill="#4C54D2"/>
<path d="M458.864 507.844C458.864 508.055 447.196 508.237 432.805 508.237C418.414 508.237 406.716 508.055 406.716 507.844C406.716 507.632 418.383 507.421 432.805 507.421C447.227 507.421 458.864 507.602 458.864 507.844Z" fill="#4C54D2"/>
<path d="M448.063 368.915H406.716V374.052H448.063V368.915Z" fill="#7EA1F4"/>
<path d="M497.611 385.416H406.716V471.306H497.611V385.416Z" fill="#5665C7"/>
<path d="M348.564 353.471H205.737V538.035H348.564V353.471Z" fill="#EDF1F7"/>
<path d="M318.699 485.117C318.699 485.359 299.232 485.54 275.216 485.54C251.2 485.54 231.703 485.359 231.703 485.117C231.703 484.875 251.169 484.694 275.216 484.694C299.263 484.694 318.699 484.845 318.699 485.117Z" fill="#4C54D2"/>
<path d="M318.699 496.45C318.699 496.692 299.232 496.873 275.216 496.873C251.2 496.873 231.703 496.692 231.703 496.45C231.703 496.208 251.169 496.027 275.216 496.027C299.263 496.027 318.699 496.238 318.699 496.45Z" fill="#4C54D2"/>
<path d="M283.851 507.844C283.851 508.055 272.183 508.237 257.792 508.237C243.401 508.237 231.703 508.055 231.703 507.844C231.703 507.632 243.37 507.421 257.792 507.421C272.214 507.421 283.851 507.602 283.851 507.844Z" fill="#4C54D2"/>
<path d="M273.05 368.915H231.703V374.052H273.05V368.915Z" fill="#7EA1F4"/>
<path d="M322.598 385.416H231.703V471.306H322.598V385.416Z" fill="#9DE3BD"/>
<path d="M871.128 560.641H208.182V631.421H871.128V560.641Z" fill="#EDF1F7"/>
<path d="M833.401 604.614C833.401 604.916 699.766 605.279 534.966 605.46C370.166 605.642 236.5 605.46 236.5 605.309C236.5 605.158 370.104 604.674 534.966 604.463C699.828 604.251 833.401 604.342 833.401 604.614Z" fill="#4C54D2"/>
<path d="M833.401 589.896C833.401 590.168 699.766 590.53 534.966 590.742C370.166 590.953 236.5 590.742 236.5 590.591C236.5 590.44 370.104 589.926 534.966 589.745C699.828 589.563 833.401 589.624 833.401 589.896Z" fill="#4C54D2"/>
<path d="M941.968 823.056C941.509 829.018 940.713 834.951 939.585 840.827L901.89 841.401C902.262 840.494 904.985 837.865 914.269 837.623L916.003 823.056H941.968Z" fill="#38234A"/>
<path d="M1005.44 823.056C1004.98 829.018 1004.19 834.951 1003.06 840.827L965.396 841.401C965.737 840.494 968.491 837.865 977.776 837.623L979.509 823.056H1005.44Z" fill="#38234A"/>
<path d="M1024.07 571.914C1024.07 571.914 1020.98 645.141 1018.97 687.149C1016.96 729.157 1008.04 827.136 1008.04 827.136H975.949C975.949 827.136 973.257 630.423 971.833 630.181C970.41 629.94 962.982 685.215 957.504 706.521C952.026 727.828 944.537 830.43 942.494 829.856C940.452 829.282 912.66 829.856 912.66 829.856C912.66 829.856 910.493 745.235 914.207 711.992C917.921 678.748 934.974 572.095 934.974 572.095L1024.07 571.914Z" fill="black"/>
<g opacity="0.2">
<path d="M972.731 629.939C956.824 631.39 967.037 592.646 969.637 585.211C969.702 584.987 969.856 584.797 970.065 584.684C970.274 584.57 970.521 584.543 970.751 584.607C970.98 584.671 971.175 584.822 971.291 585.026C971.407 585.23 971.435 585.47 971.37 585.695C970.503 591.195 961.095 628.519 972.855 628.761C972.992 628.791 973.114 628.866 973.202 628.973C973.289 629.08 973.337 629.213 973.337 629.35C973.337 629.487 973.289 629.62 973.202 629.727C973.114 629.834 972.992 629.909 972.855 629.939H972.731Z" fill="#260610"/>
</g>
<g opacity="0.39">
<path d="M979.23 584.395C977.559 599.023 975.021 613.559 972.762 628.096C972.762 628.731 971.679 628.459 971.772 627.824C974 613.317 975.981 598.751 978.828 584.335C978.828 584.093 979.261 584.153 979.23 584.335V584.395Z" fill="#260610"/>
</g>
<g opacity="0.2">
<path d="M952.088 588.174C950.471 592.712 947.505 596.678 943.569 599.563C939.633 602.448 934.906 604.123 929.991 604.372C928.692 604.372 928.692 602.468 929.991 602.378C934.568 602.121 938.982 600.63 942.741 598.068C946.5 595.507 949.458 591.977 951.284 587.871C951.47 587.418 952.243 587.871 952.088 588.234V588.174Z" fill="#260610"/>
</g>
<g opacity="0.2">
<path d="M1022.77 611.021C1010.74 610.296 999.501 601.018 994.766 590.531C994.302 589.503 995.788 588.627 996.314 589.654C1002.01 600.836 1010.98 606.427 1022.93 609.903C1023.52 610.084 1023.46 611.051 1022.93 611.021H1022.77Z" fill="#260610"/>
</g>
<g opacity="0.2">
<path d="M1016.93 611.414C1017.07 682.845 1013.4 754.235 1005.94 825.293C1005.94 826.471 1003.96 826.471 1004.08 825.293C1011.73 754.242 1015.01 682.858 1016.46 611.414C1016.46 611.35 1016.49 611.288 1016.53 611.243C1016.58 611.197 1016.64 611.172 1016.71 611.172C1016.77 611.172 1016.84 611.197 1016.88 611.243C1016.93 611.288 1016.96 611.35 1016.96 611.414H1016.93Z" fill="#260610"/>
</g>
<g opacity="0.2">
<path d="M970.936 628.157C954.874 695.158 942.68 761.283 942.123 830.37C942.123 830.619 942.022 830.857 941.842 831.033C941.662 831.208 941.418 831.307 941.163 831.307C940.909 831.307 940.665 831.208 940.485 831.033C940.305 830.857 940.204 830.619 940.204 830.37C941.164 762.734 948.901 692.62 970.379 628.036C970.379 627.964 970.408 627.895 970.46 627.844C970.513 627.793 970.583 627.764 970.657 627.764C970.731 627.764 970.802 627.793 970.854 627.844C970.906 627.895 970.936 627.964 970.936 628.036V628.157Z" fill="#260610"/>
</g>
<path d="M914.703 492.34C914.703 492.34 905.078 553.388 906.687 561.427C907.244 564.268 933.891 573.516 935.995 554.869C938.1 536.222 938.719 489.59 938.719 489.59L914.703 492.34Z" fill="#8C523E"/>
<path d="M1043.08 445.828C1043.08 445.828 1021.66 419.173 997.149 416.12H960.878C960.878 416.12 934.324 419.959 919.933 439.996L931.26 480.1L931.848 577.807L1026.02 581.826L1019.46 478.619L1043.08 445.828Z" fill="#34B870"/>
<path d="M922.78 436.279C911.54 450.301 904.319 466.989 901.859 484.634L931.322 499.745C931.322 499.745 937.542 435.04 922.78 436.279Z" fill="#1C9C56"/>
<path d="M931.446 472.635C933.674 507.421 933.983 542.599 934.107 577.444C934.107 577.685 934.01 577.915 933.835 578.085C933.661 578.255 933.425 578.351 933.179 578.351C932.933 578.351 932.697 578.255 932.522 578.085C932.348 577.915 932.25 577.685 932.25 577.444C930.951 542.629 929.775 507.481 930.548 472.635C930.574 472.539 930.633 472.453 930.714 472.392C930.795 472.331 930.894 472.298 930.997 472.298C931.099 472.298 931.199 472.331 931.28 472.392C931.361 472.453 931.419 472.539 931.446 472.635Z" fill="#09A24B"/>
<path d="M1006.53 475.174V491.464L995.911 496.088L987.091 490.497V475.174H1006.53Z" fill="#80C19C"/>
<path d="M931.477 500.228C920.986 496.752 911.175 490.376 901.303 485.51C900.034 484.905 901.302 483.092 902.417 483.697C912.581 488.266 922.414 493.506 931.849 499.382C932.251 499.654 931.849 500.409 931.477 500.228Z" fill="#129B4D"/>
<path d="M926.03 539.093C919.624 528.757 916.095 515.641 912.815 504.066C912.774 503.918 912.795 503.76 912.873 503.627C912.952 503.493 913.081 503.396 913.233 503.356C913.385 503.316 913.547 503.336 913.683 503.413C913.82 503.489 913.919 503.616 913.96 503.764C918.076 515.339 923.833 526.884 927.051 538.7C927.078 538.826 927.058 538.956 926.996 539.069C926.933 539.182 926.832 539.269 926.71 539.316C926.588 539.363 926.453 539.367 926.328 539.326C926.204 539.285 926.098 539.203 926.03 539.093Z" fill="#D88773"/>
<path d="M996.871 378.978L995.2 424.613C986.472 430.053 976.476 430.657 964.561 424.613V379.643L996.871 378.978Z" fill="#8C523E"/>
<path d="M939.957 335.882C939.957 335.882 939.709 378.193 940.947 388.619C941.472 394.266 944.111 399.525 948.36 403.389C952.609 407.254 958.168 409.452 963.973 409.563C976.847 409.321 991.424 404.969 995.323 392.487C999.223 380.006 994.395 336.033 994.395 336.033L939.957 335.882Z" fill="#8C523E"/>
<path d="M988.948 399.076C986.004 402.897 982.113 405.925 977.642 407.876C973.17 409.826 968.265 410.636 963.385 410.227C963.256 410.198 963.141 410.127 963.058 410.025C962.976 409.924 962.931 409.798 962.931 409.668C962.931 409.539 962.976 409.413 963.058 409.312C963.141 409.21 963.256 409.139 963.385 409.109C968.115 409.297 972.83 408.481 977.206 406.718C981.582 404.954 985.514 402.285 988.732 398.894C988.732 398.894 989.072 398.894 988.948 399.076Z" fill="#D88773"/>
<path d="M960.259 366.829C960.925 369.09 960.925 371.489 960.259 373.75C959.816 374.786 959.31 375.795 958.742 376.772C957.894 378.1 957.568 379.683 957.824 381.228C958.08 382.773 958.901 384.175 960.135 385.174C960.692 385.808 959.764 386.745 959.176 386.111C958.137 385.215 957.333 384.088 956.832 382.826C956.332 381.564 956.148 380.203 956.297 378.857C956.711 377.78 957.273 376.764 957.969 375.835C959.63 373.243 960.206 370.127 959.578 367.131C959.578 366.588 960.29 366.376 960.413 366.89L960.259 366.829Z" fill="#0C112C"/>
<path d="M971.184 389.768C969.952 391.656 968.112 393.092 965.954 393.847C965.142 394.12 964.259 394.103 963.459 393.798C962.66 393.494 961.998 392.922 961.59 392.185C961.373 391.732 961.992 391.43 962.363 391.611C963.042 392.074 963.831 392.359 964.655 392.438C965.479 392.518 966.31 392.389 967.068 392.064C968.417 391.303 969.588 390.274 970.503 389.042C970.905 388.589 971.586 389.254 971.184 389.707V389.768Z" fill="#0C112C"/>
<path d="M948.498 368.129C948.269 368.089 948.062 367.972 947.913 367.798C947.764 367.624 947.682 367.404 947.682 367.177C947.682 366.95 947.764 366.73 947.913 366.556C948.062 366.382 948.269 366.265 948.498 366.225C948.727 366.265 948.934 366.382 949.083 366.556C949.232 366.73 949.314 366.95 949.314 367.177C949.314 367.404 949.232 367.624 949.083 367.798C948.934 367.972 948.727 368.089 948.498 368.129Z" fill="#0C112C"/>
<path d="M973.257 368.189C973.028 368.149 972.821 368.032 972.672 367.858C972.523 367.684 972.441 367.464 972.441 367.237C972.441 367.01 972.523 366.79 972.672 366.616C972.821 366.442 973.028 366.325 973.257 366.285C973.486 366.325 973.693 366.442 973.842 366.616C973.991 366.79 974.073 367.01 974.073 367.237C974.073 367.464 973.991 367.684 973.842 367.858C973.693 368.032 973.486 368.149 973.257 368.189Z" fill="#0C112C"/>
<g opacity="0.22">
<path d="M970.812 378.585C970.565 381.124 973.629 383.481 977.652 383.512C981.675 383.542 984.77 381.245 984.584 378.706C984.399 376.168 981.304 374.294 977.745 374.264C974.186 374.234 971.06 376.017 970.812 378.585Z" fill="#D88773"/>
</g>
<g opacity="0.22">
<path d="M941.721 378.434C941.643 379.049 941.709 379.672 941.912 380.258C942.116 380.844 942.452 381.378 942.897 381.819C943.9 382.795 945.256 383.349 946.672 383.36C947.37 383.383 948.065 383.267 948.714 383.017C949.363 382.768 949.954 382.391 950.448 381.91C950.905 381.479 951.258 380.955 951.483 380.375C951.708 379.795 951.798 379.173 951.748 378.555C951.616 377.331 951.02 376.199 950.077 375.382C949.182 374.577 948.013 374.125 946.796 374.113C945.572 374.091 944.382 374.511 943.454 375.291C942.503 376.098 941.887 377.215 941.721 378.434Z" fill="#D88773"/>
</g>
<path d="M1001.45 349.422C1001.15 345.739 1000.1 342.152 998.357 338.874C998.171 338.391 997.954 337.786 997.645 337.121C997.335 336.456 997.026 335.701 996.562 334.885C996.097 334.069 995.664 333.162 995.076 332.225C994.488 331.289 993.838 330.352 993.126 329.354C991.553 327.187 989.782 325.164 987.834 323.31C985.86 321.493 983.738 319.835 981.49 318.354C980.437 317.689 979.447 317.054 978.395 316.54C977.343 316.027 976.507 315.573 975.64 315.18C974.774 314.787 974 314.485 973.288 314.213C972.705 313.972 972.105 313.77 971.493 313.609C970.981 313.416 970.453 313.264 969.915 313.156C970.394 313.415 970.903 313.618 971.431 313.76L973.195 314.485C973.876 314.787 974.65 315.059 975.486 315.513C976.321 315.966 977.25 316.359 978.178 316.903C979.107 317.447 980.128 318.051 981.273 318.716C983.476 320.194 985.547 321.852 987.463 323.673C989.397 325.539 991.167 327.561 992.755 329.717C993.467 330.714 994.179 331.651 994.736 332.558C995.293 333.465 995.819 334.341 996.252 335.157L996.562 335.731C991.404 326.884 983.185 320.123 973.381 316.661C971.122 315.875 967.192 313.639 965.149 316.147C964.035 317.568 964.097 321.255 966.418 321.859C963.46 320.863 960.575 319.672 957.783 318.293C954.957 316.753 951.634 316.331 948.499 317.115C945.404 318.112 943.206 322.857 946.889 325.305C945.306 325.106 943.698 325.209 942.154 325.607C940.606 325.868 939.105 326.347 937.698 327.027C936.017 327.86 934.563 329.072 933.458 330.563C932.309 332.073 931.789 333.952 932.003 335.822C932.277 337.543 933.075 339.144 934.293 340.415C935.372 341.552 936.664 342.475 938.1 343.135C939.357 343.668 940.677 344.044 942.03 344.254L943.423 344.435C948.973 345.523 954.659 345.788 960.29 345.221C967.974 344.57 975.705 344.631 983.378 345.402C986.576 345.68 989.549 347.126 991.703 349.452C992.05 349.9 992.341 350.387 992.569 350.902L993.931 372.662L1001.42 368.038V360.996C1001.99 357.159 1002 353.262 1001.45 349.422ZM938.378 342.773C936.993 342.131 935.752 341.227 934.727 340.113C933.595 338.909 932.852 337.406 932.591 335.792C932.392 334.041 932.879 332.281 933.953 330.865C935.014 329.423 936.415 328.252 938.038 327.45C936.571 328.396 935.479 329.804 934.943 331.44C934.411 333.358 934.474 335.387 935.124 337.27C935.774 339.153 936.982 340.805 938.595 342.017V342.259C939.569 342.902 940.605 343.449 941.69 343.891C940.546 343.644 939.434 343.269 938.378 342.773Z" fill="#51332A"/>
<path d="M995.788 363.716C995.788 363.716 1009.28 360.694 1009.65 373.931C1010.02 387.168 995.788 386.776 995.788 386.776V363.716Z" fill="#8C523E"/>
<path d="M1001.39 369.972C1002.57 370.378 1003.56 371.185 1004.18 372.245C1004.8 373.305 1005 374.547 1004.76 375.745C1004.36 377.89 1002.29 380.429 999.842 380.066C999.655 380.011 999.485 379.91 999.349 379.772C999.213 379.634 999.116 379.465 999.066 379.28C999.017 379.095 999.016 378.901 999.065 378.716C999.115 378.531 999.211 378.361 999.347 378.223C1000.37 377.226 1001.67 377.044 1002.16 375.503C1002.32 374.722 1002.26 373.914 1001.99 373.164C1001.72 372.414 1001.24 371.75 1000.62 371.242C1000.09 370.728 1000.62 369.7 1001.39 369.972Z" fill="#D88773"/>
<path d="M906.687 561.427L892.172 501.316L909.782 496.269L931.632 551.877C930.27 560.067 906.687 561.427 906.687 561.427Z" fill="#8C523E"/>
<path d="M910.277 497.387C910.277 497.387 905.851 487.746 905.542 486.87C905.232 485.993 911.732 478.438 909.689 478.377C907.646 478.317 903.499 482.276 903.499 482.276C903.499 482.276 899.259 468.979 897.31 470.369C895.36 471.759 898.424 478.74 898.424 478.74C898.424 478.74 893.472 467.77 892.048 469.19C890.625 470.611 895.143 479.254 895.143 479.254C895.143 479.254 890.594 471.578 888.52 471.336C886.447 471.094 891.615 480.584 891.615 480.584C891.615 480.584 886.106 473.391 884.837 473.542C883.568 473.693 892.234 502.676 892.234 502.676L910.277 497.387Z" fill="#8C523E"/>
<mask id="mask0_35_132" style="mask-type:luminance" maskUnits="userSpaceOnUse" x="760" y="328" width="176" height="172">
<path d="M911.577 355.345C923.467 367.589 931.371 383.001 934.29 399.633C937.21 416.264 935.014 433.367 927.98 448.779C920.945 464.191 909.389 477.221 894.772 486.219C880.155 495.218 863.133 499.782 845.86 499.334C828.586 498.886 811.837 493.446 797.729 483.702C783.622 473.959 772.79 460.349 766.604 444.594C760.417 428.838 759.154 411.646 762.973 395.189C766.793 378.733 775.524 363.752 788.062 352.141C796.387 344.432 806.186 338.399 816.899 334.388C827.612 330.376 839.029 328.465 850.499 328.762C861.968 329.06 873.266 331.56 883.745 336.121C894.225 340.683 903.683 347.215 911.577 355.345Z" fill="white"/>
</mask>
<g mask="url(#mask0_35_132)">
<path d="M956.767 313.149L718.065 298.075L697.636 606.569L936.338 621.643L956.767 313.149Z" fill="#EDF1F7"/>
<path d="M828.852 330.949L759.733 326.585L759.166 335.15L828.284 339.515L828.852 330.949Z" fill="#7EA1F4"/>
<path d="M909.865 363.762L757.917 354.166L748.41 497.722L900.359 507.317L909.865 363.762Z" fill="#EAC689"/>
<path opacity="0.42" d="M886.014 336.396L780.356 464.868C780.356 464.868 781.006 476.594 805.424 488.623L906.316 348.364L886.014 336.396Z" fill="white"/>
<path opacity="0.42" d="M917.674 364.321L825.076 494.969L832.009 496.42L920.15 368.854L915.662 361.51" fill="white"/>
</g>
<path d="M911.577 355.345C923.467 367.589 931.371 383.001 934.29 399.633C937.21 416.264 935.014 433.367 927.98 448.779C920.945 464.191 909.389 477.221 894.772 486.219C880.155 495.218 863.133 499.782 845.86 499.334C828.586 498.886 811.837 493.446 797.729 483.702C783.622 473.959 772.79 460.349 766.604 444.594C760.417 428.838 759.154 411.646 762.973 395.189C766.793 378.733 775.524 363.752 788.062 352.141C796.387 344.432 806.186 338.399 816.899 334.388C827.612 330.376 839.029 328.465 850.499 328.762C861.968 329.06 873.266 331.56 883.745 336.121C894.225 340.683 903.683 347.215 911.577 355.345Z" stroke="#2D3F78" stroke-width="5" stroke-linecap="round" stroke-linejoin="round"/>
<path d="M908.358 475.929L1008.26 578.744" stroke="#172759" stroke-width="5" stroke-linecap="round" stroke-linejoin="round"/>
<path d="M1041.93 444.529C1041.93 444.529 1053.32 462.511 1052.89 493.428C1052.89 493.428 1016.77 503.159 1016.89 501.255C1017.02 499.351 1019.43 463.055 1019.43 463.055C1019.43 463.055 1024.41 427.696 1041.93 444.529Z" fill="#39B170"/>
<path d="M1053.72 492.763C1042.32 496.229 1030.74 499.094 1019.03 501.346C1017.67 501.648 1017.27 499.623 1018.6 499.291C1030.04 496.174 1041.65 493.681 1053.38 491.826C1053.91 491.826 1054.31 492.551 1053.72 492.763Z" fill="#80C19C"/>
<path d="M1021.2 476.504C1021.2 485.525 1020.54 494.534 1019.22 503.462C1019.03 504.489 1017.39 504.429 1017.51 503.462C1018.53 494.546 1019.9 485.54 1020.33 476.564C1020.33 476.02 1021.2 476.081 1021.2 476.564V476.504Z" fill="#80C19C"/>
<path d="M1025.68 560.369C1019.31 559.13 974.526 538.761 974.526 538.761L982.48 521.625C982.48 521.625 1014.39 534.681 1014.82 533.109C1015.41 531.054 1020.73 497.296 1021.01 500.802L1052.83 493.428C1052.83 493.428 1047.16 548.764 1035.03 558.767C1035.15 558.767 1032.4 561.699 1025.68 560.369Z" fill="#8C523E"/>
<path d="M988.422 523.831C988.422 523.831 977.559 520.325 976.692 519.872C975.826 519.419 975.083 509.204 973.597 510.503C972.112 511.803 971.864 517.787 971.864 517.787C971.864 517.787 958.804 510.745 958.495 513.072C958.185 515.399 965.52 518.603 965.52 518.603C965.52 518.603 953.636 513.797 953.636 515.883C953.636 517.968 963.539 521.172 963.539 521.172C963.539 521.172 954.44 518.633 952.676 519.902C950.912 521.172 961.961 524.708 961.961 524.708C961.961 524.708 952.491 523.196 951.624 524.194C950.758 525.191 978.797 540.967 978.797 540.967L988.422 523.831Z" fill="#8C523E"/>
<defs>
<linearGradient id="paint0_linear_35_132" x1="1023.61" y1="266.16" x2="1046.2" y2="266.16" gradientUnits="userSpaceOnUse">
<stop stop-color="#AEF6BF"/>
<stop offset="1" stop-color="#8ED3BB"/>
</linearGradient>
</defs>
</svg>
