<svg width="1136" height="853" viewBox="0 0 1136 853" fill="none" xmlns="http://www.w3.org/2000/svg">
<path d="M126.084 137.174C86.1296 130.585 45.4635 153.342 28.349 188.853C10.6156 225.663 24.9446 267.882 56.8215 292.423C72.3554 304.82 91.867 311.473 111.927 311.213C131.987 310.953 151.311 303.797 166.503 291.002C196.553 266.251 210.171 223.819 192.902 188.248C175.137 151.65 124.506 124.48 83.9942 140.891C83.1097 141.189 82.3749 141.805 81.9388 142.614C81.5027 143.422 81.3982 144.363 81.6464 145.244C81.8946 146.125 82.4769 146.881 83.2751 147.358C84.0734 147.835 85.0276 147.997 85.9439 147.812C120.482 141.133 156.011 151.62 177.551 179.937C199.525 208.799 195.254 247.332 172.135 274.289C147.376 303.151 107.144 312.732 72.9147 293.843C40.7593 276.103 20.0239 238.295 30.732 202.513C42.3376 163.738 84.5822 136.962 125.434 141.918C128.127 142.251 128.776 137.657 126.084 137.204V137.174Z" fill="#CD6E95"/>
<path d="M980.662 33.4829C950.683 96.7067 920.705 159.91 890.726 223.094C886.414 232.221 882.091 241.348 877.759 250.475C876.892 252.258 877.759 254.948 880.265 254.766L1100.71 239.232L1132.06 236.996C1134.04 236.845 1135.99 234.578 1134.57 232.704L1004.21 58.3856C998.024 50.1451 991.834 41.8845 985.645 33.6038C983.447 30.5816 978.372 33.6038 980.6 36.6259L1110.92 210.915L1129.49 235.696C1130.33 234.276 1131.16 232.825 1132.03 231.405L911.585 247.09L880.234 249.296L882.772 253.618C912.73 190.394 942.647 127.19 972.523 64.0068L985.521 36.6259C987.285 33.0598 982.24 30.1585 980.662 33.4829Z" fill="#7EA1F4"/>
<path d="M647.874 99.1247L596.098 149.655H600.245L548.468 99.1247V103.235L600.245 52.7041H596.098L647.874 103.235C648.42 103.768 649.16 104.067 649.932 104.067C650.704 104.067 651.444 103.768 651.99 103.235C652.536 102.702 652.843 101.979 652.843 101.225C652.843 100.471 652.536 99.7484 651.99 99.2153C634.762 82.3516 617.514 65.5081 600.245 48.6846C599.676 48.1834 598.937 47.906 598.171 47.906C597.405 47.906 596.666 48.1834 596.098 48.6846L544.352 99.2153C543.847 99.7688 543.568 100.484 543.568 101.225C543.568 101.966 543.847 102.681 544.352 103.235L596.098 153.766C596.666 154.267 597.405 154.544 598.171 154.544C598.937 154.544 599.676 154.267 600.245 153.766C617.473 136.942 634.721 120.099 651.99 103.235C652.548 102.702 652.867 101.974 652.876 101.212C652.884 100.45 652.583 99.7151 652.037 99.17C651.767 98.9001 651.444 98.6849 651.089 98.5365C650.733 98.3882 650.352 98.3097 649.965 98.3055C649.185 98.297 648.432 98.5917 647.874 99.1247Z" fill="#812D65"/>
<path d="M108.567 58.8692L312.827 58.8692C312.827 58.8692 304.873 46.5387 284.261 45.8738L263.65 45.2392C263.65 45.2392 269.623 29.0101 254.984 22.5124C240.346 16.0148 198.472 40.6455 198.472 40.6455C198.472 40.6455 202.465 34.7824 189.188 33.4829C175.911 32.1834 152.05 49.0773 152.05 49.0773C152.05 49.0773 105.256 51.072 108.567 58.8692Z" fill="white"/>
<path d="M353.648 180.844L557.907 180.844C557.907 180.844 549.922 168.514 529.311 167.849L508.699 167.214C508.699 167.214 514.672 150.985 500.064 144.487C485.457 137.99 443.553 162.62 443.553 162.62C443.553 162.62 447.545 156.788 434.268 155.488C420.991 154.188 397.13 171.082 397.13 171.082C397.13 171.082 350.305 173.047 353.648 180.844Z" fill="white"/>
<path d="M411.274 0.692386C408.213 0.0306416 405.043 0.0252095 401.98 0.676454C398.918 1.3277 396.036 2.62011 393.535 4.4645C391.034 6.30889 388.972 8.66132 387.492 11.3594C386.013 14.0575 385.15 17.0371 384.964 20.0924C384.778 23.1477 385.273 26.206 386.415 29.0563C387.558 31.9065 389.319 34.4808 391.579 36.6015C393.839 38.7221 396.544 40.3387 399.506 41.3395C402.468 42.3403 405.617 42.7016 408.736 42.3984C411.754 42.2509 414.706 41.4767 417.394 40.1275C420.082 38.7782 422.444 36.8848 424.324 34.5736C426.203 32.2624 427.557 29.5864 428.293 26.7241C429.03 23.8619 429.134 20.8791 428.597 17.9747C428.06 15.0703 426.896 12.311 425.181 9.88083C423.466 7.45064 421.24 5.40542 418.652 3.88152C416.064 2.35762 413.172 1.39007 410.171 1.04339C407.17 0.696708 404.127 0.978856 401.246 1.87103" fill="url(#paint0_linear_11_122)"/>
<path d="M1037.7 266.22C1036.13 265.973 1034.53 266.049 1033 266.443C1031.46 266.838 1030.03 267.542 1028.79 268.511C1027.55 269.479 1026.53 270.691 1025.8 272.067C1025.07 273.443 1024.64 274.954 1024.55 276.501C1024.45 278.048 1024.69 279.598 1025.25 281.05C1025.8 282.502 1026.66 283.824 1027.77 284.931C1028.88 286.039 1030.22 286.906 1031.7 287.478C1033.17 288.05 1034.75 288.314 1036.34 288.252C1037.94 288.187 1039.51 287.787 1040.94 287.081C1042.37 286.374 1043.63 285.376 1044.64 284.154C1045.64 282.932 1046.36 281.514 1046.76 279.996C1047.15 278.479 1047.21 276.896 1046.93 275.354C1046.65 273.812 1046.03 272.348 1045.12 271.059C1044.21 269.77 1043.02 268.686 1041.65 267.881C1040.27 267.076 1038.74 266.568 1037.14 266.391C1035.55 266.214 1033.93 266.372 1032.41 266.855" fill="url(#paint1_linear_11_122)"/>
<path d="M310.444 117.711C308.685 117.406 306.879 117.467 305.146 117.892C303.413 118.317 301.792 119.095 300.389 120.176C298.986 121.256 297.833 122.615 297.006 124.162C296.179 125.708 295.697 127.409 295.592 129.151C295.486 130.892 295.759 132.636 296.394 134.268C297.028 135.899 298.008 137.381 299.271 138.615C300.534 139.85 302.05 140.809 303.719 141.431C305.389 142.052 307.174 142.322 308.958 142.221C310.593 141.977 312.161 141.416 313.571 140.571C314.98 139.725 316.201 138.613 317.162 137.299C318.124 135.984 318.806 134.496 319.168 132.92C319.531 131.344 319.566 129.713 319.273 128.124C318.979 126.535 318.362 125.019 317.459 123.666C316.555 122.314 315.383 121.152 314.012 120.248C312.641 119.345 311.098 118.72 309.476 118.409C307.853 118.097 306.183 118.107 304.564 118.436" fill="#EAC689"/>
<path d="M784.503 27.5873L742.056 11.4348L725.515 52.8852L767.962 69.0376L784.503 27.5873Z" fill="#CD6E95"/>
<path d="M840.064 129.92C855.104 129.92 855.135 107.042 840.064 107.042C824.992 107.042 824.961 129.92 840.064 129.92Z" fill="#1F2F6E"/>
<path d="M160.437 646.107C172.228 632.628 192.778 598.478 198.875 579.076C200.005 574.91 200.351 570.578 199.896 566.292C199.983 563.833 199.236 561.415 197.769 559.414C196.302 557.413 194.199 555.943 191.788 555.231C183.122 553.599 177.397 565.083 168.669 566.443C159.942 567.803 153.04 557.92 153.504 549.277C153.969 540.633 158.951 532.897 162.201 524.828C165.451 516.758 166.812 508.054 163.222 500.469C159.632 492.883 149.512 487.987 142.054 492.067C137.473 494.576 134.812 499.744 130.076 501.919C121.844 505.667 112.065 497.991 110.27 489.317C108.475 480.643 111.972 471.849 115.066 463.508C118.161 455.166 120.854 445.888 117.542 437.638C114.231 429.387 102.068 424.34 95.8784 430.596C89.9673 436.399 91.6695 448.246 83.9634 451.389C75.4835 454.834 69.139 443.712 65.9823 435.281C60.8998 421.654 52.8302 409.277 42.3377 399.014C35.4053 392.245 25.6875 386.11 16.3411 389.041C4.11645 392.879 1.85716 410.197 8.35633 420.865C14.8555 431.533 26.6778 438.121 36.8289 445.798C42.3763 449.417 46.6877 454.574 49.2083 460.606C51.2818 466.651 49.2082 474.659 43.1733 477.349C36.5503 480.371 29.1227 476.08 22.6545 472.786C16.1863 469.492 7.02553 467.497 2.63085 473.179C-1.05201 477.923 1.45485 484.814 4.89012 489.74C9.52236 496.254 15.5797 501.68 22.6237 505.626C29.6677 509.573 37.522 511.94 45.6182 512.557C51.5913 513.011 57.8119 512.557 63.4446 514.522C69.0772 516.486 73.967 522.38 72.2029 527.971C70.0056 534.922 60.0711 535.919 53.0458 533.471C46.0205 531.023 39.3666 526.429 31.939 527.003C19.5596 527.971 13.37 543.897 18.2599 554.928C23.1497 565.959 35.5909 572.094 47.6299 574.875C59.6688 577.655 72.3887 577.897 84.0562 581.644C88.7913 583.125 93.9906 585.906 94.6715 590.711C95.569 596.755 88.1104 601.319 81.766 600.896C75.4215 600.473 69.758 597.027 63.5993 595.425C57.4405 593.824 49.5487 594.881 46.8871 600.503C44.2256 606.124 47.8156 611.654 51.4366 616.127C77.7737 648.344 123.144 655.053 160.592 646.107" fill="#5665C7"/>
<path d="M40.5117 420.563C46.5467 432.198 54.7789 442.987 61.7733 454.139C68.7676 465.291 75.0501 475.748 81.3636 486.718C94.3309 509.203 106.648 532.051 117.79 555.322C128.931 578.592 139.609 603.314 149.141 627.854C158.673 652.394 165.667 678.052 175.23 702.622C175.299 702.797 175.432 702.94 175.602 703.024C175.773 703.109 175.969 703.128 176.154 703.079C176.339 703.031 176.498 702.917 176.602 702.76C176.706 702.603 176.746 702.414 176.716 702.23C171.083 676.753 160.622 651.608 151.152 627.31C141.682 603.012 131.376 579.348 120.204 555.987C109.031 532.625 96.5593 508.599 83.2824 485.691C70.5936 463.81 57.9666 439.361 41.1926 420.14C40.9141 419.807 40.4808 420.14 40.6355 420.563H40.5117Z" fill="#202C43"/>
<path d="M119.894 558.585C98.0196 554.569 75.874 552.114 53.6338 551.241C52.3649 551.241 52.3649 553.145 53.6338 553.206C75.7619 554.294 97.5495 557.014 119.461 560.157C120.513 560.308 120.978 558.797 119.894 558.585Z" fill="#202C43"/>
<path d="M121.565 562.06C123.237 553.689 131.747 547.161 136.235 539.908C140.619 532.843 143.757 525.11 145.519 517.03C145.601 516.742 145.563 516.433 145.412 516.172C145.261 515.911 145.01 515.72 144.715 515.64C144.419 515.56 144.103 515.597 143.836 515.745C143.569 515.892 143.373 516.137 143.291 516.426C140.515 527.143 135.616 537.226 128.869 546.103C124.939 551.09 120.296 555.17 120.049 561.849C120.066 562.017 120.14 562.174 120.26 562.296C120.379 562.417 120.536 562.497 120.707 562.521C120.878 562.545 121.052 562.513 121.202 562.43C121.352 562.346 121.469 562.216 121.534 562.06H121.565Z" fill="#202C43"/>
<path d="M150.533 627.4C158.734 610.989 168.081 595.969 177.861 580.465C178.418 579.619 177.118 578.592 176.437 579.377C164.699 593.604 155.53 609.68 149.326 626.916C149.294 626.994 149.277 627.077 149.277 627.16C149.278 627.244 149.295 627.327 149.328 627.404C149.395 627.56 149.522 627.683 149.682 627.747C149.842 627.811 150.022 627.811 150.181 627.746C150.341 627.68 150.467 627.556 150.533 627.4Z" fill="#202C43"/>
<path d="M148.893 623.864C126.3 617.155 100.861 614.163 77.4948 618.485C77.2935 618.539 77.1189 618.662 77.0031 618.831C76.8873 619.001 76.838 619.206 76.8644 619.408C76.8907 619.61 76.9909 619.796 77.1466 619.932C77.3022 620.068 77.5028 620.144 77.7115 620.147C102.068 618.696 124.691 619.21 148.46 625.345C148.661 625.401 148.876 625.377 149.059 625.278C149.242 625.179 149.377 625.013 149.434 624.816C149.492 624.62 149.467 624.409 149.365 624.231C149.264 624.052 149.094 623.92 148.893 623.864Z" fill="#202C43"/>
<path d="M85.8511 487.474C88.4228 476.924 92.5954 466.809 98.2304 457.464C98.3412 457.275 98.3709 457.052 98.3129 456.842C98.2549 456.632 98.1138 456.454 97.9209 456.345C97.728 456.237 97.499 456.208 97.2843 456.265C97.0695 456.322 96.8867 456.459 96.7759 456.648C90.5568 465.839 86.3622 476.192 84.4584 487.051C84.3036 487.867 85.5725 488.229 85.7582 487.413L85.8511 487.474Z" fill="#202C43"/>
<path d="M84.9844 486.809C73.0073 489.831 60.8137 489.831 48.651 491.221C47.5368 491.221 47.4749 492.944 48.651 492.944C61.0442 492.896 73.369 491.147 85.2629 487.746C85.3901 487.709 85.4975 487.625 85.5613 487.512C85.6252 487.399 85.6403 487.265 85.6034 487.141C85.5664 487.017 85.4804 486.912 85.3643 486.85C85.2482 486.787 85.1116 486.773 84.9844 486.809Z" fill="#202C43"/>
<path d="M641.127 710.147L924.553 710.147C930.731 710.261 936.704 707.976 941.16 703.795C945.615 699.613 948.191 693.877 948.321 687.844L948.321 233.007C948.261 230.018 947.598 227.07 946.371 224.332C945.143 221.593 943.376 219.118 941.168 217.047C938.961 214.975 936.358 213.349 933.507 212.261C930.656 211.172 927.613 210.643 924.553 210.703L162.82 210.703C159.759 210.643 156.716 211.172 153.865 212.261C151.014 213.349 148.411 214.975 146.204 217.047C143.997 219.118 142.229 221.593 141.002 224.332C139.774 227.07 139.112 230.018 139.051 233.007L139.051 687.844C139.181 693.877 141.757 699.613 146.213 703.795C150.669 707.976 156.641 710.261 162.82 710.147H455.189L455.189 786.245L332.138 815.319L755.079 815.319L641.87 785.097L641.127 710.147Z" fill="#121E3A"/>
<path d="M554.658 656.866C565.025 670.768 548.808 685.97 533.984 676.238C533.489 675.927 533.059 675.527 532.715 675.06C522.378 661.158 538.564 645.956 553.389 655.657C553.871 655.997 554.298 656.404 554.658 656.866Z" fill="#3D46D2"/>
<path d="M921.272 239.656L166.131 239.656C160.542 239.656 156.011 244.08 156.011 249.538L156.011 631.057C156.011 636.515 160.542 640.94 166.131 640.94L921.272 640.94C926.861 640.94 931.392 636.515 931.392 631.057L931.392 249.538C931.392 244.08 926.861 239.656 921.272 239.656Z" fill="#D7D8EA"/>
<path d="M931.392 269.061L156.011 269.061L156.011 640.94L931.392 640.94L931.392 269.061Z" fill="white"/>
<path d="M214.72 255.159C214.757 256.272 214.453 257.371 213.847 258.314C213.241 259.256 212.36 260.001 211.318 260.452C210.275 260.903 209.119 261.04 207.996 260.846C206.874 260.651 205.836 260.133 205.017 259.359C204.197 258.585 203.633 257.589 203.397 256.5C203.16 255.411 203.262 254.277 203.69 253.245C204.117 252.213 204.85 251.329 205.796 250.706C206.741 250.083 207.855 249.75 208.995 249.75C209.735 249.738 210.469 249.868 211.158 250.134C211.846 250.399 212.473 250.794 213.005 251.296C213.537 251.799 213.962 252.399 214.256 253.061C214.551 253.724 214.708 254.437 214.72 255.159Z" fill="#7A7FFB"/>
<path d="M180.058 255.159C180.095 256.274 179.79 257.373 179.183 258.317C178.575 259.26 177.693 260.005 176.648 260.455C175.604 260.906 174.446 261.041 173.323 260.843C172.199 260.646 171.162 260.126 170.343 259.348C169.525 258.571 168.964 257.573 168.731 256.481C168.498 255.39 168.604 254.256 169.036 253.224C169.469 252.192 170.207 251.31 171.156 250.691C172.105 250.072 173.222 249.744 174.364 249.75C175.102 249.738 175.835 249.868 176.522 250.134C177.208 250.4 177.834 250.796 178.363 251.298C178.892 251.801 179.314 252.401 179.605 253.064C179.896 253.726 180.05 254.439 180.058 255.159Z" fill="#7A7FFB"/>
<path d="M196.708 255.159C196.745 256.272 196.441 257.371 195.835 258.314C195.229 259.256 194.348 260.001 193.305 260.452C192.263 260.903 191.107 261.04 189.984 260.846C188.861 260.651 187.824 260.133 187.005 259.359C186.185 258.585 185.621 257.589 185.385 256.5C185.148 255.411 185.25 254.277 185.678 253.245C186.105 252.213 186.838 251.329 187.783 250.706C188.729 250.083 189.843 249.75 190.983 249.75C191.722 249.738 192.457 249.868 193.145 250.134C193.833 250.399 194.461 250.794 194.993 251.296C195.525 251.799 195.95 252.399 196.244 253.061C196.538 253.724 196.696 254.437 196.708 255.159Z" fill="#7A7FFB"/>
<path d="M865.751 300.341L221.622 300.341C207.418 300.341 195.904 311.585 195.904 325.455V326.785C195.904 340.655 207.418 351.899 221.622 351.899L865.751 351.899C879.955 351.899 891.469 340.655 891.469 326.785V325.455C891.469 311.585 879.955 300.341 865.751 300.341Z" fill="#EDF1F7"/>
<path d="M857.828 283.175C859.721 285.582 860.841 288.484 861.046 291.512C861.251 294.541 860.532 297.561 858.98 300.191C857.428 302.821 855.112 304.942 852.326 306.288C849.539 307.633 846.407 308.141 843.325 307.749C840.243 307.356 837.349 306.08 835.009 304.082C832.669 302.084 830.988 299.453 830.179 296.523C829.369 293.592 829.468 290.493 830.462 287.617C831.455 284.741 833.3 282.217 835.762 280.364C837.399 279.132 839.269 278.227 841.264 277.702C843.26 277.176 845.342 277.04 847.392 277.301C849.441 277.562 851.418 278.215 853.209 279.223C855 280.231 856.569 281.574 857.828 283.175Z" stroke="#172759" stroke-miterlimit="10"/>
<path d="M854.981 304.723L862.501 314.243" stroke="#172759" stroke-linecap="round" stroke-linejoin="round"/>
<path d="M861.603 340.777L694.049 340.777L694.049 557.316H861.603V340.777Z" fill="#EDF1F7"/>
<path d="M826.57 495.18C826.57 495.452 803.73 495.664 775.536 495.664C747.342 495.664 724.502 495.452 724.502 495.18C724.502 494.908 747.342 494.697 775.536 494.697C803.73 494.697 826.57 494.908 826.57 495.18Z" fill="#4C54D2"/>
<path d="M826.57 508.508C826.57 508.78 803.73 509.022 775.536 509.022C747.342 509.022 724.502 508.78 724.502 508.508C724.502 508.236 747.342 508.024 775.536 508.024C803.73 508.024 826.57 508.206 826.57 508.508Z" fill="#4C54D2"/>
<path d="M785.687 521.866C785.687 522.138 771.977 522.349 755.079 522.349C738.181 522.349 724.502 522.138 724.502 521.866C724.502 521.594 738.181 521.352 755.079 521.352C771.977 521.352 785.687 521.594 785.687 521.866Z" fill="#4C54D2"/>
<path d="M773.029 358.88H724.502V364.894H773.029V358.88Z" fill="#7EA1F4"/>
<path d="M831.15 378.222L724.502 378.222V478.981H831.15V378.222Z" fill="#EAC689"/>
<path d="M699.403 364.471L556.576 364.471V549.035H699.403V364.471Z" fill="#EDF1F7"/>
<path d="M669.537 496.117C669.537 496.359 650.071 496.54 626.055 496.54C602.039 496.54 582.542 496.359 582.542 496.117C582.542 495.875 602.008 495.694 626.055 495.694C650.102 495.694 669.537 495.845 669.537 496.117Z" fill="#4C54D2"/>
<path d="M669.537 507.45C669.537 507.692 650.071 507.873 626.055 507.873C602.039 507.873 582.542 507.692 582.542 507.45C582.542 507.208 602.008 507.027 626.055 507.027C650.102 507.027 669.537 507.238 669.537 507.45Z" fill="#4C54D2"/>
<path d="M634.69 518.844C634.69 519.055 623.022 519.237 608.631 519.237C594.24 519.237 582.542 519.055 582.542 518.844C582.542 518.632 594.209 518.421 608.631 518.421C623.053 518.421 634.69 518.602 634.69 518.844Z" fill="#4C54D2"/>
<path d="M623.889 379.915H582.542V385.052H623.889V379.915Z" fill="#7EA1F4"/>
<path d="M673.437 396.416H582.542V482.306H673.437V396.416Z" fill="#7EA1F4"/>
<path d="M524.39 364.471L381.563 364.471L381.563 549.035H524.39V364.471Z" fill="#EDF1F7"/>
<path d="M494.525 496.117C494.525 496.359 475.058 496.54 451.042 496.54C427.026 496.54 407.529 496.359 407.529 496.117C407.529 495.875 426.995 495.694 451.042 495.694C475.089 495.694 494.525 495.845 494.525 496.117Z" fill="#4C54D2"/>
<path d="M494.525 507.45C494.525 507.692 475.058 507.873 451.042 507.873C427.026 507.873 407.529 507.692 407.529 507.45C407.529 507.208 426.995 507.027 451.042 507.027C475.089 507.027 494.525 507.238 494.525 507.45Z" fill="#4C54D2"/>
<path d="M459.677 518.844C459.677 519.055 448.009 519.237 433.618 519.237C419.227 519.237 407.529 519.055 407.529 518.844C407.529 518.632 419.196 518.421 433.618 518.421C448.04 518.421 459.677 518.602 459.677 518.844Z" fill="#4C54D2"/>
<path d="M448.876 379.915H407.529V385.052H448.876V379.915Z" fill="#7EA1F4"/>
<path d="M498.424 396.416H407.529V482.306H498.424V396.416Z" fill="#5665C7"/>
<path d="M349.377 364.471L206.55 364.471L206.55 549.035H349.377L349.377 364.471Z" fill="#EDF1F7"/>
<path d="M319.512 496.117C319.512 496.359 300.045 496.54 276.029 496.54C252.013 496.54 232.516 496.359 232.516 496.117C232.516 495.875 251.982 495.694 276.029 495.694C300.076 495.694 319.512 495.845 319.512 496.117Z" fill="#4C54D2"/>
<path d="M319.512 507.45C319.512 507.692 300.045 507.873 276.029 507.873C252.013 507.873 232.516 507.692 232.516 507.45C232.516 507.208 251.982 507.027 276.029 507.027C300.076 507.027 319.512 507.238 319.512 507.45Z" fill="#4C54D2"/>
<path d="M284.664 518.844C284.664 519.055 272.996 519.237 258.605 519.237C244.214 519.237 232.516 519.055 232.516 518.844C232.516 518.632 244.183 518.421 258.605 518.421C273.027 518.421 284.664 518.602 284.664 518.844Z" fill="#4C54D2"/>
<path d="M273.863 379.915H232.516V385.052H273.863V379.915Z" fill="#7EA1F4"/>
<path d="M323.411 396.416H232.516L232.516 482.306H323.411V396.416Z" fill="#9DE3BD"/>
<path d="M871.94 571.641L208.995 571.641L208.995 642.421L871.94 642.421V571.641Z" fill="#EDF1F7"/>
<path d="M834.214 615.614C834.214 615.916 700.579 616.279 535.779 616.46C370.979 616.642 237.312 616.46 237.312 616.309C237.312 616.158 370.917 615.674 535.779 615.463C700.641 615.251 834.214 615.342 834.214 615.614Z" fill="#4C54D2"/>
<path d="M834.214 600.896C834.214 601.168 700.579 601.53 535.779 601.742C370.979 601.953 237.312 601.742 237.312 601.591C237.312 601.44 370.917 600.926 535.779 600.745C700.641 600.563 834.214 600.624 834.214 600.896Z" fill="#4C54D2"/>
<path d="M942.782 834.056C942.322 840.018 941.526 845.951 940.399 851.827L902.703 852.401C903.075 851.494 905.798 848.865 915.083 848.623L916.816 834.056H942.782Z" fill="#38234A"/>
<path d="M1006.26 834.056C1005.8 840.018 1005 845.951 1003.87 851.827L966.209 852.401C966.55 851.494 969.304 848.865 978.589 848.623L980.322 834.056H1006.26Z" fill="#38234A"/>
<path d="M1024.89 582.914C1024.89 582.914 1021.79 656.141 1019.78 698.149C1017.77 740.157 1008.86 838.136 1008.86 838.136H976.762C976.762 838.136 974.07 641.423 972.646 641.181C971.223 640.94 963.795 696.215 958.317 717.521C952.839 738.828 945.35 841.43 943.307 840.856C941.265 840.282 913.473 840.856 913.473 840.856C913.473 840.856 911.306 756.235 915.02 722.992C918.734 689.748 935.787 583.095 935.787 583.095L1024.89 582.914Z" fill="#7EA1F4"/>
<g opacity="0.2">
<path d="M973.544 640.939C957.637 642.39 967.85 603.646 970.45 596.211C970.515 595.987 970.669 595.797 970.878 595.684C971.087 595.57 971.334 595.543 971.564 595.607C971.793 595.671 971.988 595.822 972.104 596.026C972.22 596.23 972.248 596.47 972.183 596.695C971.316 602.195 961.908 639.519 973.668 639.761C973.805 639.791 973.927 639.866 974.015 639.973C974.102 640.08 974.15 640.213 974.15 640.35C974.15 640.487 974.102 640.62 974.015 640.727C973.927 640.834 973.805 640.909 973.668 640.939H973.544Z" fill="#260610"/>
</g>
<g opacity="0.39">
<path d="M980.043 595.395C978.372 610.023 975.834 624.559 973.575 639.096C973.575 639.731 972.492 639.459 972.585 638.824C974.813 624.317 976.794 609.751 979.641 595.335C979.641 595.093 980.074 595.153 980.043 595.335V595.395Z" fill="#260610"/>
</g>
<g opacity="0.2">
<path d="M952.901 599.174C951.284 603.712 948.318 607.678 944.382 610.563C940.446 613.448 935.719 615.123 930.804 615.372C929.505 615.372 929.505 613.468 930.804 613.378C935.381 613.121 939.795 611.63 943.554 609.068C947.313 606.507 950.271 602.977 952.097 598.871C952.283 598.418 953.056 598.871 952.901 599.234V599.174Z" fill="#260610"/>
</g>
<g opacity="0.2">
<path d="M1023.59 622.021C1011.55 621.296 1000.31 612.018 995.579 601.531C995.115 600.503 996.601 599.627 997.127 600.654C1002.82 611.836 1011.8 617.427 1023.74 620.903C1024.33 621.084 1024.27 622.051 1023.74 622.021H1023.59Z" fill="#260610"/>
</g>
<g opacity="0.2">
<path d="M1017.74 622.414C1017.88 693.845 1014.22 765.235 1006.75 836.293C1006.75 837.471 1004.77 837.471 1004.89 836.293C1012.54 765.242 1015.82 693.858 1017.27 622.414C1017.27 622.35 1017.3 622.288 1017.35 622.243C1017.39 622.197 1017.46 622.172 1017.52 622.172C1017.59 622.172 1017.65 622.197 1017.7 622.243C1017.74 622.288 1017.77 622.35 1017.77 622.414H1017.74Z" fill="#260610"/>
</g>
<g opacity="0.2">
<path d="M971.749 639.157C955.687 706.158 943.493 772.283 942.936 841.37C942.936 841.619 942.835 841.857 942.655 842.033C942.475 842.208 942.231 842.307 941.976 842.307C941.722 842.307 941.478 842.208 941.298 842.033C941.118 841.857 941.017 841.619 941.017 841.37C941.976 773.734 949.714 703.62 971.192 639.036C971.192 638.964 971.221 638.895 971.273 638.844C971.326 638.793 971.396 638.764 971.47 638.764C971.544 638.764 971.615 638.793 971.667 638.844C971.719 638.895 971.749 638.964 971.749 639.036V639.157Z" fill="#260610"/>
</g>
<path d="M915.516 503.34C915.516 503.34 905.89 564.388 907.5 572.427C908.057 575.268 934.704 584.516 936.808 565.869C938.913 547.222 939.532 500.59 939.532 500.59L915.516 503.34Z" fill="#8C523E"/>
<path d="M1043.89 456.828C1043.89 456.828 1022.47 430.173 997.962 427.12H961.691C961.691 427.12 935.137 430.959 920.746 450.996L932.073 491.1L932.661 588.807L1026.84 592.826L1020.28 489.619L1043.89 456.828Z" fill="#9DE3BD"/>
<path d="M923.593 447.279C912.353 461.301 905.132 477.989 902.672 495.634L932.135 510.745C932.135 510.745 938.356 446.04 923.593 447.279Z" fill="#9DE3BD"/>
<path d="M932.258 483.635C934.487 518.421 934.796 553.599 934.92 588.444C934.92 588.685 934.822 588.915 934.648 589.085C934.474 589.255 934.238 589.351 933.992 589.351C933.745 589.351 933.509 589.255 933.335 589.085C933.161 588.915 933.063 588.685 933.063 588.444C931.763 553.629 930.587 518.481 931.361 483.635C931.387 483.539 931.446 483.453 931.527 483.392C931.608 483.331 931.707 483.298 931.81 483.298C931.912 483.298 932.012 483.331 932.093 483.392C932.174 483.453 932.232 483.539 932.258 483.635Z" fill="#80C19C"/>
<path d="M1007.34 486.174V502.464L996.724 507.088L987.904 501.497V486.174H1007.34Z" fill="#80C19C"/>
<path d="M932.29 511.228C921.799 507.752 911.988 501.376 902.116 496.51C900.847 495.905 902.115 494.092 903.23 494.697C913.394 499.266 923.227 504.506 932.662 510.382C933.064 510.654 932.662 511.409 932.29 511.228Z" fill="#80C19C"/>
<path d="M926.843 550.093C920.437 539.757 916.908 526.641 913.628 515.066C913.587 514.918 913.608 514.76 913.686 514.627C913.765 514.493 913.894 514.396 914.046 514.356C914.198 514.316 914.36 514.336 914.496 514.413C914.632 514.489 914.732 514.616 914.773 514.764C918.889 526.339 924.646 537.884 927.864 549.7C927.891 549.826 927.871 549.956 927.809 550.069C927.746 550.182 927.645 550.269 927.523 550.316C927.401 550.363 927.266 550.367 927.141 550.326C927.017 550.285 926.911 550.203 926.843 550.093Z" fill="#D88773"/>
<path d="M997.684 389.978L996.013 435.613C987.285 441.053 977.289 441.657 965.374 435.613V390.643L997.684 389.978Z" fill="#8C523E"/>
<path d="M940.77 346.882C940.77 346.882 940.522 389.193 941.76 399.619C942.285 405.266 944.924 410.525 949.173 414.389C953.421 418.254 958.981 420.452 964.786 420.563C977.66 420.321 992.237 415.969 996.136 403.487C1000.04 391.006 995.208 347.033 995.208 347.033L940.77 346.882Z" fill="#8C523E"/>
<path d="M989.761 410.076C986.817 413.897 982.926 416.925 978.454 418.876C973.983 420.826 969.077 421.636 964.198 421.227C964.069 421.198 963.953 421.127 963.871 421.025C963.789 420.924 963.744 420.798 963.744 420.668C963.744 420.539 963.789 420.413 963.871 420.312C963.953 420.21 964.069 420.139 964.198 420.109C968.928 420.297 973.643 419.481 978.019 417.718C982.395 415.954 986.327 413.285 989.545 409.894C989.545 409.894 989.885 409.894 989.761 410.076Z" fill="#D88773"/>
<path d="M961.072 377.829C961.738 380.09 961.738 382.489 961.072 384.75C960.629 385.786 960.122 386.795 959.555 387.772C958.707 389.1 958.381 390.683 958.637 392.228C958.893 393.773 959.714 395.175 960.948 396.174C961.505 396.808 960.577 397.745 959.989 397.111C958.95 396.215 958.146 395.088 957.645 393.826C957.145 392.564 956.961 391.203 957.11 389.857C957.524 388.78 958.086 387.764 958.782 386.835C960.442 384.243 961.019 381.127 960.391 378.131C960.391 377.588 961.103 377.376 961.226 377.89L961.072 377.829Z" fill="#0C112C"/>
<path d="M971.997 400.768C970.765 402.656 968.925 404.092 966.767 404.847C965.955 405.12 965.072 405.103 964.272 404.798C963.473 404.494 962.811 403.922 962.403 403.185C962.186 402.732 962.805 402.43 963.176 402.611C963.855 403.074 964.644 403.359 965.468 403.438C966.292 403.518 967.123 403.389 967.881 403.064C969.23 402.303 970.401 401.274 971.316 400.042C971.718 399.589 972.399 400.254 971.997 400.707V400.768Z" fill="#0C112C"/>
<path d="M949.311 379.129C949.082 379.089 948.875 378.972 948.726 378.798C948.577 378.624 948.495 378.404 948.495 378.177C948.495 377.95 948.577 377.73 948.726 377.556C948.875 377.382 949.082 377.265 949.311 377.225C949.54 377.265 949.747 377.382 949.896 377.556C950.045 377.73 950.127 377.95 950.127 378.177C950.127 378.404 950.045 378.624 949.896 378.798C949.747 378.972 949.54 379.089 949.311 379.129Z" fill="#0C112C"/>
<path d="M974.07 379.189C973.841 379.149 973.634 379.032 973.485 378.858C973.336 378.684 973.254 378.464 973.254 378.237C973.254 378.01 973.336 377.79 973.485 377.616C973.634 377.442 973.841 377.325 974.07 377.285C974.299 377.325 974.506 377.442 974.655 377.616C974.804 377.79 974.886 378.01 974.886 378.237C974.886 378.464 974.804 378.684 974.655 378.858C974.506 379.032 974.299 379.149 974.07 379.189Z" fill="#0C112C"/>
<g opacity="0.22">
<path d="M971.625 389.585C971.378 392.124 974.442 394.481 978.465 394.512C982.488 394.542 985.583 392.245 985.397 389.706C985.212 387.168 982.117 385.294 978.558 385.264C974.999 385.234 971.873 387.017 971.625 389.585Z" fill="#D88773"/>
</g>
<g opacity="0.22">
<path d="M942.534 389.434C942.456 390.049 942.522 390.672 942.725 391.258C942.929 391.844 943.265 392.378 943.71 392.819C944.713 393.795 946.069 394.349 947.485 394.36C948.183 394.383 948.878 394.267 949.527 394.017C950.176 393.768 950.767 393.391 951.261 392.91C951.718 392.479 952.071 391.955 952.296 391.375C952.521 390.795 952.611 390.173 952.561 389.555C952.429 388.331 951.833 387.199 950.89 386.382C949.995 385.577 948.826 385.125 947.609 385.113C946.385 385.091 945.195 385.511 944.267 386.291C943.316 387.098 942.7 388.215 942.534 389.434Z" fill="#D88773"/>
</g>
<path d="M1002.26 360.422C1001.97 356.739 1000.91 353.152 999.17 349.874C998.984 349.391 998.767 348.786 998.458 348.121C998.148 347.456 997.839 346.701 997.375 345.885C996.91 345.069 996.477 344.162 995.889 343.225C995.301 342.289 994.651 341.352 993.939 340.354C992.366 338.187 990.595 336.164 988.647 334.31C986.673 332.493 984.551 330.835 982.303 329.354C981.25 328.689 980.26 328.054 979.208 327.54C978.155 327.027 977.32 326.573 976.453 326.18C975.587 325.787 974.813 325.485 974.101 325.213C973.518 324.972 972.918 324.77 972.306 324.609C971.794 324.416 971.266 324.264 970.728 324.156C971.207 324.415 971.716 324.618 972.244 324.76L974.008 325.485C974.689 325.787 975.463 326.059 976.299 326.513C977.134 326.966 978.063 327.359 978.991 327.903C979.92 328.447 980.941 329.051 982.086 329.716C984.289 331.194 986.36 332.852 988.276 334.673C990.21 336.539 991.98 338.561 993.568 340.717C994.28 341.714 994.992 342.651 995.549 343.558C996.106 344.465 996.632 345.341 997.065 346.157L997.375 346.731C992.217 337.884 983.998 331.123 974.194 327.661C971.935 326.875 968.005 324.639 965.962 327.147C964.848 328.568 964.91 332.255 967.231 332.859C964.273 331.863 961.388 330.672 958.596 329.293C955.77 327.753 952.447 327.331 949.312 328.115C946.217 329.112 944.019 333.857 947.702 336.305C946.119 336.106 944.511 336.209 942.967 336.607C941.419 336.868 939.918 337.347 938.511 338.027C936.83 338.86 935.376 340.072 934.271 341.563C933.122 343.073 932.602 344.952 932.816 346.822C933.09 348.543 933.888 350.144 935.106 351.415C936.185 352.552 937.477 353.475 938.913 354.135C940.17 354.668 941.49 355.044 942.843 355.254L944.236 355.435C949.786 356.523 955.472 356.788 961.103 356.221C968.787 355.57 976.518 355.631 984.191 356.402C987.389 356.68 990.362 358.126 992.516 360.452C992.863 360.9 993.154 361.387 993.382 361.902L994.744 383.662L1002.23 379.038V371.996C1002.8 368.159 1002.81 364.262 1002.26 360.422ZM939.191 353.773C937.806 353.131 936.565 352.227 935.54 351.113C934.408 349.909 933.665 348.406 933.404 346.792C933.205 345.041 933.692 343.281 934.766 341.865C935.827 340.423 937.228 339.252 938.851 338.45C937.384 339.396 936.292 340.804 935.756 342.44C935.224 344.358 935.287 346.387 935.937 348.27C936.587 350.153 937.795 351.805 939.408 353.017V353.259C940.382 353.902 941.418 354.449 942.503 354.891C941.359 354.644 940.247 354.269 939.191 353.773Z" fill="#51332A"/>
<path d="M996.601 374.716C996.601 374.716 1010.09 371.694 1010.47 384.931C1010.84 398.168 996.601 397.776 996.601 397.776V374.716Z" fill="#8C523E"/>
<path d="M1002.2 380.972C1003.38 381.378 1004.37 382.185 1004.99 383.245C1005.61 384.305 1005.82 385.547 1005.58 386.745C1005.17 388.89 1003.1 391.429 1000.65 391.066C1000.47 391.011 1000.3 390.91 1000.16 390.772C1000.03 390.634 999.929 390.465 999.879 390.28C999.829 390.095 999.829 389.901 999.878 389.716C999.927 389.531 1000.02 389.361 1000.16 389.223C1001.18 388.226 1002.48 388.044 1002.98 386.503C1003.14 385.722 1003.08 384.914 1002.8 384.164C1002.53 383.414 1002.06 382.75 1001.43 382.242C1000.9 381.728 1001.43 380.7 1002.2 380.972Z" fill="#D88773"/>
<path d="M907.5 572.427L892.985 512.316L910.595 507.269L932.445 562.877C931.083 571.067 907.5 572.427 907.5 572.427Z" fill="#8C523E"/>
<path d="M911.09 508.387C911.09 508.387 906.665 498.746 906.355 497.87C906.046 496.993 912.545 489.438 910.502 489.377C908.46 489.317 904.313 493.276 904.313 493.276C904.313 493.276 900.073 479.979 898.123 481.369C896.173 482.759 899.237 489.74 899.237 489.74C899.237 489.74 894.285 478.77 892.862 480.19C891.438 481.611 895.956 490.254 895.956 490.254C895.956 490.254 891.407 482.578 889.333 482.336C887.26 482.094 892.428 491.584 892.428 491.584C892.428 491.584 886.919 484.391 885.651 484.542C884.382 484.693 893.047 513.676 893.047 513.676L911.09 508.387Z" fill="#8C523E"/>
<mask id="mask0_11_122" style="mask-type:luminance" maskUnits="userSpaceOnUse" x="761" y="339" width="176" height="172">
<path d="M912.39 366.345C924.28 378.589 932.184 394.001 935.103 410.633C938.023 427.264 935.827 444.367 928.793 459.779C921.758 475.191 910.202 488.221 895.585 497.219C880.968 506.218 863.946 510.782 846.673 510.334C829.399 509.886 812.65 504.446 798.542 494.702C784.435 484.959 773.603 471.349 767.417 455.594C761.23 439.838 759.967 422.646 763.786 406.189C767.606 389.733 776.337 374.752 788.875 363.141C797.2 355.432 806.999 349.399 817.712 345.388C828.425 341.376 839.842 339.465 851.312 339.762C862.781 340.06 874.079 342.56 884.558 347.121C895.038 351.683 904.495 358.215 912.39 366.345Z" fill="white"/>
</mask>
<g mask="url(#mask0_11_122)">
<path d="M957.58 324.149L718.878 309.075L698.449 617.569L937.151 632.643L957.58 324.149Z" fill="#EDF1F7"/>
<path d="M829.665 341.949L760.547 337.585L759.979 346.15L829.098 350.514L829.665 341.949Z" fill="#7EA1F4"/>
<path d="M910.678 374.762L758.729 365.166L749.223 508.722L901.172 518.317L910.678 374.762Z" fill="#EAC689"/>
<path opacity="0.42" d="M886.827 347.396L781.169 475.868C781.169 475.868 781.819 487.594 806.237 499.623L907.129 359.364L886.827 347.396Z" fill="white"/>
<path opacity="0.42" d="M918.487 375.321L825.889 505.969L832.822 507.42L920.963 379.854L916.475 372.51" fill="white"/>
</g>
<path d="M912.39 366.345C924.28 378.589 932.184 394.001 935.103 410.633C938.023 427.264 935.827 444.367 928.793 459.779C921.758 475.191 910.202 488.221 895.585 497.219C880.968 506.218 863.946 510.782 846.673 510.334C829.399 509.886 812.65 504.446 798.542 494.702C784.435 484.959 773.603 471.349 767.417 455.594C761.23 439.838 759.967 422.646 763.786 406.189C767.606 389.733 776.337 374.752 788.875 363.141C797.2 355.432 806.999 349.399 817.712 345.388C828.425 341.376 839.842 339.465 851.312 339.762C862.781 340.06 874.079 342.56 884.558 347.121C895.038 351.683 904.495 358.215 912.39 366.345Z" stroke="#172759" stroke-width="5" stroke-linecap="round" stroke-linejoin="round"/>
<path d="M909.171 486.929L1009.07 589.744" stroke="#172759" stroke-width="5" stroke-linecap="round" stroke-linejoin="round"/>
<path d="M1042.74 455.529C1042.74 455.529 1054.13 473.511 1053.7 504.428C1053.7 504.428 1017.58 514.159 1017.71 512.255C1017.83 510.351 1020.25 474.055 1020.25 474.055C1020.25 474.055 1025.23 438.696 1042.74 455.529Z" fill="#9DE3BD"/>
<path d="M1054.54 503.763C1043.14 507.229 1031.56 510.094 1019.84 512.346C1018.48 512.648 1018.08 510.623 1019.41 510.291C1030.85 507.174 1042.47 504.681 1054.2 502.826C1054.72 502.826 1055.12 503.551 1054.54 503.763Z" fill="#80C19C"/>
<path d="M1022.01 487.504C1022.02 496.525 1021.35 505.534 1020.03 514.462C1019.84 515.489 1018.2 515.429 1018.33 514.462C1019.35 505.546 1020.71 496.54 1021.14 487.564C1021.14 487.02 1022.01 487.081 1022.01 487.564V487.504Z" fill="#80C19C"/>
<path d="M1026.5 571.369C1020.12 570.13 975.339 549.761 975.339 549.761L983.293 532.625C983.293 532.625 1015.2 545.681 1015.63 544.109C1016.22 542.054 1021.55 508.296 1021.82 511.802L1053.64 504.428C1053.64 504.428 1047.98 559.764 1035.84 569.767C1035.97 569.767 1033.21 572.699 1026.5 571.369Z" fill="#8C523E"/>
<path d="M989.235 534.831C989.235 534.831 978.372 531.325 977.505 530.872C976.639 530.419 975.896 520.204 974.41 521.503C972.925 522.803 972.677 528.787 972.677 528.787C972.677 528.787 959.617 521.745 959.308 524.072C958.998 526.399 966.333 529.603 966.333 529.603C966.333 529.603 954.449 524.797 954.449 526.883C954.449 528.968 964.352 532.172 964.352 532.172C964.352 532.172 955.253 529.633 953.489 530.902C951.725 532.172 962.774 535.708 962.774 535.708C962.774 535.708 953.304 534.196 952.437 535.194C951.571 536.191 979.61 551.967 979.61 551.967L989.235 534.831Z" fill="#8C523E"/>
<defs>
<linearGradient id="paint0_linear_11_122" x1="386.174" y1="21.4245" x2="428.914" y2="21.4245" gradientUnits="userSpaceOnUse">
<stop stop-color="#AEF6BF"/>
<stop offset="1" stop-color="#8ED3BB"/>
</linearGradient>
<linearGradient id="paint1_linear_11_122" x1="1024.42" y1="277.16" x2="1047.02" y2="277.16" gradientUnits="userSpaceOnUse">
<stop stop-color="#AEF6BF"/>
<stop offset="1" stop-color="#8ED3BB"/>
</linearGradient>
</defs>
</svg>
