<svg width="405" height="371" viewBox="0 0 405 371" fill="none" xmlns="http://www.w3.org/2000/svg">
<path d="M368.661 96.8681L334.785 169.453L277.398 157.529L280.347 148.453L327.959 159.067L358.174 96.6532C358.478 96.0125 358.938 95.4589 359.513 95.0437C361.039 93.9355 364.228 92.2923 367.839 94.399C368.261 94.6325 368.579 95.0159 368.732 95.4733C368.884 95.9306 368.858 96.4285 368.661 96.8681Z" fill="#4469C6"/>
<path d="M191.831 371H301.65V205.256H191.831V371Z" fill="#9CB4D8"/>
<path d="M296.177 272.468L291.724 285.681C291.724 285.681 298.549 293.75 298.225 302.986C298.225 302.986 270.501 289.503 270.863 287.257C271.225 285.011 280.68 264.167 280.68 264.167L296.177 272.468Z" fill="black"/>
<path d="M366.893 255.511L375 266.858C375 266.858 385.533 266.049 392.827 271.72C392.827 271.72 365.675 286.311 364.057 284.689C362.439 283.067 351.088 263.2 351.088 263.2L366.893 255.511Z" fill="black"/>
<path d="M331.234 176.886C333.075 173.296 377.746 251.509 377.029 253.073L343.394 270.095L320.7 233.215L331.234 176.886Z" fill="white" stroke="black" stroke-width="1.92" stroke-miterlimit="10"/>
<path d="M273.179 154.962C273.179 154.962 341.896 161.089 337.986 190.465C337.986 190.465 340.059 212.551 305.66 277.594L270.862 265.641L299.631 205.663L214.33 204.331C214.33 204.331 184.175 194.611 193.684 154.141L233.177 145.659L273.179 154.962Z" fill="white" stroke="black" stroke-width="1.92" stroke-miterlimit="10"/>
<path d="M229.115 83.2808C229.115 83.2808 227.089 95.0321 225.062 97.0587C223.035 99.0854 216.555 99.0854 216.555 99.0854L204.804 89.7653L213.311 77.2051L229.115 83.2808Z" fill="white" stroke="black" stroke-width="0.96" stroke-miterlimit="10"/>
<path d="M233.381 83.8046C244.764 80.8947 251.633 69.3079 248.723 57.9249C245.813 46.5419 234.226 39.6731 222.843 42.5831C211.46 45.4931 204.591 57.0798 207.501 68.4628C210.411 79.8458 221.998 86.7146 233.381 83.8046Z" fill="white"/>
<path d="M228.104 42.1508C232.27 42.1508 236.343 43.3864 239.808 45.7013C243.272 48.0162 245.973 51.3064 247.567 55.1559C249.162 59.0054 249.579 63.2413 248.766 67.3279C247.953 71.4146 245.947 75.1684 243 78.1147C240.054 81.0609 236.3 83.0674 232.214 83.8803C228.127 84.6931 223.891 84.276 220.042 82.6814C216.192 81.0869 212.902 78.3867 210.587 74.9222C208.272 71.4577 207.037 67.3846 207.037 63.218C207.044 57.633 209.266 52.279 213.216 48.3299C217.165 44.3807 222.519 42.1586 228.104 42.1508ZM228.104 41.7295C223.854 41.7295 219.699 42.9898 216.165 45.3509C212.632 47.7121 209.877 51.0682 208.251 54.9947C206.625 58.9212 206.199 63.2418 207.028 67.4101C207.857 71.5785 209.904 75.4074 212.909 78.4126C215.914 81.4178 219.743 83.4644 223.912 84.2935C228.08 85.1226 232.4 84.6971 236.327 83.0707C240.253 81.4443 243.61 78.6901 245.971 75.1563C248.332 71.6226 249.592 67.468 249.592 63.218C249.592 57.5189 247.328 52.0532 243.298 48.0233C239.268 43.9935 233.803 41.7295 228.104 41.7295Z" fill="black"/>
<path d="M307.009 150.761C308.732 151.469 309.874 155.556 311.311 156.946C312.748 158.337 314.833 157.186 312.664 153.972M306.836 155.113C309.006 158.324 307.439 159.807 305.77 158.699C305.033 158.21 304.085 156.757 303.268 155.328C302.606 154.165 301.689 153.168 300.587 152.41C299.484 151.653 298.224 151.155 296.901 150.955C291.723 150.184 281.977 149.986 266.211 154.14C240.509 160.907 224.283 160.292 219.661 134.27L237.18 129.782C237.382 130.271 240.462 143.244 240.462 143.244C240.462 143.244 287.943 137.792 295.022 137.792C302.349 137.792 313.805 147.904 315.213 153.302C315.478 154.321 315.52 156.849 312.664 153.955C311.909 153.192 311.223 151.262 309.091 149.59M309.811 154.709C311.981 157.919 310.468 159.318 308.745 158.29C307.11 157.321 306.853 153.095 304.38 151.275" fill="#FCFCFC"/>
<path d="M307.009 150.761C308.732 151.469 309.874 155.556 311.311 156.946C312.748 158.337 314.833 157.186 312.664 153.972M306.836 155.113C309.006 158.324 307.439 159.807 305.77 158.699C305.033 158.21 304.085 156.757 303.268 155.328C302.606 154.165 301.689 153.168 300.587 152.41C299.484 151.653 298.224 151.155 296.901 150.955C291.723 150.184 281.977 149.986 266.211 154.14C240.509 160.907 224.283 160.292 219.661 134.27L237.18 129.782C237.382 130.271 240.462 143.244 240.462 143.244C240.462 143.244 287.943 137.792 295.022 137.792C302.349 137.792 313.805 147.904 315.213 153.302C315.478 154.321 315.52 156.849 312.664 153.955C311.909 153.192 311.223 151.262 309.091 149.59M309.811 154.709C311.981 157.919 310.468 159.318 308.745 158.29C307.11 157.321 306.853 153.095 304.38 151.275" stroke="black" stroke-width="1.92" stroke-miterlimit="10"/>
<path d="M325.56 136.768C328.8 137.577 330.806 141.731 332.854 142.034C335.011 142.359 335.959 140.324 332.432 137.981M334.998 136.047C338.512 138.386 336.89 140.412 334.864 139.603C332.837 138.794 330.001 135.145 327.975 135.145M334.998 136.047C338.512 138.386 336.89 140.412 334.864 139.603C332.837 138.794 330.001 135.145 327.975 135.145M329.597 139.603C333.107 141.946 332.125 144.082 330.018 143.657C329.074 143.467 327.49 142.393 326.112 141.31C324.966 140.411 323.63 139.783 322.207 139.475C320.783 139.166 319.308 139.184 317.892 139.527C312.355 140.888 302.454 144.714 288.276 155.408C265.178 172.834 248.564 178.91 233.164 154.599L248.969 142.843C249.39 143.265 255.453 151.759 255.453 151.759C255.453 151.759 303.431 129.963 310.565 127.039C317.947 124.018 333.663 129.474 337.311 134.336C337.998 135.251 339.085 137.783 335.015 136.047C333.941 135.588 332.449 133.94 329.614 133.119" fill="white"/>
<path d="M325.56 136.768C328.8 137.577 330.806 141.731 332.854 142.034C335.011 142.359 335.959 140.324 332.432 137.981M334.998 136.047C338.512 138.386 336.89 140.412 334.864 139.603C332.837 138.794 330.001 135.145 327.975 135.145M329.597 139.603C333.107 141.946 332.125 144.082 330.018 143.657C329.074 143.467 327.49 142.393 326.112 141.31C324.966 140.411 323.63 139.783 322.207 139.475C320.783 139.166 319.308 139.184 317.892 139.527C312.355 140.888 302.454 144.714 288.276 155.408C265.178 172.834 248.564 178.91 233.164 154.599L248.969 142.843C249.39 143.265 255.453 151.759 255.453 151.759C255.453 151.759 303.431 129.963 310.565 127.039C317.947 124.018 333.663 129.474 337.311 134.336C337.998 135.251 339.085 137.783 335.015 136.047C333.941 135.588 332.449 133.94 329.614 133.119" stroke="black" stroke-width="1.92" stroke-miterlimit="10"/>
<path d="M98.0202 370.796H177.043L177.043 234.231H98.0202L98.0202 370.796Z" fill="#9CB4D8"/>
<path d="M134.601 254.651C136.77 254.651 138.528 252.893 138.528 250.724C138.528 248.555 136.77 246.797 134.601 246.797C132.432 246.797 130.674 248.555 130.674 250.724C130.674 252.893 132.432 254.651 134.601 254.651Z" fill="#E6F0FF"/>
<path d="M111.335 261.349C112.868 259.816 112.868 257.33 111.335 255.796C109.801 254.262 107.315 254.262 105.781 255.796C104.248 257.33 104.248 259.816 105.781 261.349C107.315 262.883 109.801 262.883 111.335 261.349Z" fill="#E6F0FF"/>
<path d="M129.256 277.838C131.423 277.838 133.179 276.081 133.179 273.915C133.179 271.748 131.423 269.992 129.256 269.992C127.09 269.992 125.333 271.748 125.333 273.915C125.333 276.081 127.09 277.838 129.256 277.838Z" fill="#E6F0FF"/>
<path d="M124.89 299.879C126.424 298.345 126.424 295.859 124.89 294.325C123.357 292.792 120.87 292.792 119.337 294.325C117.803 295.859 117.803 298.345 119.337 299.879C120.87 301.412 123.357 301.412 124.89 299.879Z" fill="#E6F0FF"/>
<path d="M119.189 325.925C120.722 324.391 120.722 321.905 119.189 320.371C117.655 318.838 115.169 318.838 113.635 320.371C112.102 321.905 112.102 324.391 113.635 325.925C115.169 327.458 117.655 327.458 119.189 325.925Z" fill="#E6F0FF"/>
<path d="M133.174 344.911C135.343 344.911 137.101 343.153 137.101 340.985C137.101 338.816 135.343 337.058 133.174 337.058C131.006 337.058 129.248 338.816 129.248 340.985C129.248 343.153 131.006 344.911 133.174 344.911Z" fill="#E6F0FF"/>
<path d="M117.902 352.163C118.727 350.157 117.771 347.862 115.765 347.037C113.759 346.212 111.464 347.168 110.639 349.174C109.814 351.179 110.77 353.474 112.776 354.3C114.781 355.125 117.076 354.168 117.902 352.163Z" fill="#E6F0FF"/>
<path d="M145.949 319.151C147.483 317.618 147.483 315.131 145.949 313.598C144.416 312.064 141.929 312.064 140.396 313.598C138.862 315.131 138.862 317.618 140.396 319.151C141.929 320.685 144.416 320.685 145.949 319.151Z" fill="#E6F0FF"/>
<path d="M147.09 294.606C149.258 294.606 151.016 292.848 151.016 290.679C151.016 288.51 149.258 286.752 147.09 286.752C144.921 286.752 143.163 288.51 143.163 290.679C143.163 292.848 144.921 294.606 147.09 294.606Z" fill="#E6F0FF"/>
<path d="M168.124 284.785C169.812 283.423 170.075 280.95 168.713 279.263C167.35 277.575 164.878 277.312 163.19 278.675C161.503 280.037 161.24 282.509 162.602 284.197C163.965 285.884 166.437 286.147 168.124 284.785Z" fill="#E6F0FF"/>
<path d="M168.125 313.328C169.813 311.965 170.076 309.493 168.714 307.806C167.351 306.118 164.879 305.855 163.191 307.218C161.504 308.58 161.241 311.052 162.603 312.74C163.966 314.427 166.438 314.69 168.125 313.328Z" fill="#E6F0FF"/>
<path d="M156.013 336.712C158.179 336.712 159.936 334.955 159.936 332.789C159.936 330.622 158.179 328.866 156.013 328.866C153.847 328.866 152.09 330.622 152.09 332.789C152.09 334.955 153.847 336.712 156.013 336.712Z" fill="#E6F0FF"/>
<path d="M166.611 353.738C168.71 353.19 169.967 351.045 169.419 348.946C168.871 346.848 166.726 345.591 164.628 346.139C162.529 346.686 161.272 348.831 161.82 350.93C162.368 353.028 164.513 354.285 166.611 353.738Z" fill="#E6F0FF"/>
<path d="M154.869 267.764C156.402 266.23 156.402 263.744 154.869 262.21C153.335 260.676 150.849 260.677 149.315 262.21C147.782 263.744 147.782 266.23 149.315 267.764C150.849 269.297 153.335 269.297 154.869 267.764Z" fill="#E6F0FF"/>
<path d="M159.62 54.7093C159.62 54.7093 137.332 70.5138 125.58 43.7544C113.829 16.9949 149.226 47.0661 117.44 60.9746C102.693 65.8369 97.009 46.7922 90.9291 37.0677C84.8491 27.3431 75.1245 31.4259 73.5066 47.2094C71.4504 66.0097 60.2385 55 54.226 47.5212C47.2654 38.8626 34.3218 37.805 26.2573 45.4397L25.6885 45.9959" stroke="black" stroke-width="1.92" stroke-miterlimit="10" stroke-linecap="round"/>
<path d="M1 170.407C15.747 165.545 21.4309 184.59 27.5067 194.314C33.5824 204.039 43.3112 199.99 44.9334 184.202C46.9895 165.402 58.2015 176.412 64.214 183.89C71.1746 192.549 84.114 193.611 92.1827 185.972C92.3724 185.791 92.5619 185.609 92.7516 185.42" stroke="black" stroke-width="1.92" stroke-miterlimit="10" stroke-linecap="round"/>
<path d="M162.669 97.396C178.546 103.484 192.416 105.22 201.155 95.8454L218.986 72.3387C216.959 73.5648 211.705 64.6408 216.959 62.6099C222.214 60.5791 223.444 65.8501 223.444 65.8501C234.399 67.4722 238.844 55.3165 238.844 55.3165C243.706 63.8276 249.378 62.2054 249.378 62.2054C247.224 40.1271 226.288 38.7999 212.721 44.5554C213.627 43.3368 214.12 41.8605 214.128 40.342C214.128 36.0906 210.336 32.644 205.617 32.644C200.898 32.644 197.106 36.0906 197.106 40.342C197.106 44.5933 200.898 48.0441 205.617 48.0441C205.966 48.0443 206.315 48.0232 206.662 47.9809C203.148 50.6017 200.978 53.7702 201.159 56.9597C201.446 61.9611 195.892 61.0088 195.892 61.0088C180.488 59.374 180.105 70.3121 180.105 70.3121C178.887 78.8232 173.62 79.2277 173.62 79.2277C163.782 81.5156 160.331 86.5169 159.193 90.4396C158.8 91.8238 158.938 93.3051 159.582 94.5923C160.225 95.8796 161.326 96.8796 162.669 97.396Z" fill="black"/>
<path d="M226.662 95.8383C226.986 95.8046 227.328 103.92 227.45 107.122C227.463 107.523 227.559 107.917 227.732 108.28C227.905 108.642 228.15 108.965 228.453 109.229C232.16 112.469 245.728 124.945 252.469 139.43C252.746 140.05 252.801 140.746 252.625 141.402C252.448 142.058 252.051 142.632 251.5 143.029L232.687 156.512C232.211 156.854 231.643 157.046 231.056 157.064L178.886 158.547C178.445 158.555 178.008 158.465 177.606 158.282C177.205 158.099 176.849 157.828 176.566 157.49C176.283 157.152 176.08 156.754 175.971 156.327C175.862 155.899 175.85 155.453 175.937 155.02C178.144 144.314 185.686 112.49 200.585 94.431C200.704 94.287 200.808 94.1318 200.897 93.9675L202.616 90.7737C202.986 90.0904 203.612 89.581 204.356 89.3561C205.1 89.1312 205.902 89.2092 206.589 89.5729C211.034 91.9619 220.363 96.4366 226.662 95.8383Z" fill="black"/>
<path d="M202.774 99.082V107.294" stroke="white" stroke-width="4.81" stroke-miterlimit="10" stroke-linecap="round"/>
<path d="M222.283 107.24H214.071" stroke="white" stroke-width="4.81" stroke-miterlimit="10" stroke-linecap="round"/>
<path d="M201.429 119.389L207.374 113.726" stroke="white" stroke-width="4.81" stroke-miterlimit="10" stroke-linecap="round"/>
<path d="M220.142 117.739L219.442 125.918" stroke="white" stroke-width="4.81" stroke-miterlimit="10" stroke-linecap="round"/>
<path d="M229.502 117.966L236.842 121.644" stroke="white" stroke-width="4.81" stroke-miterlimit="10" stroke-linecap="round"/>
<path d="M234.013 132.788L242.052 131.127" stroke="white" stroke-width="4.81" stroke-miterlimit="10" stroke-linecap="round"/>
<path d="M229.178 142.792L233.909 149.504" stroke="white" stroke-width="4.81" stroke-miterlimit="10" stroke-linecap="round"/>
<path d="M207.212 95.2681L214.552 98.9464" stroke="white" stroke-width="4.81" stroke-miterlimit="10" stroke-linecap="round"/>
<path d="M189.476 123.261L195.012 129.324" stroke="white" stroke-width="4.81" stroke-miterlimit="10" stroke-linecap="round"/>
<path d="M203.96 128.718L212.134 127.913" stroke="white" stroke-width="4.81" stroke-miterlimit="10" stroke-linecap="round"/>
<path d="M212.771 134.889L219.526 139.562" stroke="white" stroke-width="4.81" stroke-miterlimit="10" stroke-linecap="round"/>
<path d="M188.457 136.11L195.207 140.787" stroke="white" stroke-width="4.81" stroke-miterlimit="10" stroke-linecap="round"/>
<path d="M183.02 140.83L182.81 149.038" stroke="white" stroke-width="4.81" stroke-miterlimit="10" stroke-linecap="round"/>
<path d="M199.176 149.528L190.973 149.237" stroke="white" stroke-width="4.81" stroke-miterlimit="10" stroke-linecap="round"/>
<path d="M215.219 152.367L210.592 145.588" stroke="white" stroke-width="4.81" stroke-miterlimit="10" stroke-linecap="round"/>
<path d="M219.59 65.4248C218.397 67.1102 219.093 68.7071 220.816 69.5666C220.879 69.5802 220.939 69.6082 220.99 69.6485C221.041 69.6888 221.081 69.7404 221.109 69.7991C221.137 69.8578 221.15 69.9221 221.149 69.987C221.148 70.0519 221.132 70.1156 221.102 70.1732C221.072 70.2308 221.029 70.2806 220.976 70.3189C220.924 70.3572 220.863 70.3829 220.8 70.3939C220.736 70.4049 220.67 70.401 220.608 70.3825C220.546 70.364 220.488 70.3313 220.441 70.2871C218.671 69.0778 217.989 67.0975 219.598 65.4248H219.59Z" fill="black"/>
<path d="M234.99 83.2757C232.12 83.1493 229.348 81.2912 228.669 78.4219C228.669 78.4129 228.673 78.4044 228.679 78.3981C228.686 78.3917 228.694 78.3882 228.703 78.3882C228.712 78.3882 228.721 78.3917 228.727 78.3981C228.733 78.4044 228.737 78.4129 228.737 78.4219C229.491 81.1606 232.234 82.8797 234.998 82.8881C235.054 82.8881 235.107 82.9103 235.147 82.9498C235.186 82.9893 235.209 83.0429 235.209 83.0988C235.209 83.1547 235.186 83.2082 235.147 83.2477C235.107 83.2872 235.054 83.3095 234.998 83.3095L234.99 83.2757Z" fill="black"/>
<path d="M398.51 205.045C401.53 205.045 403.979 202.597 403.979 199.576C403.979 196.556 401.53 194.107 398.51 194.107C395.489 194.107 393.041 196.556 393.041 199.576C393.041 202.597 395.489 205.045 398.51 205.045Z" stroke="black" stroke-width="1.85" stroke-miterlimit="10" stroke-linecap="round"/>
<path d="M30.9558 19.4532C33.9763 19.4532 36.4248 17.0046 36.4248 13.9841C36.4248 10.9637 33.9763 8.51514 30.9558 8.51514C27.9354 8.51514 25.4868 10.9637 25.4868 13.9841C25.4868 17.0046 27.9354 19.4532 30.9558 19.4532Z" stroke="black" stroke-width="1.85" stroke-miterlimit="10" stroke-linecap="round"/>
<path d="M228.507 86.4215C228.507 86.4215 223.24 86.3161 219.996 83.0718C219.996 83.0718 226.076 85.0984 228.709 84.5254L228.507 86.4215Z" fill="black"/>
<path d="M310.202 1.2514C316.418 1.25057 322.495 3.0931 327.665 6.54603C332.834 9.99896 336.863 14.9072 339.243 20.6501C341.623 26.393 342.247 32.7127 341.035 38.81C339.823 44.9072 336.831 50.5083 332.436 54.9049C328.041 59.3015 322.441 62.2963 316.345 63.5104C310.248 64.7245 303.928 64.1034 298.184 61.7258C292.44 59.3482 287.53 55.3208 284.075 50.1528C280.62 44.9849 278.775 38.9085 278.774 32.692C278.784 24.3598 282.098 16.3718 287.99 10.4801C293.881 4.58844 301.869 1.27406 310.202 1.26403M310.202 2.71543e-07C303.735 3.25239e-07 297.413 1.91771 292.036 5.5106C286.659 9.10348 282.468 14.2102 279.994 20.1849C277.519 26.1596 276.872 32.7339 278.134 39.0764C279.396 45.419 282.51 51.2449 287.083 55.8173C291.656 60.3898 297.483 63.5035 303.825 64.7646C310.168 66.0257 316.742 65.3776 322.717 62.9023C328.691 60.4269 333.797 56.2355 337.389 50.8581C340.982 45.4807 342.898 39.1588 342.898 32.692C342.898 28.3984 342.052 24.147 340.409 20.1803C338.766 16.2137 336.357 12.6095 333.321 9.57376C330.285 6.53797 326.68 4.12999 322.713 2.48732C318.747 0.844642 314.495 -0.000553089 310.202 2.71543e-07Z" fill="black"/>
<path d="M310.196 9.10742V32.6815" stroke="black" stroke-width="3" stroke-linecap="round" stroke-linejoin="round"/>
<path d="M321.762 44.2499L310.196 32.6841" stroke="black" stroke-width="3" stroke-linecap="round" stroke-linejoin="round"/>
<path d="M312.649 32.6913C312.65 33.1757 312.507 33.6494 312.238 34.0525C311.97 34.4556 311.588 34.7701 311.141 34.956C310.693 35.1419 310.201 35.191 309.726 35.097C309.251 35.0031 308.814 34.7702 308.471 34.428C308.129 34.0858 307.895 33.6497 307.8 33.1747C307.705 32.6997 307.754 32.2073 307.939 31.7597C308.124 31.3122 308.438 30.9296 308.84 30.6604C309.243 30.3912 309.717 30.2476 310.201 30.2476C310.849 30.2476 311.471 30.5049 311.93 30.9631C312.389 31.4213 312.648 32.0428 312.649 32.6913Z" fill="black"/>
</svg>
