<svg width="500" height="373" viewBox="0 0 500 373" fill="none" xmlns="http://www.w3.org/2000/svg">
<g clip-path="url(#clip0_26_2)">
<path d="M449.9 343.54H416.78V343.79H449.9V343.54Z" fill="black"/>
<path d="M331.22 346.26H322.53V346.51H331.22V346.26Z" fill="black"/>
<path d="M415.78 334.26H396.59V334.51H415.78V334.26Z" fill="black"/>
<path d="M95.65 335.94H52.46V336.19H95.65V335.94Z" fill="black"/>
<path d="M110.89 335.94H104.56V336.19H110.89V335.94Z" fill="black"/>
<path d="M225.15 340.16H131.47V340.41H225.15V340.16Z" fill="black"/>
<path d="M238.4 282.85H45.3001C43.7857 282.85 42.3333 282.248 41.2625 281.177C40.1917 280.107 39.5901 278.654 39.5901 277.14V5.7098C39.6033 4.2041 40.2107 2.76455 41.2801 1.70451C42.3495 0.644467 43.7943 0.049747 45.3001 0.0498047H238.4C239.15 0.0498047 239.892 0.197497 240.585 0.484451C241.278 0.771406 241.907 1.192 242.438 1.72223C242.968 2.25245 243.388 2.88192 243.675 3.57468C243.962 4.26745 244.11 5.00996 244.11 5.7598V277.14C244.11 277.89 243.962 278.632 243.675 279.325C243.388 280.018 242.968 280.647 242.438 281.177C241.907 281.708 241.278 282.128 240.585 282.415C239.892 282.702 239.15 282.85 238.4 282.85ZM45.3001 0.249805C43.8528 0.252449 42.4656 0.828545 41.4422 1.85192C40.4188 2.8753 39.8427 4.26253 39.8401 5.7098V277.14C39.8427 278.587 40.4188 279.974 41.4422 280.998C42.4656 282.021 43.8528 282.597 45.3001 282.6H238.4C239.847 282.597 241.235 282.021 242.258 280.998C243.281 279.974 243.857 278.587 243.86 277.14V5.7098C243.857 4.26253 243.281 2.8753 242.258 1.85192C241.235 0.828545 239.847 0.252449 238.4 0.249805H45.3001Z" fill="black"/>
<path d="M454.7 282.85H261.6C260.086 282.85 258.633 282.248 257.562 281.177C256.491 280.107 255.89 278.654 255.89 277.14V5.7098C255.903 4.2041 256.51 2.76455 257.58 1.70451C258.649 0.644467 260.094 0.049747 261.6 0.0498047H454.7C456.214 0.0498047 457.667 0.651392 458.737 1.72223C459.808 2.79306 460.41 4.24542 460.41 5.7598V277.14C460.41 278.654 459.808 280.107 458.737 281.177C457.667 282.248 456.214 282.85 454.7 282.85ZM261.6 0.249805C260.153 0.252449 258.765 0.828545 257.742 1.85192C256.719 2.8753 256.143 4.26253 256.14 5.7098V277.14C256.143 278.587 256.719 279.974 257.742 280.998C258.765 282.021 260.153 282.597 261.6 282.6H454.7C456.147 282.597 457.534 282.021 458.558 280.998C459.581 279.974 460.157 278.587 460.16 277.14V5.7098C460.157 4.26253 459.581 2.8753 458.558 1.85192C457.534 0.828545 456.147 0.252449 454.7 0.249805H261.6Z" fill="black"/>
<path d="M500 327.45H0V327.7H500V327.45Z" fill="black"/>
<path d="M350.07 321.64H445.25V194.99H350.07V321.64Z" fill="#F5F5F5"/>
<path d="M331.91 321.64H350.07V194.99H331.91V321.64Z" fill="#E6E6E6"/>
<path d="M356.25 235.15H438.58V204.39H356.25V235.15Z" fill="#FAFAFA"/>
<path d="M408.15 204.39L407.79 208.49C407.735 209.143 407.435 209.752 406.952 210.195C406.468 210.637 405.836 210.882 405.18 210.88H389.65C388.994 210.882 388.362 210.637 387.878 210.195C387.394 209.752 387.095 209.143 387.04 208.49L386.68 204.39H408.15Z" fill="black"/>
<path d="M356.25 269.26H438.58V238.5H356.25V269.26Z" fill="#FAFAFA"/>
<path d="M408.15 238.51L407.79 242.61C407.732 243.262 407.433 243.87 406.949 244.312C406.466 244.754 405.835 245 405.18 245H389.65C388.995 245 388.364 244.754 387.88 244.312C387.397 243.87 387.097 243.262 387.04 242.61L386.68 238.51H408.15Z" fill="black"/>
<path d="M356.25 303.38H438.58V272.62H356.25V303.38Z" fill="#FAFAFA"/>
<path d="M408.15 272.62L407.79 276.72C407.735 277.373 407.435 277.982 406.952 278.425C406.468 278.867 405.836 279.112 405.18 279.11H389.65C388.994 279.112 388.362 278.867 387.878 278.425C387.394 277.982 387.095 277.373 387.04 276.72L386.68 272.62H408.15Z" fill="black"/>
<path d="M356.25 327.96H437.58L438.58 321.63H356.25V327.96Z" fill="#E6E6E6"/>
<path d="M339.25 327.96H356.25V321.63H338.25L339.25 327.96Z" fill="#E0E0E0"/>
<path d="M394.48 195.13H426.98L423.38 153.91H390.88L394.48 195.13Z" fill="#FAFAFA"/>
<path d="M394.48 195.13H392.93L389.32 153.91H390.88L394.48 195.13Z" fill="black"/>
<path d="M397.43 190.93H423.3L420.43 158.12H394.56L397.43 190.93Z" fill="#F0F0F0"/>
<path d="M399.32 188.23H420.93L418.54 160.82H396.92L399.32 188.23Z" fill="#E6E6E6"/>
<path d="M385.35 195.13L387.58 169.62H355.23L353 195.13H385.35Z" fill="#F0F0F0"/>
<path d="M385.35 195.13L387.58 169.62H389.32L387.09 195.13H385.35Z" fill="#E0E0E0"/>
<path d="M382.28 192.53L384.06 172.22H358.3L356.52 192.53H382.28Z" fill="black"/>
<path d="M380.31 190.86L381.79 173.89H360.27L358.79 190.86H380.31Z" fill="#F5F5F5"/>
<path d="M310.64 310.82C310.64 317.58 309.58 321.95 307.8 324.76C307.115 325.789 306.184 326.63 305.09 327.207C303.997 327.783 302.776 328.076 301.54 328.06H291.75C290.514 328.076 289.294 327.783 288.2 327.207C287.107 326.63 286.175 325.789 285.49 324.76C283.71 321.95 282.64 317.58 282.64 310.82C282.64 301.01 286.92 293.16 288.32 286.9C288.82 284.64 287.14 277.72 287.14 277.72H306.14C306.14 277.72 304.47 284.64 304.97 286.9C306.37 293.16 310.64 301.05 310.64 310.82Z" fill="black"/>
<path d="M343 271.14C343 262.62 329.65 266.14 326.29 252.95C325.01 247.95 335.87 236.62 335.87 236.62H302C302 236.62 312.86 247.95 311.58 252.95C308.22 266.16 294.87 262.62 294.87 271.14C294.87 280.51 313.7 300.04 314.61 322.02C314.69 324.02 311.07 328.02 311.07 328.02H326.79C326.79 328.02 323.16 323.94 323.25 322.02C324.17 300.05 343 280.51 343 271.14Z" fill="#F5F5F5"/>
<path d="M332.77 293.26C334.77 289.12 330.67 275.06 330.67 275.06H345.34C345.34 275.06 341.27 289.12 343.24 293.26C344.63 296.18 347.78 298.05 347.78 301.5V322.27C347.78 327.65 343.38 328.06 338 328.06C332.62 328.06 328.22 327.65 328.22 322.27V301.5C328.22 298.05 331.38 296.18 332.77 293.26Z" fill="#F0F0F0"/>
<path d="M165.15 170.58C156.73 166.93 151.92 159.23 154.44 153.41C156.96 147.59 165.86 145.83 174.29 149.48C182.72 153.13 187.52 160.83 185 166.65C182.48 172.47 173.58 174.23 165.15 170.58ZM171.86 155.05C167.86 153.34 163.74 154.16 162.56 156.89C161.38 159.62 163.63 163.22 167.56 164.89C171.49 166.56 175.68 165.78 176.86 163.05C178.04 160.32 175.81 156.8 171.86 155.05Z" fill="#E6E6E6"/>
<path d="M175.07 155.41L171.07 153.68L195.27 97.7399C195.383 97.4762 195.547 97.2377 195.753 97.0379C195.959 96.8382 196.202 96.6813 196.469 96.5762C196.736 96.4711 197.021 96.42 197.308 96.4257C197.595 96.4315 197.878 96.4941 198.14 96.6098C198.402 96.723 198.64 96.8868 198.839 97.0919C199.038 97.297 199.194 97.5394 199.299 97.8051C199.404 98.0709 199.456 98.3547 199.451 98.6404C199.446 98.9261 199.384 99.2079 199.27 99.4698L175.07 155.41Z" fill="#E6E6E6"/>
<path d="M201.12 104.88L193.43 101.52L195.17 97.52L202.85 100.87L201.12 104.88Z" fill="#E6E6E6"/>
<path d="M197.33 109.36L191.83 106.97L193.56 102.96L199.06 105.35L197.33 109.36Z" fill="#E6E6E6"/>
<path d="M191.319 110.601L189.586 114.603L195.753 117.272L197.486 113.271L191.319 110.601Z" fill="#E6E6E6"/>
<path d="M176.62 149.44L174.42 148.49C173.894 148.259 173.481 147.83 173.271 147.296C173.062 146.762 173.072 146.166 173.3 145.64C173.528 145.112 173.957 144.697 174.491 144.485C175.025 144.273 175.622 144.282 176.15 144.51L178.35 145.46C178.876 145.69 179.288 146.119 179.498 146.653C179.708 147.188 179.698 147.783 179.47 148.31C179.241 148.837 178.813 149.252 178.279 149.464C177.744 149.676 177.148 149.667 176.62 149.44Z" fill="#E6E6E6"/>
<path d="M348.47 130.21C350.978 131.794 352.958 134.089 354.155 136.804C355.353 139.518 355.714 142.527 355.192 145.448C354.671 148.368 353.291 151.067 351.228 153.199C349.165 155.331 346.514 156.8 343.612 157.418C340.71 158.036 337.691 157.775 334.938 156.668C332.186 155.561 329.826 153.659 328.16 151.205C326.493 148.75 325.597 145.854 325.585 142.888C325.572 139.921 326.444 137.018 328.09 134.55C330.22 131.275 333.562 128.979 337.383 128.165C341.203 127.352 345.191 128.087 348.47 130.21ZM336.32 148.44C337.459 149.241 338.81 149.685 340.202 149.714C341.595 149.743 342.964 149.356 344.135 148.603C345.306 147.85 346.226 146.765 346.777 145.487C347.328 144.208 347.486 142.794 347.229 141.425C346.973 140.057 346.314 138.796 345.337 137.804C344.36 136.812 343.109 136.134 341.745 135.856C340.38 135.578 338.964 135.714 337.677 136.246C336.39 136.777 335.291 137.68 334.52 138.84C333.487 140.352 333.096 142.212 333.433 144.012C333.771 145.812 334.809 147.405 336.32 148.44Z" fill="#E6E6E6"/>
<path d="M334.71 146.66L338.85 149.42L309.23 194.74C308.864 195.288 308.295 195.669 307.648 195.798C307.001 195.928 306.329 195.795 305.78 195.43C305.509 195.249 305.276 195.017 305.094 194.746C304.913 194.476 304.786 194.172 304.722 193.853C304.658 193.533 304.658 193.204 304.721 192.885C304.784 192.565 304.909 192.261 305.09 191.99L334.71 146.66Z" fill="#E6E6E6"/>
<path d="M305.28 182.1L314 187.95L309.65 194.48L300.92 188.62C300.32 188.215 299.904 187.589 299.763 186.879C299.623 186.169 299.769 185.432 300.17 184.83L301.48 182.83C301.889 182.232 302.518 181.82 303.23 181.683C303.941 181.546 304.678 181.696 305.28 182.1Z" fill="#E6E6E6"/>
<path d="M227.54 43.6099L222.94 55.5099C222.841 55.7654 222.694 55.9989 222.505 56.1972C222.316 56.3955 222.09 56.5546 221.84 56.6656C221.59 56.7766 221.32 56.8372 221.046 56.8439C220.773 56.8507 220.5 56.8034 220.245 56.7049C219.99 56.6065 219.756 56.4586 219.558 56.2699C219.359 56.0811 219.2 55.8552 219.089 55.6049C218.978 55.3547 218.918 55.085 218.911 54.8114C218.904 54.5377 218.951 54.2654 219.05 54.0099L223.65 42.1099C224.361 40.2598 224.31 38.2032 223.508 36.3906C222.706 34.5781 221.218 33.1574 219.37 32.4399L215.11 30.7899C213.262 30.0775 211.208 30.1258 209.396 30.9241C207.584 31.7224 206.161 33.2058 205.44 35.0499L203.56 39.9099L199.68 38.4099L201.56 33.5499C202.11 32.1238 202.936 30.8199 203.99 29.7129C205.044 28.6058 206.306 27.7173 207.703 27.0979C209.101 26.4785 210.607 26.1405 212.135 26.1031C213.663 26.0657 215.184 26.3297 216.61 26.8799L220.87 28.5199C222.299 29.0721 223.606 29.9006 224.715 30.9581C225.823 32.0155 226.713 33.2811 227.333 34.6825C227.952 36.084 228.289 37.5938 228.325 39.1256C228.36 40.6574 228.094 42.1812 227.54 43.6099Z" fill="#F0F0F0"/>
<path d="M226.81 45.4798C226.493 45.0722 226.071 44.7578 225.59 44.5698L202.39 35.5698C201.685 35.3045 200.905 35.3267 200.216 35.6316C199.528 35.9365 198.987 36.4997 198.71 37.1998L189.71 60.4098C189.44 61.1127 189.459 61.8941 189.765 62.5823C190.071 63.2705 190.637 63.8092 191.34 64.0798L214.54 73.0798C214.888 73.2152 215.26 73.2805 215.634 73.2718C216.008 73.2631 216.377 73.1807 216.718 73.0293C217.06 72.8778 217.369 72.6603 217.627 72.3893C217.884 72.1182 218.086 71.799 218.22 71.4498L227.22 48.2498C227.398 47.7922 227.453 47.2962 227.382 46.8106C227.31 46.3249 227.113 45.8663 226.81 45.4798ZM209.19 63.4098L201.84 60.5698L205.73 53.7798C205.428 53.1719 205.283 52.4983 205.308 51.8201C205.332 51.142 205.525 50.4806 205.87 49.8959C206.214 49.3112 206.699 48.8217 207.28 48.4716C207.862 48.1216 208.521 47.9221 209.199 47.8912C209.877 47.8603 210.552 47.999 211.163 48.2947C211.774 48.5904 212.301 49.0338 212.697 49.5847C213.094 50.1356 213.346 50.7767 213.432 51.4499C213.518 52.123 213.435 52.807 213.19 53.4398C212.989 53.9686 212.679 54.4487 212.279 54.8486C211.879 55.2485 211.399 55.5591 210.87 55.7598L209.19 63.4098Z" fill="#E6E6E6"/>
<path d="M69.15 314.51H254.28V214.88L69.15 214.88V314.51Z" fill="#E6E6E6"/>
<path d="M239.44 327.43H251.08V318.64H239.44V327.43Z" fill="#E6E6E6"/>
<path d="M55.0199 327.43H66.6599L66.6599 207.46H55.0199L55.0199 327.43Z" fill="#E6E6E6"/>
<path d="M66.52 207.46V327.46H72.73V320.74H251.08V327.46H257.29V207.46H66.52ZM72.73 218.32H158.8V259.99H72.73V218.32ZM251.08 309.85H165V218.32H251.07L251.08 309.85ZM72.73 309.85V266.2H158.8V309.85H72.73Z" fill="#F0F0F0"/>
<path d="M165 309.85H245.26V222.8H165V309.85Z" fill="#F5F5F5"/>
<path d="M168.64 263.72C168.64 264.457 168.859 265.179 169.269 265.792C169.678 266.405 170.261 266.883 170.942 267.166C171.624 267.448 172.374 267.522 173.098 267.378C173.821 267.234 174.486 266.879 175.007 266.357C175.529 265.836 175.884 265.171 176.028 264.447C176.172 263.724 176.098 262.974 175.816 262.292C175.534 261.611 175.056 261.028 174.442 260.618C173.829 260.208 173.108 259.99 172.37 259.99C171.88 259.99 171.395 260.086 170.942 260.274C170.49 260.461 170.079 260.736 169.732 261.082C169.386 261.429 169.111 261.84 168.924 262.292C168.736 262.745 168.64 263.23 168.64 263.72Z" fill="#FAFAFA"/>
<path d="M172.37 267.45C173.083 267.448 173.78 267.241 174.379 266.855C174.978 266.468 175.454 265.918 175.75 265.27C175.978 265.755 176.098 266.284 176.1 266.82C176.1 267.809 175.707 268.758 175.007 269.458C174.308 270.157 173.359 270.55 172.37 270.55C171.381 270.55 170.432 270.157 169.732 269.458C169.033 268.758 168.64 267.809 168.64 266.82C168.642 266.284 168.761 265.755 168.99 265.27C169.286 265.918 169.762 266.468 170.361 266.855C170.96 267.241 171.657 267.448 172.37 267.45Z" fill="#E0E0E0"/>
<path d="M214.14 309.85H194.99L185.84 222.8H204.99L214.14 309.85Z" fill="#FAFAFA"/>
<path d="M190.09 309.85H186.28L177.13 222.8H180.94L190.09 309.85Z" fill="#FAFAFA"/>
<path d="M139.41 259.94H146.99V222.71H139.41V259.94Z" fill="#FAFAFA"/>
<path d="M107.96 259.94H115.54V222.71H107.96V259.94Z" fill="#F5F5F5"/>
<path d="M131.82 259.95H139.4V225.33H131.82V259.95Z" fill="#F5F5F5"/>
<path d="M115.54 259.95H123.12V225.33H115.54V259.95Z" fill="#FAFAFA"/>
<path d="M123.13 259.94H128.03V222.71H123.13V259.94Z" fill="black"/>
<path d="M128.02 259.95H131.81V225.33H128.02V259.95Z" fill="#FAFAFA"/>
<path d="M100.38 259.94H107.96V222.71H100.38V259.94Z" fill="black"/>
<path d="M92.7901 259.95H100.37V225.33H92.7901V259.95Z" fill="#E6E6E6"/>
<path d="M76.5101 259.95H84.0901V225.33H76.5101V259.95Z" fill="#E6E6E6"/>
<path d="M84.1 259.94H89V222.71H84.1V259.94Z" fill="#FAFAFA"/>
<path d="M89 259.95H92.79V225.33H89V259.95Z" fill="black"/>
<path d="M72.72 259.95H76.51V223.6H72.72V259.95Z" fill="black"/>
<path d="M80.3 272.62H72.72V309.85H80.3V272.62Z" fill="black"/>
<path d="M111.74 272.62H104.16V309.85H111.74V272.62Z" fill="#FAFAFA"/>
<path d="M87.88 275.23H80.3V309.85H87.88V275.23Z" fill="#FAFAFA"/>
<path d="M104.16 275.23H96.5801V309.85H104.16V275.23Z" fill="black"/>
<path d="M96.5799 272.62H91.6799V309.85H96.5799V272.62Z" fill="#FAFAFA"/>
<path d="M91.6799 275.23H87.8899V309.85H91.6799V275.23Z" fill="#F5F5F5"/>
<path d="M119.33 272.62H111.75V309.85H119.33V272.62Z" fill="black"/>
<path d="M126.91 275.23H119.33V309.85H126.91V275.23Z" fill="#F5F5F5"/>
<path d="M143.19 275.23H135.61V309.85H143.19V275.23Z" fill="#E6E6E6"/>
<path d="M135.61 272.62H130.71V309.85H135.61V272.62Z" fill="#FAFAFA"/>
<path d="M151.89 272.62H146.99V309.85H151.89V272.62Z" fill="#FAFAFA"/>
<path d="M130.71 275.23H126.92V309.85H130.71V275.23Z" fill="black"/>
<path d="M146.98 273.5H143.19V309.85H146.98V273.5Z" fill="black"/>
<path d="M81.1799 143.34C80.3941 143.727 79.7452 144.344 79.3199 145.11C78.7399 146.29 80.5499 148.48 80.5499 148.48C80.9863 148.772 81.485 148.957 82.006 149.021C82.527 149.086 83.0557 149.027 83.5499 148.85L85.0499 148.17C85.0499 148.17 82.4799 143.7 81.2299 143.65L81.1799 143.34Z" fill="#E6E6E6"/>
<path d="M87.63 143.3C87.81 145.42 86.5 148.1 84.63 148.3C82.76 148.5 81 146.05 80.78 143.9C80.56 141.75 82.12 141.57 84.01 141.41C85.9 141.25 87.44 141.18 87.63 143.3Z" fill="#E6E6E6"/>
<path d="M82.0801 142.68C82.0801 142.68 83.5301 143.83 86.5101 143.16C86.5101 143.16 81.8101 146.29 82.0801 142.68Z" fill="#E6E6E6"/>
<path d="M83.3601 142.26C83.3601 142.26 85.0301 141.97 85.0501 142.66C85.0501 142.66 86.4701 142.58 86.2701 141.99C86.0701 141.4 83.3601 142.26 83.3601 142.26Z" fill="#E6E6E6"/>
<g opacity="0.2">
<path d="M82.0801 142.68C82.0801 142.68 83.5301 143.83 86.5101 143.16C86.5101 143.16 81.8101 146.29 82.0801 142.68Z" fill="#FAFAFA"/>
</g>
<g opacity="0.2">
<path d="M83.3601 142.26C83.3601 142.26 85.0301 141.97 85.0501 142.66C85.0501 142.66 86.4701 142.58 86.2701 141.99C86.0701 141.4 83.3601 142.26 83.3601 142.26Z" fill="#FAFAFA"/>
</g>
<path d="M81.4299 148.93C81.7525 149.414 82.2054 149.796 82.7363 150.033C83.2672 150.27 83.8544 150.352 84.4299 150.27C84.9987 150.184 85.5434 149.981 86.029 149.673C86.5146 149.364 86.9304 148.958 87.2499 148.48C87.8737 147.515 88.2197 146.398 88.2499 145.25C88.2499 144.96 88.2499 144.25 87.8999 144.1C87.5499 143.95 87.3199 144.5 87.1599 144.73C86.6931 145.401 86.1604 146.024 85.5699 146.59C84.986 147.15 84.3382 147.64 83.6399 148.05C83.4399 148.11 81.5399 149.1 81.4299 148.93Z" fill="#E6E6E6"/>
<path d="M89.55 144.7C89.7228 145.134 89.7832 145.604 89.7255 146.067C89.6678 146.531 89.4939 146.972 89.22 147.35C88.8258 147.818 88.3476 148.208 87.81 148.5C87.44 148.72 86.97 148.93 86.61 148.7C86.25 148.47 86.26 147.88 86.35 147.43C86.49 146.74 86.64 146.05 86.82 145.36C86.9053 144.669 87.0941 143.995 87.38 143.36C87.69 142.92 88.12 143.18 88.59 143.51C89.0165 143.807 89.3494 144.22 89.55 144.7Z" fill="#E6E6E6"/>
<g opacity="0.2">
<path d="M81.9101 147.76C81.5463 147.73 81.1975 147.602 80.9013 147.389C80.6052 147.176 80.3731 146.885 80.2301 146.55C80.0301 146.04 80.0301 144.77 80.6901 144.6C80.8893 145.722 81.3035 146.795 81.9101 147.76Z" fill="#FAFAFA"/>
</g>
<g opacity="0.2">
<path d="M86.8401 147.7C87.1858 147.599 87.5015 147.415 87.7595 147.164C88.0176 146.913 88.2101 146.602 88.3201 146.26C88.4301 145.88 88.3201 143.94 87.7101 144.75C87.5201 145.02 87.5601 145.87 87.4601 146.22C87.3123 146.736 87.1042 147.232 86.8401 147.7Z" fill="#FAFAFA"/>
</g>
<g opacity="0.2">
<path d="M84.2 148.9C84.4788 149.133 84.8282 149.264 85.1913 149.273C85.5544 149.282 85.9098 149.168 86.2 148.95C86.12 149.33 84.94 149.64 84.58 149.75C83.58 150.03 83.12 149.61 82.2 149.22C82.15 149.22 83.61 149.44 84.2 148.9Z" fill="#FAFAFA"/>
</g>
<path d="M82.55 187.85L82.64 159L84.12 150.22L84.68 150.32L83.21 159.05L83.1 188.4L82.55 187.85Z" fill="#E0E0E0"/>
<path d="M83.15 158.85L82.7 159.2C82.1915 158.488 81.7433 157.736 81.36 156.95C80.6101 155.397 79.6659 153.945 78.55 152.63L78.97 152.24C80.1192 153.592 81.0935 155.084 81.87 156.68C82.2367 157.437 82.6648 158.163 83.15 158.85Z" fill="#E0E0E0"/>
<path d="M83.5 154.98C84.2738 154.77 84.9474 154.291 85.4 153.63C85.8485 152.845 86.1341 151.977 86.24 151.08C85.24 151.38 84.17 150.9 83.14 151.02C82.7287 151.071 82.3345 151.215 81.9878 151.442C81.641 151.669 81.351 151.973 81.14 152.33C80.6 153.26 80.38 154.33 80.86 154.74C81.6754 155.16 82.6223 155.246 83.5 154.98Z" fill="#E6E6E6"/>
<path d="M79.66 152.99C79.1962 153.278 78.6751 153.463 78.1329 153.53C77.5908 153.598 77.0404 153.546 76.52 153.38C75.52 153.05 75.19 151.49 74.78 150.48C76.0672 150.36 77.3628 150.36 78.65 150.48C78.922 150.496 79.1868 150.573 79.4255 150.705C79.6641 150.836 79.8706 151.019 80.03 151.24C80.1799 151.467 80.2413 151.741 80.2026 152.01C80.1639 152.279 80.0278 152.524 79.82 152.7L79.66 152.99Z" fill="#E6E6E6"/>
<path d="M74.9299 154.68C75.3427 154.269 75.8402 153.953 76.3878 153.754C76.9353 153.556 77.5196 153.479 78.0999 153.53C78.5644 153.615 79.0021 153.809 79.3775 154.096C79.7528 154.383 80.0552 154.754 80.2599 155.18C80.1042 155.476 79.8716 155.726 79.5867 155.901C79.3017 156.077 78.9747 156.173 78.6399 156.18C77.958 156.19 77.2801 156.075 76.6399 155.84C76.0011 155.599 75.3226 155.48 74.6399 155.49L74.9299 154.68Z" fill="#E6E6E6"/>
<path d="M94.18 149.72C94.8136 150.319 95.2496 151.097 95.43 151.95C95.64 153.26 93.27 154.81 93.27 154.81C92.7637 154.966 92.2277 154.999 91.7061 154.907C91.1844 154.815 90.6922 154.6 90.27 154.28L89 153.18C89 153.18 92.78 149.67 94 150L94.18 149.72Z" fill="#E6E6E6"/>
<path d="M88 147.79C87.21 149.79 87.68 152.7 89.44 153.41C91.2 154.12 93.58 152.34 94.38 150.41C95.18 148.48 93.8 147.75 92 147.05C90.2 146.35 88.82 145.82 88 147.79Z" fill="#E6E6E6"/>
<path d="M93.5099 148.82C93.5099 148.82 91.7799 149.5 89.1299 147.98C89.1299 147.98 92.6999 152.35 93.5099 148.82Z" fill="#E6E6E6"/>
<path d="M92.4101 148.05C92.4101 148.05 90.9001 147.28 90.6701 147.94C90.6701 147.94 89.3401 147.45 89.6701 146.94C90.0001 146.43 92.4101 148.05 92.4101 148.05Z" fill="#E6E6E6"/>
<g opacity="0.2">
<path d="M93.5099 148.82C93.5099 148.82 91.7799 149.5 89.1299 147.98C89.1299 147.98 92.6999 152.35 93.5099 148.82Z" fill="#FAFAFA"/>
</g>
<g opacity="0.2">
<path d="M92.4101 148.05C92.4101 148.05 90.9001 147.28 90.6701 147.94C90.6701 147.94 89.3401 147.45 89.6701 146.94C90.0001 146.43 92.4101 148.05 92.4101 148.05Z" fill="#FAFAFA"/>
</g>
<path d="M92.29 154.99C91.8416 155.349 91.3027 155.577 90.7327 155.65C90.1628 155.722 89.584 155.636 89.06 155.4C88.5421 155.15 88.0817 154.795 87.7082 154.358C87.3346 153.921 87.056 153.411 86.89 152.86C86.58 151.748 86.58 150.572 86.89 149.46C86.95 149.17 87.15 148.46 87.56 148.46C87.97 148.46 87.99 149.01 88.08 149.28C88.3302 150.064 88.6655 150.819 89.08 151.53C89.4805 152.223 89.9604 152.868 90.51 153.45C90.61 153.62 92.14 155.12 92.29 154.99Z" fill="#E6E6E6"/>
<path d="M85.78 148.56C85.4837 148.92 85.2856 149.35 85.205 149.809C85.1244 150.268 85.164 150.741 85.32 151.18C85.5474 151.749 85.8875 152.266 86.32 152.7C86.6 153.02 86.99 153.36 87.4 153.24C87.81 153.12 87.97 152.56 88.02 152.11C88.09 151.4 88.15 150.7 88.18 149.99C88.2847 149.31 88.2847 148.619 88.18 147.94C88.02 147.42 87.52 147.54 86.98 147.72C86.5086 147.88 86.0924 148.172 85.78 148.56Z" fill="#E6E6E6"/>
<g opacity="0.2">
<path d="M92.1799 153.72C92.5414 153.815 92.9228 153.804 93.2779 153.686C93.6329 153.569 93.9463 153.351 94.1799 153.06C94.5099 152.64 94.8799 151.42 94.3099 151.06C93.7758 152.074 93.0528 152.977 92.1799 153.72Z" fill="#FAFAFA"/>
</g>
<g opacity="0.2">
<path d="M87.48 152.22C87.1759 152.025 86.9251 151.757 86.7505 151.441C86.5759 151.125 86.4829 150.771 86.48 150.41C86.48 150.01 87.19 148.2 87.48 149.15C87.58 149.46 87.29 150.26 87.29 150.62C87.2926 151.158 87.3563 151.695 87.48 152.22Z" fill="#FAFAFA"/>
</g>
<g opacity="0.2">
<path d="M89.65 154.14C89.3247 154.272 88.9648 154.292 88.6265 154.198C88.2882 154.104 87.9906 153.901 87.78 153.62C87.78 154 88.78 154.62 89.09 154.86C89.92 155.41 90.52 155.15 91.52 155.05C91.52 155.05 90.06 154.84 89.65 154.14Z" fill="#FAFAFA"/>
</g>
<path d="M81.73 183.54L82.09 182.36L82.57 180.77L83.13 178.91L87.62 164.14L88.18 159.9L88.68 156.14L88.78 155.36L89.06 155.39V155.4L89.35 155.43L89.34 155.5L89.24 156.24L88.71 160.26L88.28 163.53L88.18 164.25L88.14 164.37L83.13 180.87L82.56 182.72L82.31 183.58L81.95 184.75L81.73 183.54Z" fill="#E0E0E0"/>
<path d="M87.73 163.97L88.06 164.43C88.7529 163.896 89.4017 163.308 90 162.67C91.1852 161.402 92.5297 160.293 94 159.37L93.71 158.88C92.2113 159.828 90.8431 160.967 89.64 162.27C89.0452 162.882 88.4068 163.45 87.73 163.97Z" fill="#E0E0E0"/>
<path d="M88.5399 160.17C87.8584 159.745 87.354 159.088 87.1199 158.32C86.9182 157.436 86.9011 156.52 87.0699 155.63C87.9299 156.21 89.0699 156.06 90.0699 156.48C90.4484 156.65 90.783 156.904 91.0481 157.223C91.3133 157.541 91.5021 157.917 91.5999 158.32C91.8399 159.32 91.7399 160.44 91.1599 160.71C90.2496 160.883 89.3077 160.689 88.5399 160.17Z" fill="#E6E6E6"/>
<path d="M92.7901 159.39C93.147 159.802 93.5896 160.132 94.0869 160.357C94.5842 160.581 95.1244 160.695 95.6701 160.69C96.7601 160.69 97.5101 159.27 98.1901 158.42C96.9989 157.924 95.7634 157.542 94.5001 157.28C94.2357 157.215 93.9603 157.21 93.6939 157.266C93.4275 157.321 93.1768 157.435 92.9601 157.6C92.7476 157.771 92.6056 158.015 92.5613 158.284C92.5171 158.553 92.5736 158.829 92.7201 159.06L92.7901 159.39Z" fill="#E6E6E6"/>
<path d="M96.8201 162.39C96.5458 161.877 96.1615 161.432 95.6946 161.087C95.2277 160.741 94.69 160.503 94.1201 160.39C93.651 160.335 93.1756 160.391 92.7325 160.554C92.2894 160.718 91.8911 160.983 91.5701 161.33C91.6295 161.661 91.7768 161.971 91.9967 162.226C92.2166 162.481 92.5009 162.672 92.8201 162.78C93.4659 162.984 94.1437 163.069 94.8201 163.03C95.4966 162.985 96.1753 163.07 96.8201 163.28V162.39Z" fill="#E6E6E6"/>
<path d="M73.9199 148.56C73.2214 149.086 72.6985 149.811 72.4199 150.64C72.0599 151.91 74.2299 153.73 74.2299 153.73C74.7083 153.938 75.2291 154.032 75.7502 154.002C76.2713 153.973 76.7782 153.821 77.2299 153.56L78.5899 152.61C78.5899 152.61 75.2599 148.68 74.0199 148.86L73.9199 148.56Z" fill="#E6E6E6"/>
<path d="M80.26 147.37C80.82 149.42 80.01 152.29 78.18 152.79C76.35 153.29 74.18 151.24 73.63 149.19C73.08 147.14 74.53 146.66 76.36 146.19C78.19 145.72 79.7 145.32 80.26 147.37Z" fill="#E6E6E6"/>
<path d="M74.6899 147.75C74.6899 147.75 76.3199 148.63 79.1299 147.43C79.1299 147.43 75.0799 151.36 74.6899 147.75Z" fill="#E6E6E6"/>
<path d="M75.8701 147.11C75.8701 147.11 77.4601 146.52 77.6101 147.2C77.6101 147.2 78.9901 146.87 78.6901 146.32C78.3901 145.77 75.8701 147.11 75.8701 147.11Z" fill="#E6E6E6"/>
<g opacity="0.2">
<path d="M74.6899 147.75C74.6899 147.75 76.3199 148.63 79.1299 147.43C79.1299 147.43 75.0799 151.36 74.6899 147.75Z" fill="#FAFAFA"/>
</g>
<g opacity="0.2">
<path d="M75.8701 147.11C75.8701 147.11 77.4601 146.52 77.6101 147.2C77.6101 147.2 78.9901 146.87 78.6901 146.32C78.3901 145.77 75.8701 147.11 75.8701 147.11Z" fill="#FAFAFA"/>
</g>
<path d="M75.1699 154.05C75.5728 154.46 76.081 154.751 76.6386 154.89C77.1963 155.029 77.7815 155.012 78.3299 154.84C78.8745 154.652 79.3743 154.353 79.7977 153.963C80.2211 153.572 80.5589 153.098 80.7899 152.57C81.2451 151.509 81.3974 150.342 81.2299 149.2C81.2299 148.91 81.0899 148.2 80.6799 148.13C80.2699 148.06 80.1799 148.63 80.0599 148.89C79.7244 149.634 79.3122 150.341 78.8299 151C78.3512 151.644 77.7973 152.228 77.1799 152.74C76.9999 152.85 75.3099 154.17 75.1699 154.05Z" fill="#E6E6E6"/>
<path d="M82.3999 148.4C82.6492 148.794 82.7938 149.245 82.82 149.71C82.8462 150.176 82.7533 150.64 82.5499 151.06C82.2526 151.597 81.8515 152.069 81.3699 152.45C81.0499 152.73 80.6199 153.02 80.2299 152.86C79.8399 152.7 79.7399 152.12 79.7499 151.66C79.7499 150.95 79.7499 150.25 79.8299 149.54C79.7982 148.867 79.8656 148.193 80.0299 147.54C80.2499 147.04 80.7299 147.22 81.2499 147.46C81.7128 147.661 82.1108 147.986 82.3999 148.4Z" fill="#E6E6E6"/>
<g opacity="0.2">
<path d="M75.4399 152.78C75.0743 152.826 74.7029 152.767 74.3697 152.61C74.0366 152.452 73.7556 152.202 73.5599 151.89C73.2799 151.43 73.0499 150.17 73.6599 149.89C74.0661 150.956 74.67 151.937 75.4399 152.78Z" fill="#FAFAFA"/>
</g>
<g opacity="0.2">
<path d="M80.28 151.84C80.6016 151.677 80.8784 151.438 81.0859 151.143C81.2934 150.849 81.4253 150.507 81.47 150.15C81.47 149.76 81.02 147.88 80.6 148.78C80.5504 149.272 80.5504 149.768 80.6 150.26C80.554 150.797 80.4466 151.327 80.28 151.84Z" fill="#FAFAFA"/>
</g>
<g opacity="0.2">
<path d="M77.8999 153.49C78.2085 153.658 78.5637 153.719 78.9107 153.665C79.2577 153.611 79.5772 153.444 79.8199 153.19C79.8199 153.57 78.7099 154.09 78.3699 154.27C77.4799 154.71 76.9099 154.39 75.9299 154.18C75.9299 154.18 77.4099 154.13 77.8999 153.49Z" fill="#FAFAFA"/>
</g>
<path d="M83.27 192.1L78.17 163.71L78.05 154.81L78.62 154.8L78.74 163.66L83.91 192.54L83.27 192.1Z" fill="#E0E0E0"/>
<path d="M78.65 163.47L78.26 163.89C77.6351 163.272 77.0631 162.603 76.55 161.89C75.5294 160.504 74.3365 159.254 73 158.17L73.35 157.72C74.7245 158.844 75.951 160.137 77 161.57C77.4973 162.247 78.0491 162.882 78.65 163.47Z" fill="#E0E0E0"/>
<path d="M78.2901 159.6C79.0176 159.259 79.5967 158.666 79.9201 157.93C80.2249 157.078 80.3509 156.173 80.2901 155.27C79.3601 155.75 78.2201 155.46 77.2301 155.76C76.8336 155.888 76.4711 156.103 76.1698 156.391C75.8684 156.678 75.636 157.03 75.4901 157.42C75.1301 158.42 75.1001 159.5 75.6501 159.83C76.5258 160.106 77.4751 160.023 78.2901 159.6Z" fill="#E6E6E6"/>
<path d="M74.1599 158.33C73.7593 158.697 73.2832 158.972 72.765 159.137C72.2468 159.301 71.699 159.35 71.1599 159.28C70.0799 159.14 69.4999 157.66 68.9299 156.74C70.1702 156.381 71.4432 156.146 72.7299 156.04C72.9991 156.006 73.2724 156.032 73.5301 156.117C73.7878 156.202 74.0234 156.343 74.2199 156.53C74.4084 156.727 74.5185 156.986 74.5295 157.258C74.5406 157.531 74.4518 157.798 74.2799 158.01L74.1599 158.33Z" fill="#E6E6E6"/>
<path d="M69.81 160.84C70.1431 160.364 70.5761 159.966 71.0786 159.674C71.5812 159.382 72.1413 159.203 72.72 159.15C73.1933 159.149 73.6603 159.259 74.0826 159.473C74.5049 159.687 74.8707 159.998 75.15 160.38C75.0538 160.704 74.8706 160.996 74.6203 161.223C74.3699 161.451 74.062 161.605 73.73 161.67C73.0692 161.795 72.3908 161.795 71.73 161.67C71.0692 161.545 70.3908 161.545 69.73 161.67L69.81 160.84Z" fill="#E6E6E6"/>
<path d="M85.3499 174.68H79.3499C79.1281 174.67 78.9094 174.735 78.7283 174.863C78.5472 174.992 78.4141 175.177 78.3499 175.39C77.2452 179.312 76.7296 183.376 76.8199 187.45C76.8199 194.45 78.6599 203.87 79.2399 206.64C79.2846 206.871 79.4094 207.079 79.5923 207.227C79.7752 207.375 80.0046 207.454 80.2399 207.45H84.3999C84.6353 207.454 84.8646 207.375 85.0475 207.227C85.2304 207.079 85.3552 206.871 85.3999 206.64C85.9799 203.87 87.8199 194.5 87.8199 187.45C87.9103 183.376 87.3946 179.312 86.2899 175.39C86.2286 175.187 86.1045 175.009 85.9356 174.882C85.7666 174.754 85.5616 174.683 85.3499 174.68Z" fill="#F0F0F0"/>
<path d="M250 372.06C357.083 372.06 443.89 366.992 443.89 360.74C443.89 354.488 357.083 349.42 250 349.42C142.918 349.42 56.1101 354.488 56.1101 360.74C56.1101 366.992 142.918 372.06 250 372.06Z" fill="#F5F5F5"/>
<path d="M120.78 321.82C120.616 321.809 120.463 321.736 120.353 321.614C120.243 321.493 120.185 321.334 120.19 321.17C120.93 291.78 122.44 243.57 122.52 243.3C122.573 243.139 122.685 243.005 122.834 242.925C122.983 242.845 123.157 242.825 123.32 242.87C123.482 242.921 123.618 243.033 123.698 243.182C123.778 243.332 123.797 243.507 123.75 243.67C123.75 243.73 122.2 292.11 121.46 321.2C121.459 321.283 121.441 321.366 121.407 321.443C121.374 321.519 121.325 321.588 121.265 321.646C121.204 321.704 121.133 321.749 121.055 321.779C120.977 321.808 120.894 321.822 120.81 321.82H120.78Z" fill="#020304"/>
<path d="M116.83 223.68C117.08 225.94 119.83 233.79 122.05 233.55C124.27 233.31 125.28 225.05 125.05 222.79C124.932 221.703 124.387 220.707 123.534 220.021C122.682 219.336 121.592 219.017 120.505 219.135C119.418 219.253 118.422 219.798 117.736 220.65C117.051 221.503 116.732 222.593 116.85 223.68H116.83Z" fill="#407BFF"/>
<path d="M127.82 248.44C127.57 246.17 124.82 238.32 122.6 238.57C120.38 238.82 119.38 247.06 119.6 249.33C119.718 250.417 120.263 251.413 121.116 252.099C121.968 252.784 123.058 253.103 124.145 252.985C125.232 252.867 126.228 252.322 126.914 251.469C127.599 250.617 127.918 249.527 127.8 248.44H127.82Z" fill="#407BFF"/>
<path d="M110 241.55C112.26 241.31 120.11 238.6 119.86 236.33C119.61 234.06 111.37 233.11 109.11 233.33C108.572 233.388 108.05 233.552 107.575 233.812C107.1 234.072 106.681 234.423 106.341 234.845C106.002 235.267 105.749 235.752 105.597 236.272C105.445 236.792 105.397 237.336 105.455 237.875C105.513 238.413 105.677 238.935 105.937 239.41C106.197 239.885 106.548 240.304 106.971 240.644C107.393 240.983 107.877 241.236 108.397 241.388C108.917 241.54 109.462 241.588 110 241.53V241.55Z" fill="#407BFF"/>
<path d="M134.7 230.57C132.44 230.81 124.59 233.57 124.84 235.79C125.09 238.01 133.33 239.01 135.59 238.79C136.136 238.742 136.667 238.585 137.152 238.33C137.637 238.074 138.066 237.724 138.414 237.3C138.762 236.877 139.022 236.388 139.178 235.862C139.335 235.337 139.385 234.785 139.326 234.24C139.267 233.695 139.099 233.168 138.833 232.688C138.568 232.208 138.209 231.787 137.778 231.448C137.347 231.109 136.853 230.859 136.324 230.713C135.796 230.568 135.244 230.529 134.7 230.6V230.57Z" fill="#407BFF"/>
<path d="M109.69 231.19C111.46 232.62 118.93 236.25 120.36 234.48C121.79 232.71 116.63 226.19 114.86 224.76C114.442 224.39 113.952 224.108 113.422 223.932C112.891 223.756 112.331 223.69 111.774 223.737C111.217 223.784 110.675 223.944 110.182 224.206C109.689 224.469 109.254 224.829 108.904 225.264C108.553 225.7 108.295 226.202 108.145 226.74C107.994 227.278 107.955 227.842 108.028 228.396C108.102 228.95 108.287 229.483 108.572 229.963C108.858 230.444 109.238 230.861 109.69 231.19Z" fill="#407BFF"/>
<path d="M135 240.93C133.23 239.5 125.76 235.87 124.34 237.64C122.92 239.41 128.06 245.93 129.84 247.35C130.259 247.707 130.746 247.977 131.272 248.143C131.797 248.308 132.35 248.367 132.899 248.315C133.447 248.264 133.98 248.102 134.465 247.841C134.95 247.58 135.378 247.224 135.723 246.795C136.068 246.365 136.324 245.871 136.475 245.341C136.625 244.811 136.668 244.256 136.601 243.709C136.533 243.163 136.357 242.635 136.082 242.157C135.807 241.68 135.439 241.263 135 240.93Z" fill="#407BFF"/>
<path d="M117.46 248.69C118.89 246.92 122.52 239.45 120.74 238.03C118.96 236.61 112.46 241.75 111.03 243.53C110.346 244.383 110.028 245.472 110.147 246.559C110.266 247.646 110.812 248.641 111.665 249.325C112.518 250.009 113.607 250.327 114.694 250.208C115.781 250.089 116.776 249.543 117.46 248.69Z" fill="#407BFF"/>
<path d="M127.19 223.42C125.77 225.2 122.13 232.66 123.91 234.09C125.69 235.52 132.19 230.36 133.62 228.59C133.99 228.172 134.272 227.682 134.448 227.152C134.624 226.621 134.69 226.061 134.643 225.504C134.596 224.947 134.436 224.405 134.174 223.912C133.911 223.419 133.551 222.984 133.116 222.634C132.68 222.283 132.178 222.025 131.64 221.875C131.102 221.724 130.538 221.685 129.984 221.758C129.43 221.832 128.897 222.017 128.417 222.302C127.936 222.588 127.519 222.968 127.19 223.42Z" fill="#407BFF"/>
<g opacity="0.6">
<path d="M116.83 223.68C117.08 225.94 119.83 233.79 122.05 233.55C124.27 233.31 125.28 225.05 125.05 222.79C124.932 221.703 124.387 220.707 123.534 220.021C122.682 219.336 121.592 219.017 120.505 219.135C119.418 219.253 118.422 219.798 117.736 220.65C117.051 221.503 116.732 222.593 116.85 223.68H116.83Z" fill="white"/>
<path d="M127.82 248.44C127.57 246.17 124.82 238.32 122.6 238.57C120.38 238.82 119.38 247.06 119.6 249.33C119.718 250.417 120.263 251.413 121.116 252.099C121.968 252.784 123.058 253.103 124.145 252.985C125.232 252.867 126.228 252.322 126.914 251.469C127.599 250.617 127.918 249.527 127.8 248.44H127.82Z" fill="white"/>
<path d="M110 241.55C112.26 241.31 120.11 238.6 119.86 236.33C119.61 234.06 111.37 233.11 109.11 233.33C108.572 233.388 108.05 233.552 107.575 233.812C107.1 234.072 106.681 234.423 106.341 234.845C106.002 235.267 105.749 235.752 105.597 236.272C105.445 236.792 105.397 237.336 105.455 237.875C105.513 238.413 105.677 238.935 105.937 239.41C106.197 239.885 106.548 240.304 106.971 240.644C107.393 240.983 107.877 241.236 108.397 241.388C108.917 241.54 109.462 241.588 110 241.53V241.55Z" fill="white"/>
<path d="M134.7 230.57C132.44 230.81 124.59 233.57 124.84 235.79C125.09 238.01 133.33 239.01 135.59 238.79C136.136 238.742 136.667 238.585 137.152 238.33C137.637 238.074 138.066 237.724 138.414 237.3C138.762 236.877 139.022 236.388 139.179 235.862C139.335 235.337 139.385 234.785 139.326 234.24C139.267 233.695 139.1 233.168 138.834 232.688C138.568 232.208 138.209 231.787 137.778 231.448C137.347 231.109 136.853 230.859 136.325 230.713C135.796 230.568 135.244 230.529 134.7 230.6V230.57Z" fill="white"/>
<path d="M109.69 231.19C111.46 232.62 118.93 236.25 120.36 234.48C121.79 232.71 116.63 226.19 114.86 224.76C114.442 224.39 113.952 224.108 113.422 223.932C112.891 223.756 112.331 223.69 111.774 223.737C111.217 223.784 110.675 223.944 110.182 224.206C109.689 224.469 109.254 224.829 108.904 225.264C108.553 225.7 108.295 226.202 108.145 226.74C107.994 227.278 107.955 227.842 108.028 228.396C108.102 228.95 108.287 229.483 108.572 229.963C108.858 230.444 109.238 230.861 109.69 231.19Z" fill="white"/>
<path d="M135 240.93C133.23 239.5 125.76 235.87 124.34 237.64C122.92 239.41 128.06 245.93 129.84 247.35C130.259 247.707 130.746 247.977 131.272 248.143C131.797 248.308 132.35 248.367 132.899 248.315C133.447 248.264 133.98 248.102 134.465 247.841C134.95 247.58 135.378 247.224 135.723 246.795C136.068 246.365 136.324 245.871 136.475 245.341C136.625 244.811 136.668 244.256 136.601 243.709C136.533 243.163 136.357 242.635 136.082 242.157C135.807 241.68 135.439 241.263 135 240.93Z" fill="white"/>
<path d="M117.46 248.69C118.89 246.92 122.52 239.45 120.74 238.03C118.96 236.61 112.46 241.75 111.03 243.53C110.346 244.383 110.028 245.472 110.147 246.559C110.266 247.646 110.812 248.641 111.665 249.325C112.518 250.009 113.607 250.327 114.694 250.208C115.781 250.089 116.776 249.543 117.46 248.69Z" fill="white"/>
<path d="M127.19 223.42C125.77 225.2 122.13 232.66 123.91 234.09C125.69 235.52 132.19 230.36 133.62 228.59C133.99 228.172 134.272 227.682 134.448 227.152C134.624 226.621 134.69 226.061 134.643 225.504C134.596 224.947 134.436 224.405 134.174 223.912C133.911 223.419 133.551 222.984 133.116 222.634C132.68 222.283 132.178 222.025 131.64 221.875C131.102 221.724 130.538 221.685 129.984 221.758C129.43 221.832 128.897 222.017 128.417 222.302C127.936 222.588 127.519 222.968 127.19 223.42Z" fill="white"/>
</g>
<path d="M117.47 236.59C117.576 237.548 117.964 238.454 118.585 239.192C119.205 239.93 120.031 240.468 120.957 240.738C121.883 241.007 122.868 240.996 123.788 240.706C124.707 240.416 125.521 239.86 126.125 239.108C126.729 238.356 127.096 237.442 127.181 236.482C127.266 235.521 127.065 234.557 126.602 233.71C126.139 232.864 125.436 232.174 124.581 231.727C123.727 231.28 122.759 231.097 121.8 231.2C121.161 231.268 120.542 231.462 119.979 231.77C119.415 232.078 118.918 232.495 118.516 232.996C118.113 233.496 117.814 234.072 117.635 234.688C117.455 235.305 117.399 235.951 117.47 236.59Z" fill="#407BFF"/>
<path d="M118 300.29C112.37 300.41 102.73 295.21 98.9399 290.13C95.1499 285.05 105.88 288.13 104.76 284.13C103.64 280.13 90.3499 283.13 87.8799 277.31C85.4099 271.49 95.0099 272.82 94.6199 269.85C94.2299 266.88 84.2899 267.51 81.0799 261.35C77.8699 255.19 86.6299 258.61 85.2499 256.06C83.8699 253.51 72.8799 242.76 77.4599 240.5C82.0399 238.24 92.3399 249.43 95.7899 250.68C99.2399 251.93 100.02 244.17 104.5 247.86C108.98 251.55 105.69 267.77 110.97 269.86C114.9 271.44 113.21 264.03 117.73 265.86C125.61 269.13 120.24 300.24 118 300.29Z" fill="#407BFF"/>
<g opacity="0.2">
<path d="M118 300.29C112.37 300.41 102.73 295.21 98.9399 290.13C95.1499 285.05 105.88 288.13 104.76 284.13C103.64 280.13 90.3499 283.13 87.8799 277.31C85.4099 271.49 95.0099 272.82 94.6199 269.85C94.2299 266.88 84.2899 267.51 81.0799 261.35C77.8699 255.19 86.6299 258.61 85.2499 256.06C83.8699 253.51 72.8799 242.76 77.4599 240.5C82.0399 238.24 92.3399 249.43 95.7899 250.68C99.2399 251.93 100.02 244.17 104.5 247.86C108.98 251.55 105.69 267.77 110.97 269.86C114.9 271.44 113.21 264.03 117.73 265.86C125.61 269.13 120.24 300.24 118 300.29Z" fill="white"/>
</g>
<path d="M126.05 293.14C126.14 293.3 125.3 294.14 128.05 294.21C134.9 294.49 147.05 294.03 151.56 287.8C158.06 278.91 143.08 279.73 144.56 274.8C146.04 269.87 162.11 273.9 165.25 266.9C168.39 259.9 156.68 261.27 157.25 257.66C157.82 254.05 170.07 258.73 174.12 251.3C178.17 243.87 167.44 247.85 169.12 244.77C170.8 241.69 184.52 228.91 179 226.05C173.48 223.19 160.69 236.57 156.47 238.05C152.25 239.53 151.27 226.37 145.73 230.76C140.19 235.15 143.82 254.94 137.35 257.4C132.53 259.23 135.16 252.13 129.21 252.4C121.14 252.73 118.48 280.49 126.05 293.14Z" fill="#407BFF"/>
<g opacity="0.3">
<path d="M126.05 293.14C126.14 293.3 125.3 294.14 128.05 294.21C134.9 294.49 147.05 294.03 151.56 287.8C158.06 278.91 143.08 279.73 144.56 274.8C146.04 269.87 162.11 273.9 165.25 266.9C168.39 259.9 156.68 261.27 157.25 257.66C157.82 254.05 170.07 258.73 174.12 251.3C178.17 243.87 167.44 247.85 169.12 244.77C170.8 241.69 184.52 228.91 179 226.05C173.48 223.19 160.69 236.57 156.47 238.05C152.25 239.53 151.27 226.37 145.73 230.76C140.19 235.15 143.82 254.94 137.35 257.4C132.53 259.23 135.16 252.13 129.21 252.4C121.14 252.73 118.48 280.49 126.05 293.14Z" fill="white"/>
</g>
<path d="M120.92 317.38C120.861 317.374 120.804 317.356 120.752 317.327C120.7 317.298 120.655 317.259 120.618 317.213C120.582 317.166 120.555 317.112 120.54 317.055C120.525 316.998 120.521 316.938 120.53 316.88C126.15 270.88 152.66 252.16 152.93 251.98C152.978 251.947 153.032 251.924 153.089 251.912C153.145 251.9 153.204 251.899 153.261 251.91C153.318 251.921 153.373 251.942 153.421 251.974C153.47 252.006 153.512 252.047 153.545 252.095C153.578 252.143 153.601 252.197 153.613 252.253C153.625 252.31 153.625 252.369 153.615 252.426C153.604 252.483 153.582 252.538 153.55 252.586C153.519 252.635 153.478 252.677 153.43 252.71C153.17 252.9 126.99 271.4 121.43 316.99C121.422 317.049 121.403 317.106 121.374 317.158C121.344 317.21 121.304 317.255 121.257 317.292C121.209 317.328 121.155 317.354 121.097 317.37C121.039 317.385 120.979 317.388 120.92 317.38Z" fill="#020304"/>
<path d="M146.85 258.37C146.76 258.368 146.673 258.338 146.602 258.284C146.53 258.23 146.477 258.156 146.45 258.07C146.412 257.957 146.42 257.834 146.472 257.727C146.525 257.62 146.617 257.539 146.73 257.5C146.9 257.45 150.85 256.2 157.31 257.57C157.425 257.597 157.526 257.666 157.591 257.765C157.656 257.864 157.681 257.984 157.66 258.1C157.636 258.217 157.566 258.319 157.467 258.385C157.368 258.45 157.247 258.474 157.13 258.45C150.91 257.13 147.05 258.34 147.01 258.35C146.958 258.367 146.904 258.374 146.85 258.37Z" fill="#020304"/>
<path d="M142 263.96C141.885 263.957 141.776 263.91 141.695 263.828C141.615 263.745 141.57 263.635 141.57 263.52C141.43 249.6 149.49 238.73 149.57 238.62C149.643 238.529 149.747 238.47 149.862 238.453C149.977 238.436 150.094 238.464 150.19 238.53C150.237 238.565 150.277 238.61 150.307 238.661C150.337 238.711 150.357 238.768 150.365 238.826C150.374 238.885 150.371 238.944 150.356 239.002C150.341 239.059 150.315 239.113 150.28 239.16C150.2 239.26 142.28 249.91 142.46 263.51C142.46 263.628 142.414 263.74 142.332 263.825C142.249 263.909 142.138 263.957 142.02 263.96H142Z" fill="#020304"/>
<path d="M134.06 275.74C134.003 275.739 133.947 275.725 133.895 275.701C133.844 275.677 133.798 275.643 133.76 275.6C133.718 275.559 133.685 275.51 133.662 275.456C133.639 275.402 133.627 275.343 133.627 275.285C133.627 275.226 133.639 275.168 133.662 275.114C133.685 275.06 133.718 275.011 133.76 274.97C133.82 274.92 139.76 269.4 147.6 272.2C147.697 272.25 147.772 272.333 147.812 272.435C147.852 272.536 147.854 272.648 147.817 272.751C147.781 272.853 147.708 272.939 147.613 272.992C147.518 273.046 147.407 273.062 147.3 273.04C140 270.42 134.43 275.57 134.38 275.62C134.338 275.661 134.287 275.692 134.232 275.713C134.177 275.734 134.119 275.743 134.06 275.74Z" fill="#020304"/>
<path d="M129.93 283.96C129.847 283.955 129.766 283.927 129.698 283.879C129.629 283.832 129.574 283.766 129.54 283.69C127.563 278.161 127.07 272.21 128.11 266.43C128.119 266.372 128.139 266.316 128.169 266.266C128.199 266.216 128.24 266.172 128.287 266.138C128.335 266.103 128.389 266.078 128.446 266.065C128.503 266.052 128.562 266.05 128.62 266.06C128.736 266.08 128.84 266.144 128.909 266.24C128.978 266.335 129.007 266.454 128.99 266.57C128.001 272.185 128.473 277.96 130.36 283.34C130.383 283.393 130.396 283.45 130.397 283.508C130.398 283.566 130.387 283.624 130.366 283.678C130.344 283.732 130.312 283.781 130.272 283.823C130.232 283.864 130.183 283.897 130.13 283.92C130.067 283.948 129.999 283.961 129.93 283.96Z" fill="#020304"/>
<path d="M121.09 333.82C120.978 333.815 120.873 333.768 120.795 333.688C120.717 333.608 120.672 333.501 120.67 333.39L120.09 321.2C118.38 280.67 90.5899 253.11 90.3099 252.84C90.2434 252.754 90.2101 252.647 90.216 252.539C90.2219 252.431 90.2667 252.329 90.3421 252.251C90.4175 252.173 90.5185 252.125 90.6265 252.115C90.7345 252.106 90.8422 252.136 90.9299 252.2C91.2099 252.48 119.26 280.27 120.98 321.2L121.56 333.39C121.563 333.507 121.519 333.622 121.439 333.708C121.358 333.794 121.248 333.845 121.13 333.85L121.09 333.82Z" fill="#020304"/>
<path d="M101.77 268.05H101.7C101.653 268.047 101.607 268.029 101.57 268L101.42 267.95C97.8045 266.439 93.9181 265.683 89.9999 265.73C89.8822 265.733 89.7682 265.689 89.6822 265.609C89.5962 265.528 89.5451 265.418 89.5399 265.3C89.5386 265.241 89.5489 265.182 89.5703 265.127C89.5917 265.072 89.6237 265.022 89.6646 264.979C89.7055 264.936 89.7543 264.902 89.8084 264.878C89.8625 264.854 89.9208 264.841 89.9799 264.84C94.0304 264.792 98.0483 265.568 101.79 267.12L101.93 267.18H102.01C102.099 267.223 102.17 267.295 102.212 267.384C102.254 267.473 102.264 267.574 102.24 267.67C102.225 267.781 102.168 267.883 102.08 267.953C101.993 268.024 101.882 268.059 101.77 268.05Z" fill="#020304"/>
<path d="M105.7 273.28C105.642 273.276 105.585 273.261 105.533 273.234C105.48 273.208 105.434 273.171 105.397 273.126C105.359 273.081 105.331 273.029 105.315 272.973C105.298 272.917 105.293 272.858 105.3 272.8C106.37 260.8 100.18 250.99 100.11 250.9C100.053 250.8 100.037 250.681 100.066 250.569C100.094 250.457 100.164 250.36 100.262 250.299C100.359 250.237 100.477 250.215 100.59 250.238C100.703 250.26 100.804 250.326 100.87 250.42C100.93 250.52 107.29 260.6 106.18 272.88C106.175 272.938 106.159 272.994 106.132 273.046C106.105 273.097 106.068 273.143 106.023 273.18C105.979 273.217 105.927 273.245 105.872 273.262C105.816 273.28 105.758 273.286 105.7 273.28Z" fill="#020304"/>
<path d="M109.76 280.21C109.647 280.208 109.539 280.161 109.46 280.08C107.973 278.734 106.174 277.779 104.226 277.3C102.278 276.822 100.242 276.836 98.3001 277.34C98.1847 277.37 98.0619 277.354 97.9588 277.294C97.8557 277.234 97.7806 277.135 97.7501 277.02C97.7351 276.963 97.7315 276.904 97.7395 276.846C97.7476 276.789 97.767 276.733 97.7968 276.683C97.8266 276.632 97.8661 276.589 97.913 276.554C97.9599 276.519 98.0133 276.494 98.0701 276.48C100.16 275.92 102.359 275.902 104.458 276.427C106.558 276.952 108.489 278.002 110.07 279.48C110.112 279.521 110.145 279.57 110.168 279.624C110.191 279.678 110.203 279.736 110.203 279.795C110.203 279.853 110.191 279.912 110.168 279.966C110.145 280.02 110.112 280.069 110.07 280.11C110.028 280.146 109.978 280.174 109.925 280.191C109.872 280.208 109.816 280.215 109.76 280.21Z" fill="#020304"/>
<path d="M114.91 291.63C114.843 291.629 114.778 291.612 114.72 291.58C114.667 291.554 114.621 291.517 114.583 291.472C114.545 291.428 114.516 291.376 114.499 291.32C114.481 291.264 114.475 291.205 114.48 291.147C114.485 291.088 114.502 291.032 114.53 290.98C116.568 286.375 117.391 281.324 116.92 276.31C116.912 276.192 116.95 276.076 117.027 275.986C117.103 275.896 117.212 275.84 117.33 275.83C117.388 275.825 117.448 275.831 117.504 275.849C117.56 275.866 117.612 275.895 117.657 275.934C117.701 275.972 117.738 276.019 117.764 276.071C117.791 276.124 117.806 276.181 117.81 276.24C118.32 281.421 117.462 286.645 115.32 291.39C115.282 291.465 115.223 291.528 115.15 291.57C115.077 291.613 114.994 291.633 114.91 291.63Z" fill="#020304"/>
<path d="M146.16 335.74C146.16 349.95 139.76 361.48 120.4 361.48C101.92 361.48 94.6499 349.95 94.6499 335.74C94.6461 330.579 96.1968 325.537 99.0999 321.27H141.71C144.613 325.537 146.164 330.579 146.16 335.74Z" fill="#407BFF"/>
<path opacity="0.7" d="M146.16 335.74C146.16 349.95 139.76 361.48 120.4 361.48C101.92 361.48 94.6499 349.95 94.6499 335.74C94.6461 330.579 96.1968 325.537 99.0999 321.27H141.71C144.613 325.537 146.164 330.579 146.16 335.74Z" fill="white"/>
<path d="M294.1 348.91L304.06 347.46L301.55 324.15L291.58 325.61L294.1 348.91Z" fill="#E8BFBF"/>
<path d="M311.72 347.81C312.583 347.744 313.4 347.393 314.04 346.81C314.174 346.641 314.265 346.441 314.305 346.229C314.345 346.016 314.333 345.797 314.27 345.59C314.241 345.462 314.179 345.344 314.092 345.246C314.004 345.148 313.894 345.074 313.77 345.03C312.44 344.55 308.77 347.24 308.39 347.54C308.349 347.571 308.319 347.613 308.303 347.661C308.287 347.71 308.286 347.762 308.3 347.81C308.317 347.855 308.347 347.894 308.386 347.92C308.426 347.947 308.472 347.961 308.52 347.96C309.589 348.006 310.66 347.955 311.72 347.81ZM313.12 345.47C313.268 345.436 313.422 345.436 313.57 345.47C313.622 345.487 313.669 345.517 313.706 345.557C313.743 345.597 313.768 345.647 313.78 345.7C313.821 345.838 313.829 345.983 313.803 346.124C313.777 346.264 313.718 346.397 313.63 346.51C313.12 347.14 311.49 347.51 309.23 347.51C310.414 346.626 311.739 345.949 313.15 345.51L313.12 345.47Z" fill="#407BFF"/>
<path d="M308.58 347.97H308.66C309.77 347.24 311.76 344.7 311.38 343.61C311.302 343.418 311.159 343.26 310.977 343.163C310.794 343.066 310.582 343.037 310.38 343.08C310.141 343.087 309.906 343.143 309.689 343.244C309.472 343.346 309.279 343.491 309.12 343.67C308.05 344.91 308.26 347.67 308.26 347.75C308.261 347.79 308.27 347.83 308.287 347.866C308.305 347.902 308.329 347.934 308.36 347.96C308.394 347.977 308.431 347.987 308.469 347.989C308.507 347.99 308.545 347.984 308.58 347.97ZM310.25 343.55L310.39 343.48C310.83 343.48 310.88 343.63 310.89 343.68C311.13 344.35 309.8 346.3 308.7 347.2C308.6 346.049 308.87 344.897 309.47 343.91C309.681 343.691 309.967 343.559 310.27 343.54L310.25 343.55Z" fill="#407BFF"/>
<path d="M303 343.33L294.17 345.44C293.978 345.479 293.808 345.587 293.692 345.744C293.575 345.901 293.521 346.096 293.54 346.29L293.83 359.08C293.859 359.293 293.93 359.497 294.039 359.681C294.147 359.866 294.291 360.028 294.462 360.157C294.633 360.286 294.827 360.38 295.035 360.434C295.242 360.488 295.458 360.5 295.67 360.47C295.733 360.476 295.797 360.476 295.86 360.47C299.68 359.47 301.49 358.87 306.35 357.74C309.35 357.06 318.78 356.34 322.65 354.62C326.52 352.9 325.01 348.98 323.25 349.35C317.57 350.57 310.25 348.14 306.14 344.44C305.62 344.13 303.65 343.18 303 343.33Z" fill="#020304"/>
<path opacity="0.2" d="M301.55 324.15L302.84 336.17L292.88 337.63L291.58 325.62L301.55 324.15Z" fill="black"/>
<path d="M306.87 331.23L288.44 334.67C288.44 334.67 279.49 321.89 277.8 312.82C276.04 303.37 277.92 271.21 277.8 270.82C272.59 253.22 258.42 207.62 251.59 190.82C247.8 181.52 245.14 175.26 245.14 175.26L247.05 174.83L262.1 168.67L273.1 170.73C273.1 170.73 306.41 238.1 309.9 263.44C312.47 282.34 306.87 331.23 306.87 331.23Z" fill="#407BFF"/>
<path opacity="0.3" d="M306.87 331.23L288.44 334.67C288.44 334.67 279.49 321.89 277.8 312.82C276.04 303.37 277.92 271.21 277.8 270.82C272.59 253.22 258.42 207.62 251.59 190.82C247.8 181.52 245.14 175.26 245.14 175.26L247.05 174.83L262.1 168.67L273.1 170.73C273.1 170.73 306.41 238.1 309.9 263.44C312.47 282.34 306.87 331.23 306.87 331.23Z" fill="white"/>
<path opacity="0.2" d="M273.46 255.54C268.25 237.94 257.73 211.25 250.89 194.47L246.36 178.47L245.49 175.39L247.08 178.3L264.93 217.84C272.81 233.05 273.58 255.97 273.46 255.54Z" fill="black"/>
<path d="M192.57 343.42L201.45 347.16L210.92 326.84L202.05 323.1L192.57 343.42Z" fill="#E8BFBF"/>
<path d="M207.23 351.42C207.933 351.861 208.766 352.048 209.59 351.95C209.791 351.897 209.975 351.796 210.127 351.654C210.278 351.513 210.393 351.337 210.46 351.14C210.511 351.026 210.532 350.901 210.519 350.776C210.507 350.652 210.463 350.532 210.39 350.43C209.63 349.31 205.3 349.32 204.82 349.32C204.773 349.325 204.727 349.342 204.689 349.371C204.65 349.399 204.619 349.437 204.6 349.48C204.588 349.525 204.589 349.573 204.603 349.617C204.617 349.662 204.644 349.701 204.68 349.73C205.476 350.371 206.33 350.937 207.23 351.42ZM209.63 350.42C209.769 350.478 209.889 350.571 209.98 350.69C210.005 350.735 210.018 350.785 210.018 350.835C210.018 350.886 210.005 350.936 209.98 350.98C209.933 351.108 209.858 351.224 209.759 351.317C209.66 351.411 209.541 351.481 209.41 351.52C208.65 351.72 207.2 351.08 205.41 349.8C206.836 349.768 208.257 349.981 209.61 350.43L209.63 350.42Z" fill="#407BFF"/>
<path d="M204.72 349.77H204.8C206.07 349.84 209.04 349 209.37 347.95C209.424 347.755 209.406 347.547 209.32 347.363C209.234 347.18 209.085 347.034 208.9 346.95C208.713 346.819 208.501 346.729 208.277 346.686C208.053 346.643 207.822 346.648 207.6 346.7C206.06 347.04 204.69 349.27 204.6 349.36C204.583 349.394 204.575 349.432 204.575 349.47C204.575 349.508 204.583 349.546 204.6 349.58C204.602 349.62 204.614 349.658 204.635 349.691C204.656 349.724 204.686 349.751 204.72 349.77ZM208.51 347.3H208.65C209 347.53 208.94 347.69 208.92 347.74C208.73 348.38 206.61 349.14 205.25 349.22C205.818 348.275 206.673 347.535 207.69 347.11C207.982 347.061 208.281 347.121 208.53 347.28L208.51 347.3Z" fill="#407BFF"/>
<path d="M203.06 343.05L195.06 339.69C194.887 339.603 194.686 339.586 194.5 339.641C194.314 339.697 194.157 339.822 194.06 339.99L187.06 349.99C186.962 350.171 186.9 350.369 186.878 350.573C186.857 350.778 186.876 350.984 186.935 351.181C186.993 351.378 187.09 351.562 187.22 351.721C187.349 351.881 187.509 352.013 187.69 352.11L187.86 352.19C191.35 353.62 193.11 354.14 197.5 356.02C200.19 357.18 207.89 361.97 211.85 362.82C215.81 363.67 216.85 359.82 215.29 359.09C210.22 356.82 205.96 350.82 204.85 345.63C204.6 345.13 203.62 343.28 203.06 343.05Z" fill="#020304"/>
<path opacity="0.2" d="M211.31 327.07L206.18 337.43L197.39 333.49L202.51 323.13L211.31 327.07Z" fill="black"/>
<path d="M213.16 338.36L195.48 328.94C195.48 328.94 192.09 316.35 195.48 308.32C202 292.87 218.98 270.15 219.09 269.72C223.62 251.94 231.56 203.23 234.28 185.32C235.78 175.39 236.67 173.25 236.67 173.25L238.54 173.86L265.54 173.91C265.54 173.91 270.64 214.91 251.08 278.31C246.22 294.09 238.08 307.21 224.65 324.96C221.054 329.622 217.219 334.095 213.16 338.36Z" fill="#407BFF"/>
<path opacity="0.3" d="M213.16 338.36L195.48 328.94C195.48 328.94 192.09 316.35 195.48 308.32C202 292.87 218.98 270.15 219.09 269.72C223.62 251.94 231.56 203.23 234.28 185.32C235.78 175.39 236.67 173.25 236.67 173.25L238.54 173.86L265.54 173.91C265.54 173.91 270.64 214.91 251.08 278.31C246.22 294.09 238.08 307.21 224.65 324.96C221.054 329.622 217.219 334.095 213.16 338.36Z" fill="white"/>
<path d="M289.56 140.44C289.97 137.191 291.346 134.139 293.51 131.68C294.06 131.1 296.17 130.22 297.37 129.44C303.24 125.59 315 120.78 315 120.78L318.63 123.94C318.63 123.94 311.47 130.86 307.21 134.18C306.37 134.84 305.4 135.63 304.38 136.47C302.52 138.01 293.8 143.76 292.14 145.21L289.56 140.44Z" fill="#E8BFBF"/>
<path d="M325.34 118.99L318.63 123.99L314.87 121.22C315.836 119.999 316.874 118.836 317.98 117.74C318.32 117.41 318.591 117.015 318.776 116.579C318.962 116.143 319.058 115.674 319.06 115.2C318.984 113.654 319.33 112.116 320.06 110.75C320.058 110.724 320.058 110.697 320.06 110.67C320.402 110.189 320.874 109.815 321.421 109.592C321.968 109.369 322.567 109.306 323.148 109.411C323.729 109.516 324.268 109.784 324.702 110.184C325.137 110.584 325.448 111.1 325.6 111.67L326.6 115.25C326.784 115.928 326.762 116.646 326.538 117.312C326.313 117.977 325.897 118.562 325.34 118.99Z" fill="#E8BFBF"/>
<path d="M291.7 141.78L289.93 143.4C289.38 142.96 288.51 142.25 287.41 141.33C278.79 134.18 257.18 116.82 265.79 111.87C273.18 107.62 281.02 120.61 284.93 124.52C286.766 126.477 288.358 128.65 289.67 130.99C291.51 134.31 292.87 138.32 291.7 141.78Z" fill="#020304"/>
<path d="M289.66 129.44C286.594 131.684 284.001 134.511 282.03 137.76C282.752 140.123 283.972 142.304 285.607 144.157C287.242 146.009 289.255 147.49 291.51 148.5C294.016 142.816 295.091 136.605 294.64 130.41C293.08 130.05 291.22 129.78 289.66 129.44Z" fill="#020304"/>
<path d="M242.21 110.86C239.12 111.86 235.59 111.05 233.61 113.62C231.63 116.19 231.04 119.56 231.04 122.8C231.222 127.307 231.913 131.779 233.1 136.13C234.34 141.464 235.583 146.78 236.83 152.08C237.68 155.72 236.78 172.63 237.69 172.91C237.69 172.91 265.96 172.36 273.05 171.36C273.05 171.36 273.66 153.98 274.23 148.06C274.36 146.75 276.35 141.17 276.58 139.77C277.69 133.17 275.52 128.52 273.24 122.22C273.24 122.22 268.24 112.15 265.79 111.87C261.44 111.38 250.8 108.05 242.21 110.86Z" fill="#020304"/>
<path d="M241 119.19C240.9 118.61 235.88 108.47 231.07 115.56C224.38 125.42 223.93 137.8 223.93 137.8C223.93 137.8 219.82 149.8 222.68 152.46C225.54 155.12 228.68 156.78 230.68 155.29C232.092 154.058 233.218 152.532 233.98 150.82C233.98 150.82 242.78 129.51 241 119.19Z" fill="#020304"/>
<path d="M240.69 107.1C240.202 107.539 239.822 108.084 239.577 108.693C239.332 109.302 239.23 109.958 239.278 110.613C239.327 111.267 239.524 111.902 239.855 112.468C240.187 113.035 240.643 113.518 241.19 113.88C240.897 114.908 240.9 115.999 241.198 117.025C241.497 118.052 242.08 118.973 242.879 119.684C243.678 120.394 244.661 120.865 245.716 121.041C246.771 121.217 247.853 121.092 248.84 120.68C248 122.2 248.95 124.21 250.42 125.15C251.971 125.952 253.676 126.409 255.42 126.49C257.171 126.574 258.85 127.207 260.22 128.3L265.56 120.61C266.345 119.67 266.853 118.532 267.03 117.32C267.08 116.11 266.16 114.77 264.95 114.86C265.557 114.206 265.895 113.347 265.896 112.454C265.898 111.562 265.564 110.701 264.96 110.045C264.356 109.388 263.526 108.982 262.637 108.909C261.748 108.836 260.863 109.101 260.16 109.65C260.246 109.126 260.176 108.588 259.959 108.103C259.742 107.617 259.388 107.206 258.94 106.92C258.031 106.372 257 106.059 255.94 106.01L240.69 107.1Z" fill="#020304"/>
<path d="M243.9 94.0503C245.29 99.1503 246.98 108.56 243.61 112.28C249.786 114.946 255.345 118.858 259.94 123.77C261.154 122.654 261.987 121.185 262.32 119.57C262.654 117.955 262.472 116.276 261.8 114.77C261.407 113.814 260.826 112.947 260.09 112.22C259.355 111.493 258.481 110.922 257.52 110.54C253.8 108.96 253.77 105.31 254.39 101.8L243.9 94.0503Z" fill="#E8BFBF"/>
<path opacity="0.2" d="M246 102.74L249.51 103.69C251.015 104.099 252.588 104.191 254.13 103.96C254.001 105.041 254.113 106.138 254.46 107.17C253.285 107.624 252.004 107.726 250.772 107.465C249.54 107.204 248.41 106.591 247.52 105.7C246.871 104.794 246.359 103.796 246 102.74Z" fill="black"/>
<path d="M237.09 89.7002C240.8 97.5402 242.21 100.94 247.93 103.44C256.55 107.21 265.35 100.91 264.05 92.1202C262.87 84.2102 256.99 72.7002 247.84 72.6602C245.826 72.6415 243.84 73.1375 242.071 74.1012C240.302 75.0649 238.808 76.4644 237.732 78.167C236.655 79.8696 236.031 81.8189 235.919 83.8303C235.807 85.8416 236.21 87.8483 237.09 89.6602V89.7002Z" fill="#E8BFBF"/>
<path d="M241.17 74.7204C238.46 73.4604 235.1 74.4904 232.84 76.4704C230.58 78.4504 229.15 81.3104 227.84 84.0604C227.051 85.5234 226.446 87.0786 226.04 88.6904C225.636 90.3212 225.857 92.0445 226.66 93.5204C227.089 94.2099 227.675 94.7879 228.37 95.2069C229.065 95.6259 229.85 95.8738 230.66 95.9304C231.158 95.9611 231.639 96.1272 232.049 96.411C232.46 96.6947 232.785 97.0852 232.99 97.5404C233.195 98.3814 233.195 99.2594 232.99 100.1C232.8 100.916 232.8 101.765 232.99 102.58C233.263 103.222 233.71 103.774 234.281 104.173C234.852 104.573 235.524 104.804 236.22 104.84C237.613 104.879 239 104.655 240.31 104.18C240.709 104.044 241.137 104.017 241.55 104.101C241.963 104.185 242.347 104.379 242.66 104.66C242.82 104.807 242.955 104.98 243.06 105.17C243.162 105.344 243.31 105.486 243.488 105.58C243.666 105.675 243.866 105.718 244.067 105.706C244.268 105.693 244.461 105.625 244.626 105.51C244.791 105.394 244.92 105.235 245 105.05C246.21 102.17 244.45 97.5804 241.83 94.0504C240.44 92.1904 240.51 92.6604 239.97 90.4004C239.51 88.5204 240.2 86.5604 241.04 84.8204C242.17 82.4904 243.61 80.2304 243.16 77.4504C243.075 76.8678 242.85 76.3147 242.503 75.839C242.156 75.3633 241.699 74.9793 241.17 74.7204Z" fill="#020304"/>
<path d="M237.32 97.73C238.555 99.0404 240.26 99.8066 242.06 99.86C244.45 99.92 245.06 97.64 243.9 95.69C242.9 93.94 240.36 91.81 238.2 92.69C236.04 93.57 235.82 96.05 237.32 97.73Z" fill="#E8BFBF"/>
<path d="M252 88.3101C252.28 88.9901 252.83 89.3601 253.26 89.1801C253.69 89.0001 253.8 88.3501 253.56 87.6801C253.32 87.0101 252.74 86.6801 252.3 86.8101C251.86 86.9401 251.77 87.6501 252 88.3101Z" fill="#020304"/>
<path d="M259.35 85.1502C259.62 85.8402 260.17 86.2002 260.6 86.0302C261.03 85.8602 261.14 85.2002 260.9 84.5302C260.66 83.8602 260.08 83.5302 259.65 83.6602C259.22 83.7902 259.09 84.5002 259.35 85.1502Z" fill="#020304"/>
<path d="M259.46 83.7799L260.85 82.6899C260.85 82.6899 260.55 84.2399 259.46 83.7799Z" fill="#020304"/>
<path d="M257.45 86.6201C259.15 88.3001 260.45 88.6201 262.27 89.7601C262.252 90.2193 262.089 90.6607 261.803 91.0204C261.517 91.3801 261.123 91.6392 260.68 91.7601L257.45 86.6201Z" fill="#ED847E"/>
<path d="M259.9 94.9704C260.218 94.8536 260.526 94.7097 260.82 94.5404C260.866 94.515 260.901 94.4724 260.916 94.4218C260.931 94.3713 260.925 94.3168 260.9 94.2704C260.871 94.2252 260.827 94.1921 260.775 94.1774C260.724 94.1627 260.668 94.1673 260.62 94.1904C259.855 94.6347 258.995 94.8901 258.112 94.9354C257.228 94.9806 256.346 94.8143 255.54 94.4504C255.491 94.4257 255.434 94.4213 255.382 94.4382C255.329 94.455 255.286 94.4917 255.26 94.5404C255.246 94.5638 255.237 94.5898 255.234 94.6169C255.23 94.6439 255.232 94.6714 255.24 94.6976C255.247 94.7239 255.26 94.7483 255.277 94.7694C255.294 94.7905 255.316 94.8078 255.34 94.8204C256.052 95.1485 256.822 95.3308 257.605 95.3565C258.388 95.3823 259.168 95.251 259.9 94.9704Z" fill="#020304"/>
<path d="M251.76 82.8601C251.755 82.9519 251.722 83.0398 251.664 83.1115C251.607 83.1833 251.528 83.2352 251.44 83.2602C249.52 83.8302 248.67 86.2602 248.67 86.2602C248.652 86.314 248.624 86.3638 248.587 86.4068C248.55 86.4497 248.505 86.485 248.454 86.5105C248.404 86.5361 248.349 86.5514 248.292 86.5556C248.236 86.5598 248.179 86.5529 248.125 86.5352C248.071 86.5174 248.021 86.4893 247.978 86.4523C247.935 86.4153 247.9 86.3702 247.875 86.3196C247.849 86.269 247.834 86.2139 247.83 86.1573C247.825 86.1008 247.832 86.044 247.85 85.9902C247.92 85.8902 248.85 83.1002 251.19 82.4002C251.301 82.3718 251.419 82.3871 251.52 82.4429C251.62 82.4986 251.695 82.5907 251.73 82.7001C251.754 82.75 251.764 82.8051 251.76 82.8601Z" fill="#020304"/>
<path d="M260.61 81.6802C260.536 81.7332 260.446 81.7616 260.355 81.7616C260.264 81.7616 260.174 81.7332 260.1 81.6802C258.54 80.4202 256.05 81.1102 256.04 81.1202C255.986 81.1371 255.928 81.143 255.871 81.1375C255.815 81.132 255.76 81.1153 255.709 81.0883C255.659 81.0613 255.615 81.0246 255.579 80.9803C255.543 80.936 255.516 80.8849 255.5 80.8302C255.469 80.7201 255.481 80.6022 255.536 80.5014C255.59 80.4006 255.681 80.3248 255.79 80.2902C255.91 80.2902 258.79 79.4702 260.64 80.9902C260.727 81.0641 260.782 81.1682 260.795 81.2814C260.808 81.3946 260.778 81.5086 260.71 81.6002C260.682 81.6326 260.648 81.6597 260.61 81.6802Z" fill="#020304"/>
<path d="M252.16 86.9203L253.55 85.8403C253.55 85.8403 253.23 87.3903 252.16 86.9203Z" fill="#020304"/>
<path d="M241.77 73.4102C240.676 73.5066 239.618 73.8501 238.675 74.4148C237.733 74.9795 236.931 75.7506 236.33 76.6702C235.53 77.9102 235.25 79.7902 236.43 80.6702C237.032 81.0374 237.725 81.228 238.43 81.2202C241.43 81.4902 245.22 79.1402 245.22 79.1402C244.05 74.1402 254.48 70.3202 259.62 78.0202C261.13 80.2802 260.72 81.9202 263.23 82.9702C264.41 83.4602 265.97 83.3202 266.73 84.3602C267.98 86.0702 265.57 88.9702 267.1 90.4402C268.15 91.4402 270.53 91.0602 270.68 92.5102C270.74 93.1902 270.3 94.1702 270.95 94.3702C271.31 94.4802 271.65 94.1502 271.88 93.8502C272.505 93.179 272.964 92.3707 273.22 91.4902C273.342 91.05 273.315 90.5818 273.143 90.1585C272.971 89.7353 272.664 89.3807 272.27 89.1502C271.63 88.8602 269.94 89.1502 270.05 89.8702C269.791 88.2842 269.707 86.6745 269.8 85.0702C270.08 83.7302 271.36 82.5602 270.97 81.2402C270.58 79.9202 268.89 79.2402 267.44 79.0602C265.99 78.8802 264.34 78.6702 263.44 77.5102C262.54 76.3502 262.9 74.3502 262.58 72.7402C262.312 71.734 261.81 70.8053 261.115 70.0302C260.42 69.255 259.551 68.6554 258.58 68.2802C252.73 65.7702 243.76 66.1302 241.77 73.4102Z" fill="#020304"/>
<path d="M258.24 100.05L238.24 110.1C235.06 111.693 232.592 114.42 231.323 117.742C230.053 121.065 230.073 124.742 231.38 128.05L241 152.65C242.298 155.955 244.783 158.657 247.967 160.227C251.152 161.797 254.808 162.123 258.22 161.14L279.72 154.94C281.627 154.393 283.398 153.454 284.921 152.183C286.443 150.912 287.683 149.336 288.562 147.558C289.44 145.78 289.937 143.837 290.021 141.856C290.106 139.874 289.775 137.896 289.05 136.05L277.9 107.63C277.182 105.782 276.085 104.103 274.681 102.703C273.276 101.302 271.595 100.21 269.745 99.497C267.894 98.7835 265.915 98.4642 263.934 98.5594C261.953 98.6546 260.014 99.1624 258.24 100.05ZM254.93 142.29C253.333 142.916 251.587 143.054 249.911 142.688C248.236 142.321 246.707 141.465 245.518 140.229C244.329 138.994 243.533 137.433 243.231 135.744C242.929 134.056 243.135 132.316 243.822 130.745C244.509 129.174 245.647 127.841 247.091 126.916C248.535 125.992 250.222 125.516 251.936 125.55C253.651 125.584 255.317 126.125 256.724 127.106C258.131 128.087 259.215 129.463 259.84 131.06C260.261 132.122 260.467 133.257 260.448 134.399C260.429 135.541 260.184 136.668 259.728 137.716C259.272 138.763 258.613 139.71 257.789 140.502C256.966 141.294 255.994 141.915 254.93 142.33V142.29Z" fill="#407BFF"/>
<path d="M258.24 100.05L238.24 110.1C235.06 111.693 232.592 114.42 231.323 117.742C230.053 121.065 230.073 124.742 231.38 128.05L241 152.65C242.298 155.955 244.783 158.657 247.967 160.227C251.152 161.797 254.808 162.123 258.22 161.14L279.72 154.94C281.627 154.393 283.398 153.454 284.921 152.183C286.443 150.912 287.683 149.336 288.562 147.558C289.44 145.78 289.937 143.837 290.021 141.856C290.106 139.874 289.775 137.896 289.05 136.05L277.9 107.63C277.182 105.782 276.085 104.103 274.681 102.703C273.276 101.302 271.595 100.21 269.745 99.497C267.894 98.7835 265.915 98.4642 263.934 98.5594C261.953 98.6546 260.014 99.1624 258.24 100.05ZM254.93 142.29C253.333 142.916 251.587 143.054 249.911 142.688C248.236 142.321 246.707 141.465 245.518 140.229C244.329 138.994 243.533 137.433 243.231 135.744C242.929 134.056 243.135 132.316 243.822 130.745C244.509 129.174 245.647 127.841 247.091 126.916C248.535 125.992 250.222 125.516 251.936 125.55C253.651 125.584 255.317 126.125 256.724 127.106C258.131 128.087 259.215 129.463 259.84 131.06C260.261 132.122 260.467 133.257 260.448 134.399C260.429 135.541 260.184 136.668 259.728 137.716C259.272 138.763 258.613 139.71 257.789 140.502C256.966 141.294 255.994 141.915 254.93 142.33V142.29Z" fill="#407BFF"/>
<path opacity="0.1" d="M289.05 136.05L277.9 107.63C277.181 105.782 276.085 104.103 274.681 102.703C273.276 101.302 271.595 100.21 269.745 99.497C267.894 98.7835 265.915 98.4642 263.934 98.5594C261.953 98.6546 260.014 99.1624 258.24 100.05L252.43 103.05L248.53 105.05L238.25 110.22C235.097 111.81 232.647 114.515 231.377 117.81C230.108 121.106 230.109 124.755 231.38 128.05L241 152.65C242.298 155.955 244.782 158.657 247.967 160.227C251.152 161.797 254.808 162.123 258.22 161.14L279.73 154.94C281.432 154.449 283.027 153.642 284.43 152.56C285.484 151.766 286.417 150.823 287.2 149.76C288.652 147.822 289.584 145.545 289.908 143.146C290.231 140.746 289.936 138.303 289.05 136.05ZM254.93 142.31C253.334 142.933 251.589 143.07 249.916 142.702C248.242 142.335 246.715 141.479 245.527 140.245C244.34 139.01 243.544 137.451 243.242 135.764C242.94 134.078 243.144 132.339 243.829 130.769C244.513 129.198 245.648 127.866 247.09 126.94C248.531 126.014 250.215 125.535 251.928 125.565C253.641 125.596 255.307 126.133 256.715 127.109C258.123 128.085 259.211 129.456 259.84 131.05C260.262 132.113 260.47 133.248 260.452 134.392C260.433 135.535 260.189 136.663 259.732 137.712C259.276 138.76 258.617 139.708 257.793 140.501C256.968 141.293 255.996 141.915 254.93 142.33V142.31Z" fill="white"/>
<path d="M258.44 101.97L239.69 111.39C236.716 112.884 234.406 115.435 233.215 118.542C232.023 121.65 232.036 125.091 233.25 128.19L242.3 151.25C243.51 154.357 245.837 156.9 248.824 158.38C251.812 159.861 255.245 160.171 258.45 159.25L278.61 153.43C280.395 152.916 282.053 152.034 283.477 150.842C284.902 149.65 286.062 148.174 286.884 146.508C287.706 144.842 288.171 143.023 288.249 141.167C288.328 139.312 288.018 137.46 287.34 135.73L276.89 109.05C276.213 107.318 275.181 105.746 273.862 104.435C272.543 103.124 270.965 102.103 269.228 101.437C267.492 100.771 265.635 100.474 263.778 100.566C261.92 100.657 260.102 101.136 258.44 101.97ZM243.69 137.42C243.065 135.824 242.927 134.078 243.294 132.403C243.661 130.728 244.517 129.2 245.752 128.011C246.988 126.823 248.548 126.027 250.236 125.725C251.923 125.423 253.663 125.628 255.234 126.314C256.805 127.001 258.137 128.137 259.063 129.581C259.988 131.024 260.464 132.71 260.432 134.424C260.399 136.138 259.859 137.804 258.88 139.211C257.901 140.619 256.526 141.704 254.93 142.33C253.87 142.748 252.738 142.952 251.598 142.931C250.459 142.91 249.335 142.664 248.291 142.208C247.247 141.752 246.303 141.094 245.513 140.273C244.724 139.451 244.104 138.482 243.69 137.42Z" fill="#407BFF"/>
<path opacity="0.1" d="M258.44 101.97L239.69 111.39C236.716 112.884 234.406 115.435 233.215 118.542C232.023 121.65 232.036 125.091 233.25 128.19L242.3 151.25C243.51 154.357 245.837 156.9 248.824 158.38C251.812 159.861 255.245 160.171 258.45 159.25L278.61 153.43C280.395 152.916 282.053 152.034 283.477 150.842C284.902 149.65 286.062 148.174 286.884 146.508C287.706 144.842 288.171 143.023 288.249 141.167C288.328 139.312 288.018 137.46 287.34 135.73L276.89 109.05C276.213 107.318 275.181 105.746 273.862 104.435C272.543 103.124 270.965 102.103 269.228 101.437C267.492 100.771 265.635 100.474 263.778 100.566C261.92 100.657 260.102 101.136 258.44 101.97ZM243.69 137.42C243.065 135.824 242.927 134.078 243.294 132.403C243.661 130.728 244.517 129.2 245.752 128.011C246.988 126.823 248.548 126.027 250.236 125.725C251.923 125.423 253.663 125.628 255.234 126.314C256.805 127.001 258.137 128.137 259.063 129.581C259.988 131.024 260.464 132.71 260.432 134.424C260.399 136.138 259.859 137.804 258.88 139.211C257.901 140.619 256.526 141.704 254.93 142.33C253.87 142.748 252.738 142.952 251.598 142.931C250.459 142.91 249.335 142.664 248.291 142.208C247.247 141.752 246.303 141.094 245.513 140.273C244.724 139.451 244.104 138.482 243.69 137.42Z" fill="#407BFF"/>
<path d="M351.62 93.05L351.05 94.05L350.73 94.63L349.82 96.28L350.2 100.51C350.22 100.689 350.2 100.87 350.14 101.04C350.078 101.224 349.977 101.393 349.845 101.534C349.712 101.676 349.55 101.787 349.37 101.86L341.47 104.95C341.289 105.022 341.095 105.052 340.901 105.038C340.707 105.024 340.519 104.967 340.35 104.87C340.238 104.814 340.137 104.74 340.05 104.65L335.58 100.1L329.22 102.59L330.14 104.94L323.79 107.42L325.3 111.29L320.63 113.12C320.443 113.192 320.244 113.224 320.044 113.214C319.844 113.204 319.648 113.151 319.47 113.06C319.348 113.002 319.237 112.924 319.14 112.83L316.45 110.3L310.09 112.78L311.61 116.65L304.93 119.27L306.45 123.15C306.51 123.301 306.539 123.462 306.536 123.625C306.533 123.787 306.498 123.947 306.433 124.096C306.368 124.245 306.274 124.379 306.157 124.491C306.04 124.603 305.901 124.691 305.75 124.75L287.46 131.91L279.52 111.66L345.7 85.75L346.7 86.28L350.05 88.01C350.492 88.2293 350.885 88.5359 351.205 88.9113C351.525 89.2867 351.766 89.7232 351.913 90.1942C352.06 90.6653 352.109 91.1613 352.059 91.6521C352.009 92.143 351.859 92.6185 351.62 93.05Z" fill="#407BFF"/>
<g opacity="0.1">
<path d="M351.62 93.05L351.05 94.05L350.73 94.63L349.82 96.28L350.2 100.51C350.22 100.689 350.2 100.87 350.14 101.04C350.078 101.224 349.977 101.393 349.845 101.534C349.712 101.676 349.55 101.787 349.37 101.86L341.47 104.95C341.289 105.022 341.095 105.052 340.901 105.038C340.707 105.024 340.519 104.967 340.35 104.87C340.238 104.814 340.137 104.74 340.05 104.65L335.58 100.1L329.22 102.59L330.14 104.94L323.79 107.42L325.3 111.29L320.63 113.12C320.443 113.192 320.244 113.224 320.044 113.214C319.844 113.204 319.648 113.151 319.47 113.06C319.348 113.002 319.237 112.924 319.14 112.83L316.45 110.3L310.09 112.78L311.61 116.65L304.93 119.27L306.45 123.15C306.51 123.301 306.539 123.462 306.536 123.625C306.533 123.787 306.498 123.947 306.433 124.096C306.368 124.245 306.274 124.379 306.157 124.491C306.04 124.603 305.901 124.691 305.75 124.75L287.46 131.91L279.52 111.66L345.7 85.75L346.7 86.28L350.05 88.01C350.492 88.2293 350.885 88.5359 351.205 88.9113C351.525 89.2867 351.766 89.7232 351.913 90.1942C352.06 90.6653 352.109 91.1613 352.059 91.6521C352.009 92.143 351.859 92.6185 351.62 93.05Z" fill="white"/>
</g>
<path d="M351.36 90.7704L280.6 118.47L278.54 113.27L346 86.8604L349.36 88.5804C350.64 89.2404 351.37 89.8504 351.36 90.7704Z" fill="#407BFF"/>
<path opacity="0.1" d="M351.36 90.7704L280.6 118.47L278.54 113.27L346 86.8604L349.36 88.5804C350.64 89.2404 351.37 89.8504 351.36 90.7704Z" fill="black"/>
<path d="M350 94.6702L349.32 96.2102C349.315 96.2366 349.315 96.2639 349.32 96.2903L349.71 100.47C349.736 100.619 349.736 100.771 349.71 100.92C349.704 100.945 349.691 100.968 349.674 100.988C349.656 101.007 349.634 101.021 349.61 101.03L341.02 104.41C340.999 104.423 340.975 104.429 340.95 104.429C340.926 104.429 340.901 104.423 340.88 104.41C340.794 104.359 340.717 104.295 340.65 104.22L335.73 99.2802C335.705 99.263 335.676 99.2538 335.645 99.2538C335.615 99.2538 335.585 99.263 335.56 99.2802L328.56 102.02C328.522 102.038 328.491 102.069 328.475 102.108C328.458 102.147 328.456 102.19 328.47 102.23L329.3 104.34C329.308 104.36 329.312 104.381 329.312 104.402C329.312 104.424 329.308 104.445 329.299 104.464C329.291 104.484 329.279 104.501 329.263 104.516C329.248 104.531 329.23 104.543 329.21 104.55L323.26 106.89C323.24 106.898 323.222 106.91 323.207 106.924C323.192 106.939 323.179 106.957 323.171 106.976C323.163 106.996 323.158 107.017 323.158 107.038C323.158 107.059 323.162 107.081 323.17 107.1L324.6 110.73C324.61 110.75 324.615 110.771 324.616 110.793C324.616 110.814 324.612 110.836 324.604 110.856C324.595 110.876 324.582 110.894 324.566 110.908C324.55 110.923 324.531 110.934 324.51 110.94L320.15 112.66C320.129 112.673 320.105 112.679 320.08 112.679C320.056 112.679 320.031 112.673 320.01 112.66C319.919 112.608 319.835 112.544 319.76 112.47L316.56 109.53C316.536 109.516 316.508 109.509 316.48 109.509C316.452 109.509 316.425 109.516 316.4 109.53L309.47 112.26C309.449 112.267 309.43 112.278 309.414 112.292C309.398 112.307 309.385 112.324 309.377 112.344C309.368 112.364 309.364 112.386 309.365 112.408C309.365 112.429 309.371 112.451 309.38 112.47L310.84 116.19C310.85 116.21 310.855 116.231 310.856 116.253C310.856 116.274 310.852 116.296 310.844 116.316C310.835 116.336 310.822 116.354 310.806 116.368C310.79 116.383 310.771 116.394 310.75 116.4L284.14 126.87C284.102 126.884 284.06 126.882 284.022 126.865C283.985 126.848 283.956 126.818 283.94 126.78L281.2 120.05C281.186 120.01 281.188 119.967 281.205 119.928C281.221 119.889 281.252 119.858 281.29 119.84L350.63 92.5502C350.66 92.539 350.693 92.537 350.724 92.5445C350.755 92.552 350.783 92.5687 350.805 92.5924C350.826 92.6161 350.84 92.6457 350.845 92.6774C350.849 92.7091 350.844 92.7415 350.83 92.7702L350 94.6702Z" fill="#407BFF"/>
<path opacity="0.1" d="M350 94.6702L349.32 96.2102C349.315 96.2366 349.315 96.2639 349.32 96.2903L349.71 100.47C349.736 100.619 349.736 100.771 349.71 100.92C349.704 100.945 349.691 100.968 349.674 100.988C349.656 101.007 349.634 101.021 349.61 101.03L341.02 104.41C340.999 104.423 340.975 104.429 340.95 104.429C340.926 104.429 340.901 104.423 340.88 104.41C340.794 104.359 340.717 104.295 340.65 104.22L335.73 99.2802C335.705 99.263 335.676 99.2538 335.645 99.2538C335.615 99.2538 335.585 99.263 335.56 99.2802L328.56 102.02C328.522 102.038 328.491 102.069 328.475 102.108C328.458 102.147 328.456 102.19 328.47 102.23L329.3 104.34C329.308 104.36 329.312 104.381 329.312 104.402C329.312 104.424 329.308 104.445 329.299 104.464C329.291 104.484 329.279 104.501 329.263 104.516C329.248 104.531 329.23 104.543 329.21 104.55L323.26 106.89C323.24 106.898 323.222 106.91 323.207 106.924C323.192 106.939 323.179 106.957 323.171 106.976C323.163 106.996 323.158 107.017 323.158 107.038C323.158 107.059 323.162 107.081 323.17 107.1L324.6 110.73C324.61 110.75 324.615 110.771 324.616 110.793C324.616 110.814 324.612 110.836 324.604 110.856C324.595 110.876 324.582 110.894 324.566 110.908C324.55 110.923 324.531 110.934 324.51 110.94L320.15 112.66C320.129 112.673 320.105 112.679 320.08 112.679C320.056 112.679 320.031 112.673 320.01 112.66C319.919 112.608 319.835 112.544 319.76 112.47L316.56 109.53C316.536 109.516 316.508 109.509 316.48 109.509C316.452 109.509 316.425 109.516 316.4 109.53L309.47 112.26C309.449 112.267 309.43 112.278 309.414 112.292C309.398 112.307 309.385 112.324 309.377 112.344C309.368 112.364 309.364 112.386 309.365 112.408C309.365 112.429 309.371 112.451 309.38 112.47L310.84 116.19C310.85 116.21 310.855 116.231 310.856 116.253C310.856 116.274 310.852 116.296 310.844 116.316C310.835 116.336 310.822 116.354 310.806 116.368C310.79 116.383 310.771 116.394 310.75 116.4L284.14 126.87C284.102 126.884 284.06 126.882 284.022 126.865C283.985 126.848 283.956 126.818 283.94 126.78L281.2 120.05C281.186 120.01 281.188 119.967 281.205 119.928C281.221 119.889 281.252 119.858 281.29 119.84L350.63 92.5502C350.66 92.539 350.693 92.537 350.724 92.5445C350.755 92.552 350.783 92.5687 350.805 92.5924C350.826 92.6161 350.84 92.6457 350.845 92.6774C350.849 92.7091 350.844 92.7415 350.83 92.7702L350 94.6702Z" fill="black"/>
<path opacity="0.3" d="M248.07 124.05C246.07 124.836 244.348 126.197 243.121 127.962C241.894 129.726 241.218 131.815 241.178 133.963C241.137 136.112 241.735 138.224 242.895 140.034C244.055 141.843 245.725 143.268 247.694 144.128C249.663 144.988 251.843 145.246 253.959 144.867C256.074 144.489 258.03 143.492 259.579 142.003C261.129 140.513 262.202 138.598 262.663 136.499C263.124 134.4 262.952 132.212 262.17 130.21C261.652 128.877 260.876 127.66 259.885 126.628C258.895 125.597 257.711 124.771 256.401 124.198C255.09 123.626 253.68 123.318 252.25 123.293C250.821 123.267 249.4 123.525 248.07 124.05ZM254.93 142.35C253.333 142.976 251.587 143.114 249.911 142.748C248.236 142.381 246.707 141.525 245.518 140.289C244.329 139.054 243.533 137.493 243.231 135.805C242.929 134.116 243.135 132.376 243.822 130.805C244.509 129.234 245.647 127.901 247.091 126.976C248.535 126.052 250.221 125.576 251.936 125.61C253.651 125.644 255.317 126.185 256.724 127.166C258.131 128.147 259.215 129.523 259.84 131.12C260.671 133.258 260.621 135.638 259.701 137.739C258.78 139.84 257.065 141.491 254.93 142.33V142.35Z" fill="white"/>
<path opacity="0.1" d="M287.21 149.75C286.431 150.813 285.501 151.756 284.45 152.55L248.52 104.96C248.52 104.96 251.69 103.37 252.41 102.89C252.416 102.943 252.433 102.994 252.46 103.04C254 106.37 282.24 143.05 287.21 149.75Z" fill="white"/>
<path opacity="0.1" d="M282 154.05C281.78 154.15 271.31 157.34 271.31 157.34L259.64 141.89C261.401 140.13 262.504 137.819 262.766 135.343C263.027 132.867 262.431 130.376 261.076 128.287C259.721 126.198 257.69 124.638 255.323 123.867C252.956 123.095 250.395 123.16 248.07 124.05C247.587 124.231 247.122 124.455 246.68 124.72L236.36 111.05C236.36 111.05 245.43 106.73 246.43 106.05C246.7 107.98 282 153.65 282 154.05Z" fill="white"/>
<path d="M239.19 78.9901C238.603 79.6863 238.184 80.5078 237.965 81.3914C237.746 82.275 237.732 83.1972 237.926 84.0868C238.119 84.9765 238.514 85.81 239.079 86.5231C239.645 87.2362 240.368 87.8099 241.19 88.2001C242.05 88.6001 242.99 88.7901 243.83 89.2001C244.269 89.377 244.656 89.661 244.956 90.0261C245.257 90.3912 245.461 90.8258 245.55 91.2901C245.65 92.2901 244.88 93.2901 244.96 94.2901C245.046 94.7583 245.228 95.2035 245.495 95.5977C245.762 95.9919 246.107 96.3264 246.51 96.5801C247.32 97.0863 248.004 97.7702 248.51 98.5801C248.624 98.7858 248.694 99.0127 248.716 99.2467C248.738 99.4806 248.712 99.7167 248.639 99.94C248.565 100.163 248.447 100.369 248.291 100.545C248.134 100.72 247.943 100.862 247.73 100.96C247.622 101.151 247.566 101.366 247.566 101.585C247.566 101.804 247.622 102.019 247.73 102.21C247.858 102.34 248.027 102.423 248.208 102.447C248.389 102.471 248.573 102.433 248.73 102.34C249.441 101.896 250.031 101.282 250.448 100.555C250.865 99.8275 251.096 99.0082 251.12 98.1701C251.111 97.3395 250.867 96.5285 250.418 95.8298C249.969 95.1312 249.332 94.5733 248.58 94.2201C248.485 93.9208 248.451 93.6055 248.48 93.2928C248.509 92.9801 248.601 92.6765 248.75 92.4001C249.2 91.2601 249.66 90.1101 250.12 88.9701C250.194 88.6904 250.206 88.3981 250.156 88.1132C250.106 87.8284 249.995 87.5578 249.83 87.3201C249.489 86.9768 249.076 86.7137 248.62 86.5501L245.67 85.2901C244.56 84.8101 241.25 80.3901 245.17 79.1001C244.934 78.5997 244.565 78.1743 244.103 77.8707C243.64 77.5672 243.103 77.3974 242.55 77.3801C241.9 77.3486 241.253 77.4793 240.667 77.7604C240.08 78.0414 239.573 78.464 239.19 78.9901Z" fill="#020304"/>
<path d="M244.54 74.2303L244.24 77.7203C245.24 76.1203 247.03 73.0103 246.97 73.1303C246.2 73.5503 245.31 73.8103 244.54 74.2303Z" fill="#020304"/>
<path d="M245.86 76.1404L249.96 72.3504C249.427 72.1655 248.852 72.135 248.301 72.2624C247.751 72.3897 247.248 72.6698 246.85 73.0704C246.88 72.9804 246.24 74.9204 245.86 76.1404Z" fill="#020304"/>
<path d="M237.53 170.75C232.2 177.37 233.97 182.44 226.61 194.16C235.9 201.04 246.08 202.16 258.73 201.16C260.23 198.51 260.98 195.75 262.48 193.1C264.62 195.76 266.34 197.99 268.48 200.66C275.11 199.66 282.99 197.75 288.23 194.37C283.6 189.06 280.72 182.43 277.76 176.58C276.37 173.83 276.95 172.68 273.26 169.08C261.51 169.62 249.86 169.9 238.12 170.45C238.44 170.5 237.22 170.73 237.53 170.75Z" fill="#020304"/>
<path d="M239 169.64L238.27 172.73C238.16 172.98 238.45 173.21 238.84 173.18L271.23 171.75C271.353 171.765 271.478 171.736 271.582 171.669C271.686 171.601 271.764 171.499 271.8 171.38L271.97 168.31C271.97 168.11 271.7 167.93 271.36 167.96L239.55 169.36C239.442 169.356 239.335 169.379 239.238 169.428C239.142 169.477 239.06 169.55 239 169.64Z" fill="#407BFF"/>
<path d="M239 169.64L238.27 172.73C238.16 172.98 238.45 173.21 238.84 173.18L271.23 171.75C271.353 171.765 271.478 171.736 271.582 171.669C271.686 171.601 271.764 171.499 271.8 171.38L271.97 168.31C271.97 168.11 271.7 167.93 271.36 167.96L239.55 169.36C239.442 169.356 239.335 169.379 239.238 169.428C239.142 169.477 239.06 169.55 239 169.64Z" fill="#407BFF"/>
<path d="M246.13 173.19H245.19C245.01 173.19 244.86 173.11 244.87 173L245.12 169C245.12 168.88 245.29 168.78 245.47 168.78L246.42 168.73C246.59 168.73 246.74 168.81 246.73 168.93L246.48 172.93C246.47 173.05 246.31 173.18 246.13 173.19Z" fill="#020304"/>
<path d="M269.51 172.18H268.57C268.39 172.18 268.24 172.1 268.25 171.99L268.5 167.99C268.5 167.87 268.67 167.76 268.85 167.76H269.79C269.97 167.76 270.11 167.84 270.1 167.95L269.85 171.95C269.85 172.05 269.7 172.17 269.51 172.18Z" fill="#020304"/>
<path d="M250.31 153.77C250.37 154.06 252.88 158.06 254.86 157.77C255.142 157.731 255.428 157.767 255.692 157.874C255.955 157.981 256.186 158.156 256.36 158.38C257.15 159.38 257.63 160 258.16 160.68C258.58 161.217 259.171 161.594 259.834 161.751C260.498 161.907 261.194 161.833 261.81 161.54C262.18 161.37 262.55 161.18 262.92 160.98C263.517 160.668 263.992 160.164 264.268 159.549C264.544 158.934 264.604 158.244 264.44 157.59C264.073 156.116 263.505 154.699 262.75 153.38C262.527 152.911 262.182 152.51 261.75 152.22C259.672 151.425 257.495 150.914 255.28 150.7C253.58 150.77 251.92 153.05 250.31 153.77Z" fill="#E8BFBF"/>
<path d="M255.38 150.58C255.38 150.58 228.8 142.53 223.06 147.89C219.69 151.04 221.28 154.02 223.17 155.89C224.57 157.32 227.62 156.97 229.62 156.89L250.56 154.83L255.38 150.58Z" fill="#E8BFBF"/>
<path d="M240.1 146.9C239.981 146.185 239.685 145.51 239.24 144.938C238.795 144.365 238.214 143.912 237.55 143.62C236.219 143.056 234.803 142.718 233.36 142.62L223.36 141.35C221.563 143.567 220.554 146.317 220.49 149.17C220.561 151.929 221.57 154.581 223.35 156.69C224.95 153.6 227.06 150.42 230.18 148.88C233.3 147.34 236.68 146.28 240.1 146.9Z" fill="#020304"/>
<path opacity="0.1" d="M233.25 98.3502C233.25 98.2902 233.25 98.2602 233.25 98.2502C233.46 98.1902 233.43 98.2302 233.25 98.3502Z" fill="white"/>
<path d="M299.29 55.3101L306.69 69.0501L336.91 43.3901C336.963 43.3439 336.997 43.2796 337.004 43.2099C337.012 43.1401 336.993 43.07 336.952 43.0133C336.91 42.9567 336.849 42.9178 336.78 42.9042C336.711 42.8906 336.64 42.9034 336.58 42.9401L308.25 61.6401L303.89 53.1201L299.29 55.3101Z" fill="white"/>
<path d="M347 55.3802C347 67.6202 334.15 77.5302 318.3 77.5302C312.603 77.5701 306.985 76.1957 301.95 73.5302L285.1 80.8602L295.7 69.0502C293.812 67.3012 292.297 65.1888 291.245 62.8398C290.193 60.4907 289.627 57.9535 289.58 55.3802C289.58 43.1402 302.43 33.2202 318.27 33.2202C334.11 33.2202 347 43.1402 347 55.3802Z" stroke="white" stroke-width="1.3" stroke-miterlimit="10"/>
</g>
<defs>
<clipPath id="clip0_26_2">
<rect width="500" height="372.06" fill="white"/>
</clipPath>
</defs>
</svg>
